<svg width="234" height="116" viewBox="0 0 234 116" fill="none" xmlns="http://www.w3.org/2000/svg">
<path d="M210.553 13.8113V121.151H-58.3741C-89.0148 121.151 -113.944 97.0744 -113.944 67.4814C-113.944 37.8884 -89.0148 13.8113 -58.3741 13.8113H210.553Z" fill="#FFF5B7" fill-opacity="0.1"/>
<path d="M217.161 120.326C217.161 121.421 216.726 122.471 215.952 123.245C215.178 124.019 214.128 124.454 213.033 124.454H-63.1617C-78.1623 124.454 -92.5486 118.495 -103.156 107.888C-113.763 97.2813 -119.722 82.895 -119.722 67.8943C-119.722 52.8937 -113.763 38.5074 -103.156 27.9004C-92.5486 17.2933 -78.1623 11.3343 -63.1617 11.3343H213.033C214.128 11.3343 215.178 11.7693 215.952 12.5435C216.726 13.3178 217.161 14.3679 217.161 15.4628C217.161 16.5577 216.726 17.6078 215.952 18.382C215.178 19.1563 214.128 19.5913 213.033 19.5913H-63.1617C-75.9724 19.5913 -88.2585 24.6803 -97.3171 33.7389C-106.376 42.7975 -111.465 55.0836 -111.465 67.8943C-111.465 80.7051 -106.376 92.9912 -97.3171 102.05C-88.2585 111.108 -75.9724 116.197 -63.1617 116.197H213.033C214.128 116.198 215.178 116.633 215.952 117.407C216.726 118.181 217.161 119.231 217.161 120.326Z" fill="#00EAD3"/>
<path d="M210.555 38.5821H-78.4375C-78.6565 38.5821 -78.8665 38.4951 -79.0213 38.3402C-79.1762 38.1854 -79.2632 37.9754 -79.2632 37.7564C-79.2632 37.5374 -79.1762 37.3274 -79.0213 37.1725C-78.8665 37.0177 -78.6565 36.9307 -78.4375 36.9307H210.555C210.774 36.9307 210.984 37.0177 211.139 37.1725C211.294 37.3274 211.381 37.5374 211.381 37.7564C211.381 37.9754 211.294 38.1854 211.139 38.3402C210.984 38.4951 210.774 38.5821 210.555 38.5821Z" fill="#CCCCCC"/>
<path d="M210.555 58.3988H-78.4375C-78.6565 58.3988 -78.8665 58.3118 -79.0213 58.1569C-79.1762 58.0021 -79.2632 57.7921 -79.2632 57.5731C-79.2632 57.3541 -79.1762 57.1441 -79.0213 56.9892C-78.8665 56.8344 -78.6565 56.7474 -78.4375 56.7474H210.555C210.774 56.7474 210.984 56.8344 211.139 56.9892C211.294 57.1441 211.381 57.3541 211.381 57.5731C211.381 57.7921 211.294 58.0021 211.139 58.1569C210.984 58.3118 210.774 58.3988 210.555 58.3988Z" fill="#CCCCCC"/>
<path d="M210.555 78.2155H-78.4375C-78.6565 78.2155 -78.8665 78.1285 -79.0213 77.9737C-79.1762 77.8188 -79.2632 77.6088 -79.2632 77.3898C-79.2632 77.1708 -79.1762 76.9608 -79.0213 76.806C-78.8665 76.6511 -78.6565 76.5641 -78.4375 76.5641H210.555C210.774 76.5641 210.984 76.6511 211.139 76.806C211.294 76.9608 211.381 77.1708 211.381 77.3898C211.381 77.6088 211.294 77.8188 211.139 77.9737C210.984 78.1285 210.774 78.2155 210.555 78.2155Z" fill="#CCCCCC"/>
<path d="M210.555 98.0323H-78.4375C-78.6565 98.0323 -78.8665 97.9453 -79.0213 97.7905C-79.1762 97.6356 -79.2632 97.4256 -79.2632 97.2066C-79.2632 96.9876 -79.1762 96.7776 -79.0213 96.6228C-78.8665 96.4679 -78.6565 96.3809 -78.4375 96.3809H210.555C210.774 96.3809 210.984 96.4679 211.139 96.6228C211.294 96.7776 211.381 96.9876 211.381 97.2066C211.381 97.4256 211.294 97.6356 211.139 97.7905C210.984 97.9453 210.774 98.0323 210.555 98.0323Z" fill="#CCCCCC"/>
</svg>
