<svg width="218" height="105" viewBox="0 0 218 105" fill="none" xmlns="http://www.w3.org/2000/svg">
<path d="M210.553 2.81128V110.151H-58.3741C-89.0148 110.151 -113.944 86.0744 -113.944 56.4814C-113.944 26.8884 -89.0148 2.81128 -58.3741 2.81128H210.553Z" fill="#FFF5B7" fill-opacity="0.1"/>
<path d="M217.161 109.326C217.161 110.421 216.726 111.471 215.952 112.245C215.178 113.019 214.128 113.454 213.033 113.454H-63.1617C-78.1623 113.454 -92.5486 107.495 -103.156 96.8883C-113.763 86.2813 -119.722 71.895 -119.722 56.8943C-119.722 41.8937 -113.763 27.5074 -103.156 16.9004C-92.5486 6.29329 -78.1623 0.33432 -63.1617 0.33432H213.033C214.128 0.33432 215.178 0.769292 215.952 1.54353C216.726 2.31777 217.161 3.36785 217.161 4.46279C217.161 5.55773 216.726 6.60781 215.952 7.38205C215.178 8.15628 214.128 8.59126 213.033 8.59126H-63.1617C-75.9724 8.59126 -88.2585 13.6803 -97.3171 22.7389C-106.376 31.7975 -111.465 44.0836 -111.465 56.8943C-111.465 69.7051 -106.376 81.9912 -97.3171 91.0498C-88.2585 100.108 -75.9724 105.197 -63.1617 105.197H213.033C214.128 105.198 215.178 105.633 215.952 106.407C216.726 107.181 217.161 108.231 217.161 109.326Z" fill="#00EAD3"/>
<path d="M210.555 27.5821H-78.4375C-78.6565 27.5821 -78.8665 27.4951 -79.0213 27.3402C-79.1762 27.1854 -79.2632 26.9754 -79.2632 26.7564C-79.2632 26.5374 -79.1762 26.3274 -79.0213 26.1725C-78.8665 26.0177 -78.6565 25.9307 -78.4375 25.9307H210.555C210.774 25.9307 210.984 26.0177 211.139 26.1725C211.294 26.3274 211.381 26.5374 211.381 26.7564C211.381 26.9754 211.294 27.1854 211.139 27.3402C210.984 27.4951 210.774 27.5821 210.555 27.5821Z" fill="#CCCCCC"/>
<path d="M210.555 47.3988H-78.4375C-78.6565 47.3988 -78.8665 47.3118 -79.0213 47.1569C-79.1762 47.0021 -79.2632 46.7921 -79.2632 46.5731C-79.2632 46.3541 -79.1762 46.1441 -79.0213 45.9892C-78.8665 45.8344 -78.6565 45.7474 -78.4375 45.7474H210.555C210.774 45.7474 210.984 45.8344 211.139 45.9892C211.294 46.1441 211.381 46.3541 211.381 46.5731C211.381 46.7921 211.294 47.0021 211.139 47.1569C210.984 47.3118 210.774 47.3988 210.555 47.3988Z" fill="#CCCCCC"/>
<path d="M210.555 67.2155H-78.4375C-78.6565 67.2155 -78.8665 67.1285 -79.0213 66.9737C-79.1762 66.8188 -79.2632 66.6088 -79.2632 66.3898C-79.2632 66.1708 -79.1762 65.9608 -79.0213 65.806C-78.8665 65.6511 -78.6565 65.5641 -78.4375 65.5641H210.555C210.774 65.5641 210.984 65.6511 211.139 65.806C211.294 65.9608 211.381 66.1708 211.381 66.3898C211.381 66.6088 211.294 66.8188 211.139 66.9737C210.984 67.1285 210.774 67.2155 210.555 67.2155Z" fill="#CCCCCC"/>
<path d="M210.555 87.0323H-78.4375C-78.6565 87.0323 -78.8665 86.9453 -79.0213 86.7905C-79.1762 86.6356 -79.2632 86.4256 -79.2632 86.2066C-79.2632 85.9876 -79.1762 85.7776 -79.0213 85.6228C-78.8665 85.4679 -78.6565 85.3809 -78.4375 85.3809H210.555C210.774 85.3809 210.984 85.4679 211.139 85.6228C211.294 85.7776 211.381 85.9876 211.381 86.2066C211.381 86.4256 211.294 86.6356 211.139 86.7905C210.984 86.9453 210.774 87.0323 210.555 87.0323Z" fill="#CCCCCC"/>
</svg>
