<svg width="369" height="478" viewBox="0 0 369 478" fill="none" xmlns="http://www.w3.org/2000/svg">
<path d="M369 229.582C369 392.995 294.804 521.909 203.434 525.468C84.2798 530.109 -71.4489 411.301 37.8681 229.582C122.105 89.554 111.994 -66.3032 203.434 -66.3032C294.874 -66.3032 369 66.1692 369 229.582Z" fill="white"/>
<path d="M96.9686 210.402C95.3786 210.4 93.849 209.793 92.6894 208.705C91.5298 207.618 90.8269 206.13 90.723 204.543L89.7927 190.34C89.684 188.681 90.2388 187.047 91.335 185.797C92.4313 184.547 93.9791 183.784 95.6381 183.675L206.915 176.388C208.669 176.273 210.429 176.505 212.093 177.07C213.758 177.635 215.294 178.522 216.616 179.681C217.937 180.84 219.018 182.248 219.795 183.825C220.573 185.402 221.032 187.116 221.147 188.87C221.262 190.624 221.03 192.384 220.465 194.048C219.9 195.713 219.012 197.249 217.853 198.571C216.694 199.892 215.286 200.973 213.709 201.75C212.133 202.528 210.418 202.987 208.664 203.102L97.3877 210.389C97.2476 210.397 97.1079 210.402 96.9686 210.402Z" fill="#F54298"/>
<path d="M118.91 212.234C117.289 212.231 115.732 211.601 114.565 210.476C113.398 209.352 112.711 207.819 112.649 206.199L111.856 184.985C111.825 184.162 111.957 183.341 112.243 182.57C112.529 181.798 112.965 181.09 113.525 180.487C114.085 179.883 114.758 179.396 115.507 179.053C116.255 178.71 117.063 178.517 117.886 178.487L209.392 175.067C211.053 175.005 212.671 175.605 213.89 176.736C215.109 177.867 215.828 179.436 215.89 181.097L216.683 202.311C216.714 203.134 216.582 203.954 216.296 204.726C216.01 205.498 215.574 206.206 215.014 206.809C214.454 207.413 213.781 207.9 213.032 208.243C212.284 208.586 211.476 208.778 210.653 208.809L119.147 212.229C119.068 212.232 118.989 212.234 118.91 212.234Z" fill="#2F2E41"/>
<path d="M226.141 407.791H211.907C210.245 407.789 208.652 407.128 207.477 405.953C206.302 404.777 205.641 403.184 205.639 401.522V282.89C205.641 281.228 206.302 279.635 207.477 278.46C208.652 277.285 210.245 276.624 211.907 276.622H226.141C227.803 276.624 229.396 277.285 230.572 278.46C231.747 279.635 232.408 281.228 232.41 282.89V401.522C232.408 403.184 231.747 404.777 230.572 405.953C229.396 407.128 227.803 407.789 226.141 407.791Z" fill="#2F2E41"/>
<path d="M162.964 345.083L150.792 337.705C149.372 336.842 148.352 335.45 147.956 333.836C147.56 332.222 147.821 330.517 148.681 329.095L210.173 227.644C211.036 226.224 212.428 225.204 214.042 224.809C215.656 224.413 217.361 224.673 218.783 225.533L230.955 232.911C232.376 233.774 233.396 235.165 233.791 236.78C234.187 238.394 233.927 240.099 233.067 241.521L171.574 342.971C170.711 344.392 169.32 345.412 167.706 345.807C166.092 346.203 164.386 345.943 162.964 345.083Z" fill="#2F2E41"/>
<path d="M204.523 152.817C231.686 152.817 253.706 130.797 253.706 103.633C253.706 76.4703 231.686 54.4502 204.523 54.4502C177.36 54.4502 155.34 76.4703 155.34 103.633C155.34 130.797 177.36 152.817 204.523 152.817Z" fill="#F54298"/>
<path d="M177.901 120.426C176.319 119.906 174.866 119.053 173.641 117.925C172.83 117.12 172.204 116.147 171.808 115.074C171.412 114.002 171.255 112.855 171.349 111.716C171.4 110.904 171.639 110.115 172.046 109.41C172.452 108.706 173.017 108.105 173.694 107.655C175.453 106.527 177.806 106.523 180.201 107.579L180.11 88.3783L182.039 88.3691L182.145 110.941L180.659 110.006C178.936 108.924 176.475 108.163 174.736 109.278C174.306 109.573 173.95 109.963 173.696 110.418C173.441 110.873 173.295 111.38 173.269 111.9C173.204 112.749 173.322 113.602 173.616 114.401C173.911 115.2 174.373 115.926 174.973 116.53C177.103 118.565 180.21 119.201 183.754 119.769L183.448 121.674C181.565 121.424 179.709 121.007 177.901 120.426Z" fill="#2F2E41"/>
<path d="M160.229 87.4086L159.977 89.3206L170.275 90.6806L170.528 88.7687L160.229 87.4086Z" fill="#2F2E41"/>
<path d="M192.733 91.6999L192.48 93.6118L202.779 94.9719L203.031 93.06L192.733 91.6999Z" fill="#2F2E41"/>
<path d="M245.591 314.719H162.654C160.481 314.717 158.397 313.853 156.861 312.316C155.324 310.779 154.46 308.695 154.457 306.522L171.82 173.376C171.834 171.213 172.703 169.143 174.238 167.619C175.774 166.094 177.85 165.24 180.013 165.241H209.446C221.202 165.254 232.473 169.93 240.786 178.243C249.099 186.556 253.775 197.827 253.788 209.583V306.522C253.785 308.695 252.921 310.779 251.384 312.316C249.848 313.853 247.764 314.717 245.591 314.719Z" fill="#2F2E41"/>
<path d="M316.946 262.255C317.458 263.351 317.643 264.572 317.477 265.771C317.312 266.97 316.803 268.095 316.013 269.012L306.707 279.782C306.169 280.405 305.514 280.916 304.778 281.286C304.043 281.655 303.241 281.876 302.42 281.936C301.599 281.996 300.775 281.894 299.993 281.635C299.212 281.376 298.489 280.966 297.866 280.428L213.482 207.524C212.152 206.375 211.061 204.975 210.271 203.404C209.482 201.833 209.009 200.122 208.881 198.369C208.753 196.616 208.972 194.854 209.524 193.185C210.077 191.516 210.953 189.973 212.102 188.642C213.252 187.312 214.652 186.221 216.223 185.432C217.794 184.643 219.505 184.171 221.258 184.043C223.011 183.916 224.773 184.135 226.441 184.688C228.11 185.241 229.654 186.117 230.984 187.267L315.368 260.17C316.035 260.746 316.573 261.456 316.946 262.255Z" fill="#F54298"/>
<path d="M298.32 238.195C298.832 239.291 299.017 240.512 298.851 241.711C298.686 242.91 298.177 244.035 297.387 244.952L281.492 263.349C280.405 264.605 278.863 265.379 277.205 265.5C275.548 265.621 273.91 265.079 272.651 263.994L203.36 204.129C202.737 203.591 202.226 202.936 201.857 202.2C201.487 201.465 201.266 200.663 201.206 199.842C201.146 199.021 201.249 198.197 201.507 197.415C201.766 196.634 202.177 195.911 202.715 195.288L218.609 176.891C219.147 176.268 219.802 175.757 220.538 175.388C221.274 175.018 222.075 174.797 222.896 174.737C223.717 174.677 224.542 174.78 225.323 175.039C226.104 175.298 226.827 175.708 227.45 176.246L296.742 236.111C297.409 236.686 297.947 237.397 298.32 238.195Z" fill="#2F2E41"/>
<path d="M205.444 74.4626C198.869 69.0217 190.08 74.1676 182.645 73.4373C175.531 72.7385 169.806 66.4784 168.246 59.7419C166.425 51.8826 170.371 43.8991 176.315 38.8645C182.824 33.3504 191.564 31.6368 199.893 32.4759C209.438 33.4376 218.233 37.7116 226.151 42.9329C233.79 47.8122 240.839 53.5591 247.157 60.0589C252.819 66.0778 257.656 73.2885 259.313 81.5011C260.819 88.9647 259.935 97.2838 255.628 103.713C253.342 107.009 250.245 109.661 246.636 111.412C242.875 113.348 238.851 114.758 235.213 116.936C229.712 120.228 224.432 126.939 226.305 133.783C226.707 135.278 227.471 136.651 228.528 137.782C229.799 139.14 232.009 137.272 230.735 135.91C228.497 133.519 228.522 130.273 229.635 127.347C230.961 124.047 233.369 121.296 236.463 119.545C240.272 117.27 244.496 115.831 248.404 113.751C252.147 111.847 255.373 109.068 257.81 105.649C262.409 98.9963 263.659 90.4277 262.438 82.5463C261.116 74.0173 256.575 66.3305 250.944 59.9236C244.816 52.9512 237.339 47.0926 229.716 41.8468C221.535 36.2179 212.526 31.4989 202.626 29.9183C194.045 28.5481 184.792 29.6679 177.402 34.4708C170.503 38.954 165.292 46.5395 164.919 54.9121C164.8 58.7206 165.698 62.492 167.521 65.8382C169.343 69.1843 172.025 71.9844 175.289 73.9502C178.636 75.8679 182.501 76.6863 186.339 76.2899C190.443 75.9488 194.532 74.6123 198.674 74.8831C200.547 74.9611 202.344 75.6478 203.792 76.8389C205.229 78.0276 206.869 75.6416 205.444 74.4626Z" fill="#2F2E41"/>
<path d="M147.611 330.809C147.629 330.7 147.649 330.591 147.673 330.483C147.844 329.677 148.174 328.914 148.643 328.237C149.111 327.56 149.709 326.982 150.403 326.538L162.364 318.823C163.762 317.923 165.459 317.615 167.083 317.966C168.708 318.316 170.127 319.297 171.029 320.692L207.928 377.899C208.828 379.296 209.138 380.994 208.787 382.619C208.436 384.244 207.455 385.663 206.058 386.564L194.096 394.279C192.698 395.179 191.001 395.487 189.377 395.136C187.752 394.786 186.333 393.805 185.43 392.41L148.532 335.203C147.689 333.904 147.361 332.337 147.611 330.809Z" fill="#2F2E41"/>
</svg>
