<svg width="413" height="588" viewBox="0 0 413 588" fill="none" xmlns="http://www.w3.org/2000/svg">
<path d="M413 328.94C413 511.88 329.938 656.198 227.649 660.182C94.2567 665.378 -80.0811 532.373 42.2989 328.94C136.602 172.178 125.283 -2.30322 227.649 -2.30322C330.016 -2.30322 413 145.999 413 328.94Z" fill="white"/>
<path d="M108.462 307.468C106.682 307.465 104.969 306.786 103.671 305.568C102.373 304.35 101.586 302.685 101.47 300.909L100.428 285.008C100.307 283.151 100.928 281.321 102.155 279.922C103.382 278.523 105.115 277.668 106.972 277.547L231.546 269.388C233.51 269.26 235.48 269.519 237.343 270.152C239.207 270.785 240.927 271.778 242.407 273.076C243.886 274.373 245.095 275.95 245.966 277.715C246.836 279.48 247.35 281.399 247.479 283.362C247.607 285.326 247.348 287.296 246.715 289.159C246.082 291.023 245.089 292.743 243.791 294.223C242.494 295.702 240.918 296.911 239.153 297.782C237.388 298.652 235.468 299.166 233.505 299.295L108.931 307.452C108.774 307.462 108.618 307.467 108.462 307.468Z" fill="#F54298"/>
<path d="M133.025 309.518C131.211 309.515 129.467 308.81 128.161 307.551C126.854 306.291 126.085 304.575 126.016 302.762L125.128 279.013C125.093 278.092 125.241 277.173 125.561 276.309C125.882 275.445 126.37 274.653 126.997 273.977C127.624 273.302 128.377 272.756 129.215 272.372C130.053 271.988 130.958 271.773 131.879 271.738L234.319 267.91C236.179 267.84 237.991 268.512 239.355 269.778C240.719 271.044 241.525 272.801 241.594 274.66L242.482 298.41C242.516 299.331 242.369 300.249 242.048 301.113C241.728 301.977 241.24 302.77 240.613 303.445C239.986 304.121 239.232 304.666 238.395 305.05C237.557 305.434 236.652 305.65 235.731 305.684L133.29 309.513C133.202 309.516 133.113 309.518 133.025 309.518Z" fill="#2F2E41"/>
<path d="M253.07 528.443H237.135C235.275 528.441 233.491 527.701 232.175 526.386C230.86 525.07 230.12 523.286 230.118 521.426V388.618C230.12 386.757 230.86 384.974 232.175 383.658C233.491 382.342 235.275 381.602 237.135 381.6H253.07C254.931 381.602 256.714 382.342 258.03 383.658C259.345 384.974 260.085 386.757 260.088 388.618V521.426C260.085 523.286 259.345 525.07 258.03 526.386C256.714 527.701 254.931 528.441 253.07 528.443Z" fill="#2F2E41"/>
<path d="M182.344 458.242L168.717 449.982C167.127 449.016 165.985 447.459 165.542 445.652C165.099 443.845 165.391 441.936 166.353 440.344L235.194 326.77C236.16 325.18 237.718 324.039 239.525 323.596C241.332 323.152 243.241 323.444 244.833 324.407L258.46 332.666C260.049 333.633 261.191 335.19 261.634 336.997C262.077 338.804 261.786 340.713 260.823 342.305L191.982 455.878C191.016 457.468 189.459 458.61 187.652 459.053C185.845 459.496 183.936 459.205 182.344 458.242Z" fill="#2F2E41"/>
<path d="M228.869 243.001C259.278 243.001 283.929 218.349 283.929 187.94C283.929 157.531 259.278 132.88 228.869 132.88C198.459 132.88 173.808 157.531 173.808 187.94C173.808 218.349 198.459 243.001 228.869 243.001Z" fill="#F54298"/>
<path d="M199.065 206.739C197.294 206.157 195.668 205.203 194.297 203.94C193.388 203.039 192.687 201.949 192.244 200.748C191.801 199.548 191.625 198.264 191.73 196.989C191.788 196.08 192.055 195.196 192.51 194.408C192.966 193.619 193.597 192.946 194.356 192.442C196.325 191.179 198.959 191.175 201.64 192.357L201.538 170.862L203.697 170.852L203.817 196.121L202.153 195.075C200.224 193.863 197.469 193.011 195.522 194.26C195.041 194.59 194.643 195.026 194.358 195.535C194.073 196.045 193.909 196.612 193.879 197.195C193.807 198.145 193.939 199.1 194.269 199.995C194.598 200.889 195.116 201.702 195.788 202.378C198.172 204.656 201.651 205.368 205.618 206.004L205.275 208.136C203.168 207.857 201.089 207.389 199.065 206.739Z" fill="#2F2E41"/>
<path d="M179.282 169.777L178.999 171.917L190.528 173.44L190.811 171.299L179.282 169.777Z" fill="#2F2E41"/>
<path d="M215.669 174.581L215.387 176.721L226.916 178.244L227.199 176.103L215.669 174.581Z" fill="#2F2E41"/>
<path d="M274.844 424.25H181.997C179.564 424.248 177.231 423.28 175.511 421.56C173.79 419.839 172.823 417.507 172.82 415.074L192.258 266.017C192.273 263.595 193.246 261.278 194.965 259.571C196.684 257.865 199.008 256.908 201.43 256.91H234.38C247.541 256.925 260.158 262.16 269.465 271.466C278.771 280.772 284.006 293.39 284.02 306.551V415.074C284.018 417.507 283.05 419.839 281.33 421.56C279.609 423.28 277.277 424.248 274.844 424.25Z" fill="#2F2E41"/>
<path d="M354.726 365.516C355.299 366.744 355.506 368.111 355.321 369.453C355.135 370.795 354.566 372.055 353.681 373.081L343.264 385.139C342.661 385.836 341.927 386.408 341.104 386.822C340.28 387.235 339.383 387.483 338.464 387.55C337.545 387.617 336.622 387.502 335.747 387.212C334.872 386.923 334.063 386.463 333.366 385.861L238.899 304.245C237.409 302.959 236.187 301.391 235.304 299.633C234.42 297.875 233.891 295.959 233.748 293.996C233.604 292.034 233.849 290.062 234.467 288.193C235.086 286.325 236.067 284.597 237.353 283.108C238.64 281.618 240.208 280.397 241.966 279.514C243.725 278.63 245.64 278.102 247.603 277.959C249.566 277.816 251.538 278.061 253.406 278.68C255.274 279.299 257.002 280.28 258.491 281.567L352.959 363.183C353.706 363.827 354.308 364.622 354.726 365.516Z" fill="#F54298"/>
<path d="M333.874 338.581C334.447 339.809 334.654 341.176 334.469 342.518C334.283 343.86 333.714 345.12 332.829 346.146L315.036 366.741C313.818 368.148 312.092 369.014 310.236 369.149C308.38 369.284 306.547 368.678 305.138 367.464L227.567 300.445C226.869 299.843 226.297 299.109 225.884 298.285C225.47 297.462 225.222 296.565 225.155 295.646C225.088 294.727 225.203 293.803 225.493 292.929C225.782 292.054 226.242 291.245 226.844 290.547L244.637 269.952C245.24 269.255 245.974 268.683 246.797 268.269C247.621 267.855 248.518 267.608 249.437 267.541C250.356 267.474 251.279 267.588 252.154 267.878C253.029 268.168 253.838 268.627 254.535 269.23L332.107 336.248C332.854 336.892 333.456 337.688 333.874 338.581Z" fill="#2F2E41"/>
<path d="M229.899 155.284C222.539 149.193 212.7 154.954 204.376 154.136C196.413 153.354 190.003 146.345 188.256 138.804C186.218 130.005 190.636 121.068 197.289 115.432C204.577 109.259 214.361 107.34 223.685 108.28C234.371 109.356 244.217 114.141 253.081 119.986C261.633 125.449 269.524 131.882 276.598 139.159C282.936 145.897 288.351 153.969 290.206 163.163C291.891 171.519 290.902 180.832 286.081 188.029C283.522 191.719 280.055 194.688 276.014 196.648C271.804 198.816 267.298 200.394 263.226 202.832C257.068 206.518 251.157 214.031 253.254 221.693C253.704 223.366 254.558 224.904 255.742 226.17C257.165 227.69 259.639 225.598 258.213 224.074C255.708 221.397 255.735 217.764 256.981 214.487C258.466 210.794 261.161 207.714 264.626 205.753C268.889 203.207 273.619 201.595 277.994 199.267C282.183 197.136 285.795 194.024 288.524 190.197C293.671 182.749 295.071 173.157 293.704 164.333C292.225 154.785 287.141 146.18 280.837 139.007C273.976 131.202 265.606 124.643 257.072 118.77C247.914 112.469 237.828 107.186 226.745 105.417C217.138 103.883 206.78 105.136 198.506 110.513C190.784 115.532 184.95 124.024 184.532 133.397C184.399 137.661 185.404 141.883 187.444 145.629C189.485 149.375 192.487 152.509 196.141 154.71C199.888 156.857 204.215 157.773 208.511 157.329C213.106 156.947 217.684 155.451 222.32 155.754C224.418 155.842 226.429 156.61 228.051 157.944C229.659 159.275 231.494 156.604 229.899 155.284Z" fill="#2F2E41"/>
<path d="M165.156 442.262C165.176 442.141 165.199 442.019 165.225 441.898C165.417 440.996 165.786 440.141 166.31 439.383C166.835 438.625 167.505 437.978 168.281 437.481L181.672 428.844C183.236 427.837 185.136 427.492 186.955 427.885C188.773 428.277 190.362 429.375 191.373 430.937L232.68 494.98C233.688 496.544 234.034 498.444 233.642 500.264C233.249 502.083 232.15 503.672 230.587 504.681L217.195 513.318C215.631 514.324 213.731 514.669 211.912 514.277C210.094 513.884 208.505 512.787 207.494 511.224L166.187 447.182C165.243 445.727 164.875 443.973 165.156 442.262Z" fill="#2F2E41"/>
</svg>
