<svg xmlns="http://www.w3.org/2000/svg" width="176" height="126" viewBox="0 0 176 126" fill="none">
<path d="M53.3713 59.9766C53.5184 60.0092 52.6956 59.2705 52.4408 59.01C51.5385 58.0875 50.281 56.9175 49.5506 55.8464C49.3288 55.5213 49.6413 54.7274 49.7256 54.3475C49.9709 53.2412 49.1623 52.4371 48.7149 51.5489C47.5845 49.3049 48.7131 51.7794 48.788 53.1547C48.8775 54.7951 48.8033 56.4359 49.0303 58.0636C49.0633 58.3006 48.9585 60.1042 49.0584 60.1951C50.767 61.7482 53.4717 56.8763 54.1299 55.6525C55.7697 52.6032 57.74 51.3011 60.6129 50.9391C61.4185 50.8376 62.0149 50.234 62.7763 50.0885C63.3237 49.9838 63.6723 50.312 64.1201 50.6111C66.1998 52.0002 68.3315 53.2871 70.4464 54.6058C72.8501 56.1045 74.2205 57.0407 75.1026 60.1307C75.7905 62.5404 77.0617 65.2445 76.8821 67.8513C76.8027 69.0038 76.5405 69.8512 77.7544 69.7898C79.9983 69.6765 82.8114 69.3027 84.0742 66.7163C85.6156 63.5592 86.3312 60.0231 87.0932 56.5869C87.4902 54.7967 87.6477 53.2612 89.065 52.3417C89.6817 51.9416 93.0028 58.847 92.9795 60.5012C92.9374 63.4925 91.4836 66.3848 91.4658 69.3921C91.4479 72.4059 95.0241 72.3238 96.8096 72.7197C97.4215 72.8554 98.1266 72.8966 98.5432 73.4843C98.9089 74 99.096 75.3303 99.8629 74.5026C100.844 73.4439 101.406 71.8552 102.033 70.526C102.788 68.9237 103.799 67.5174 104.57 65.9226C105.439 64.1265 105.576 62.0917 106.398 60.2632C108.782 54.9584 113.781 53.2838 118.369 52.482C121.095 52.0056 125.203 51.402 126.867 54.3664C128.088 56.5427 128.998 58.5099 129.083 61.2162" stroke="white" stroke-width="71.8044" stroke-linecap="square" stroke-dasharray="191.48 382.96 574.44 765.91"/>
</svg>