<svg width="515" height="784" viewBox="0 0 515 784" fill="none" xmlns="http://www.w3.org/2000/svg">
<path d="M481.437 626.826V777.754H103.304C60.2204 777.754 25.1675 743.9 25.1675 702.29C25.1675 660.68 60.2204 626.826 103.304 626.826H481.437Z" fill="#FFF5B7" fill-opacity="0.1"/>
<path d="M490.729 776.594C490.728 778.133 490.117 779.609 489.028 780.698C487.94 781.786 486.463 782.398 484.924 782.398H96.5724C75.4802 782.398 55.252 774.02 40.3376 759.105C25.4233 744.191 17.0444 723.963 17.0444 702.871C17.0444 681.778 25.4233 661.55 40.3376 646.636C55.252 631.721 75.4802 623.343 96.5724 623.343H484.924C486.464 623.343 487.94 623.954 489.029 625.043C490.117 626.132 490.729 627.608 490.729 629.148C490.729 630.687 490.117 632.164 489.029 633.252C487.94 634.341 486.464 634.953 484.924 634.953H96.5724C78.5594 634.953 61.2842 642.108 48.5471 654.845C35.81 667.582 28.6543 684.858 28.6543 702.871C28.6543 720.884 35.81 738.159 48.5471 750.896C61.2842 763.633 78.5594 770.789 96.5724 770.789H484.924C486.463 770.789 487.94 771.401 489.028 772.489C490.117 773.578 490.728 775.054 490.729 776.594Z" fill="#005F99"/>
<path d="M481.44 661.655H75.0931C74.7852 661.655 74.4899 661.533 74.2722 661.315C74.0545 661.097 73.9321 660.802 73.9321 660.494C73.9321 660.186 74.0545 659.891 74.2722 659.673C74.4899 659.455 74.7852 659.333 75.0931 659.333H481.44C481.748 659.333 482.043 659.455 482.261 659.673C482.479 659.891 482.601 660.186 482.601 660.494C482.601 660.802 482.479 661.097 482.261 661.315C482.043 661.533 481.748 661.655 481.44 661.655Z" fill="#CCCCCC"/>
<path d="M481.44 689.519H75.0931C74.7852 689.519 74.4899 689.397 74.2722 689.179C74.0545 688.961 73.9321 688.666 73.9321 688.358C73.9321 688.05 74.0545 687.755 74.2722 687.537C74.4899 687.319 74.7852 687.197 75.0931 687.197H481.44C481.748 687.197 482.043 687.319 482.261 687.537C482.479 687.755 482.601 688.05 482.601 688.358C482.601 688.666 482.479 688.961 482.261 689.179C482.043 689.397 481.748 689.519 481.44 689.519Z" fill="#CCCCCC"/>
<path d="M481.44 717.383H75.0931C74.7852 717.383 74.4899 717.261 74.2722 717.043C74.0545 716.825 73.9321 716.53 73.9321 716.222C73.9321 715.914 74.0545 715.619 74.2722 715.401C74.4899 715.183 74.7852 715.061 75.0931 715.061H481.44C481.748 715.061 482.043 715.183 482.261 715.401C482.479 715.619 482.601 715.914 482.601 716.222C482.601 716.53 482.479 716.825 482.261 717.043C482.043 717.261 481.748 717.383 481.44 717.383Z" fill="#CCCCCC"/>
<path d="M481.44 745.247H75.0931C74.7852 745.247 74.4899 745.125 74.2722 744.907C74.0545 744.689 73.9321 744.394 73.9321 744.086C73.9321 743.778 74.0545 743.483 74.2722 743.265C74.4899 743.047 74.7852 742.925 75.0931 742.925H481.44C481.748 742.925 482.043 743.047 482.261 743.265C482.479 743.483 482.601 743.778 482.601 744.086C482.601 744.394 482.479 744.689 482.261 744.907C482.043 745.125 481.748 745.247 481.44 745.247Z" fill="#CCCCCC"/>
<path d="M481.437 468.305V619.233H103.304C60.2204 619.233 25.1675 585.379 25.1675 543.769C25.1675 502.159 60.2204 468.305 103.304 468.305H481.437Z" fill="#FFF5B7" fill-opacity="0.1"/>
<path d="M490.729 618.073C490.728 619.612 490.117 621.088 489.028 622.177C487.94 623.265 486.463 623.877 484.924 623.878H96.5724C75.4802 623.878 55.252 615.499 40.3376 600.584C25.4233 585.67 17.0444 565.442 17.0444 544.35C17.0444 523.258 25.4233 503.029 40.3376 488.115C55.252 473.201 75.4802 464.822 96.5724 464.822H484.924C486.464 464.822 487.94 465.433 489.029 466.522C490.117 467.611 490.729 469.087 490.729 470.627C490.729 472.166 490.117 473.643 489.029 474.731C487.94 475.82 486.464 476.432 484.924 476.432H96.5724C78.5594 476.432 61.2842 483.587 48.5471 496.324C35.81 509.061 28.6543 526.337 28.6543 544.35C28.6543 562.363 35.81 579.638 48.5471 592.375C61.2842 605.112 78.5594 612.268 96.5724 612.268H484.924C486.463 612.268 487.94 612.88 489.028 613.969C490.117 615.057 490.728 616.533 490.729 618.073Z" fill="#0097F5"/>
<path d="M481.44 503.134H75.0931C74.7852 503.134 74.4899 503.012 74.2722 502.794C74.0545 502.576 73.9321 502.281 73.9321 501.973C73.9321 501.665 74.0545 501.37 74.2722 501.152C74.4899 500.935 74.7852 500.812 75.0931 500.812H481.44C481.748 500.812 482.043 500.935 482.261 501.152C482.479 501.37 482.601 501.665 482.601 501.973C482.601 502.281 482.479 502.576 482.261 502.794C482.043 503.012 481.748 503.134 481.44 503.134Z" fill="#CCCCCC"/>
<path d="M481.44 530.998H75.0931C74.7852 530.998 74.4899 530.876 74.2722 530.658C74.0545 530.44 73.9321 530.145 73.9321 529.837C73.9321 529.529 74.0545 529.234 74.2722 529.016C74.4899 528.798 74.7852 528.676 75.0931 528.676H481.44C481.748 528.676 482.043 528.798 482.261 529.016C482.479 529.234 482.601 529.529 482.601 529.837C482.601 530.145 482.479 530.44 482.261 530.658C482.043 530.876 481.748 530.998 481.44 530.998Z" fill="#CCCCCC"/>
<path d="M481.44 558.862H75.0931C74.7852 558.862 74.4899 558.74 74.2722 558.522C74.0545 558.304 73.9321 558.009 73.9321 557.701C73.9321 557.393 74.0545 557.098 74.2722 556.88C74.4899 556.662 74.7852 556.54 75.0931 556.54H481.44C481.748 556.54 482.043 556.662 482.261 556.88C482.479 557.098 482.601 557.393 482.601 557.701C482.601 558.009 482.479 558.304 482.261 558.522C482.043 558.74 481.748 558.862 481.44 558.862Z" fill="#CCCCCC"/>
<path d="M481.44 586.726H75.0931C74.7852 586.726 74.4899 586.604 74.2722 586.386C74.0545 586.168 73.9321 585.873 73.9321 585.565C73.9321 585.257 74.0545 584.962 74.2722 584.744C74.4899 584.526 74.7852 584.404 75.0931 584.404H481.44C481.748 584.404 482.043 584.526 482.261 584.744C482.479 584.962 482.601 585.257 482.601 585.565C482.601 585.873 482.479 586.168 482.261 586.386C482.043 586.604 481.748 586.726 481.44 586.726Z" fill="#CCCCCC"/>
<path d="M481.437 309.249V460.178H103.304C60.2204 460.178 25.1675 426.324 25.1675 384.714C25.1675 343.104 60.2204 309.249 103.304 309.249H481.437Z" fill="#FFF5B7" fill-opacity="0.1"/>
<path d="M490.729 459.017C490.728 460.557 490.117 462.033 489.028 463.121C487.94 464.21 486.463 464.822 484.924 464.822H96.5724C75.4802 464.822 55.252 456.444 40.3376 441.529C25.4233 426.615 17.0444 406.387 17.0444 385.294C17.0444 364.202 25.4233 343.974 40.3376 329.06C55.252 314.145 75.4802 305.766 96.5724 305.766H484.924C486.464 305.766 487.94 306.378 489.029 307.467C490.117 308.555 490.729 310.032 490.729 311.571C490.729 313.111 490.117 314.588 489.029 315.676C487.94 316.765 486.464 317.376 484.924 317.376H96.5724C78.5594 317.376 61.2842 324.532 48.5471 337.269C35.81 350.006 28.6543 367.281 28.6543 385.294C28.6543 403.307 35.81 420.583 48.5471 433.32C61.2842 446.057 78.5594 453.212 96.5724 453.212H484.924C486.463 453.213 487.94 453.825 489.028 454.913C490.117 456.002 490.728 457.478 490.729 459.017Z" fill="#00EAD3"/>
<path d="M481.44 344.079H75.0931C74.7852 344.079 74.4899 343.957 74.2722 343.739C74.0545 343.521 73.9321 343.226 73.9321 342.918C73.9321 342.61 74.0545 342.315 74.2722 342.097C74.4899 341.879 74.7852 341.757 75.0931 341.757H481.44C481.748 341.757 482.043 341.879 482.261 342.097C482.479 342.315 482.601 342.61 482.601 342.918C482.601 343.226 482.479 343.521 482.261 343.739C482.043 343.957 481.748 344.079 481.44 344.079Z" fill="#CCCCCC"/>
<path d="M481.44 371.943H75.0931C74.7852 371.943 74.4899 371.821 74.2722 371.603C74.0545 371.385 73.9321 371.09 73.9321 370.782C73.9321 370.474 74.0545 370.179 74.2722 369.961C74.4899 369.743 74.7852 369.621 75.0931 369.621H481.44C481.748 369.621 482.043 369.743 482.261 369.961C482.479 370.179 482.601 370.474 482.601 370.782C482.601 371.09 482.479 371.385 482.261 371.603C482.043 371.821 481.748 371.943 481.44 371.943Z" fill="#CCCCCC"/>
<path d="M481.44 399.807H75.0931C74.7852 399.807 74.4899 399.684 74.2722 399.467C74.0545 399.249 73.9321 398.954 73.9321 398.646C73.9321 398.338 74.0545 398.043 74.2722 397.825C74.4899 397.607 74.7852 397.485 75.0931 397.485H481.44C481.748 397.485 482.043 397.607 482.261 397.825C482.479 398.043 482.601 398.338 482.601 398.646C482.601 398.954 482.479 399.249 482.261 399.467C482.043 399.684 481.748 399.807 481.44 399.807Z" fill="#CCCCCC"/>
<path d="M481.44 427.671H75.0931C74.7852 427.671 74.4899 427.548 74.2722 427.331C74.0545 427.113 73.9321 426.818 73.9321 426.51C73.9321 426.202 74.0545 425.907 74.2722 425.689C74.4899 425.471 74.7852 425.349 75.0931 425.349H481.44C481.748 425.349 482.043 425.471 482.261 425.689C482.479 425.907 482.601 426.202 482.601 426.51C482.601 426.818 482.479 427.113 482.261 427.331C482.043 427.548 481.748 427.671 481.44 427.671Z" fill="#CCCCCC"/>
<g clip-path="url(#clip0_341_2428)">
<g opacity="0.3">
<path d="M143.976 172.299L98.0219 176.849C96.3945 177.01 95.2058 178.46 95.367 180.088L96.3353 189.868C96.4965 191.495 97.9464 192.684 99.5738 192.523L145.528 187.973C147.155 187.812 148.344 186.362 148.183 184.734L147.215 174.954C147.053 173.327 145.604 172.138 143.976 172.299Z" fill="#F2F2F2"/>
<path d="M199.787 182.6L153.833 187.15C152.206 187.312 151.017 188.761 151.178 190.389L152.146 200.169C152.307 201.796 153.757 202.985 155.385 202.824L201.339 198.274C202.966 198.113 204.155 196.663 203.994 195.035L203.026 185.255C202.864 183.628 201.415 182.439 199.787 182.6Z" fill="#F2F2F2"/>
<path d="M255.6 192.905L209.646 197.455C208.019 197.617 206.83 199.066 206.991 200.694L207.959 210.474C208.12 212.102 209.57 213.29 211.198 213.129L257.152 208.579C258.779 208.418 259.968 206.968 259.807 205.341L258.839 195.56C258.677 193.933 257.228 192.744 255.6 192.905Z" fill="#F2F2F2"/>
<path d="M141.647 148.785L95.6933 153.335C94.0659 153.496 92.8772 154.946 93.0383 156.573L94.0067 166.354C94.1678 167.981 95.6178 169.17 97.2452 169.008L143.199 164.458C144.827 164.297 146.015 162.847 145.854 161.22L144.886 151.44C144.725 149.812 143.275 148.624 141.647 148.785Z" fill="#F2F2F2"/>
<path d="M197.458 159.09L151.504 163.64C149.877 163.801 148.688 165.251 148.849 166.879L149.818 176.659C149.979 178.286 151.429 179.475 153.056 179.314L199.01 174.764C200.638 174.602 201.826 173.153 201.665 171.525L200.697 161.745C200.536 160.117 199.086 158.929 197.458 159.09Z" fill="#F2F2F2"/>
<path d="M253.273 169.391L207.319 173.941C205.691 174.102 204.503 175.552 204.664 177.18L205.632 186.96C205.793 188.587 207.243 189.776 208.871 189.615L254.825 185.065C256.452 184.903 257.641 183.454 257.48 181.826L256.511 172.046C256.35 170.419 254.9 169.23 253.273 169.391Z" fill="#F2F2F2"/>
<path d="M138.543 117.437L92.5888 121.988C90.9614 122.149 89.7727 123.599 89.9339 125.226L90.9022 135.006C91.0634 136.634 92.5133 137.822 94.1407 137.661L140.095 133.111C141.722 132.95 142.911 131.5 142.75 129.873L141.781 120.092C141.62 118.465 140.17 117.276 138.543 117.437Z" fill="#F2F2F2"/>
<path d="M194.354 127.739L148.4 132.289C146.772 132.45 145.584 133.9 145.745 135.527L146.713 145.307C146.874 146.935 148.324 148.123 149.952 147.962L195.906 143.412C197.533 143.251 198.722 141.801 198.561 140.174L197.592 130.394C197.431 128.766 195.981 127.577 194.354 127.739Z" fill="#F2F2F2"/>
<path d="M250.167 138.04L204.213 142.59C202.585 142.751 201.397 144.201 201.558 145.828L202.526 155.609C202.687 157.236 204.137 158.425 205.765 158.263L251.719 153.713C253.346 153.552 254.535 152.102 254.374 150.475L253.405 140.695C253.244 139.067 251.794 137.879 250.167 138.04Z" fill="#F2F2F2"/>
<path d="M136.214 93.9231L90.2602 98.4731C88.6328 98.6343 87.4441 100.084 87.6052 101.712L88.5736 111.492C88.7347 113.119 90.1847 114.308 91.8121 114.147L137.766 109.597C139.394 109.436 140.582 107.986 140.421 106.358L139.453 96.5781C139.292 94.9506 137.842 93.7619 136.214 93.9231Z" fill="#F2F2F2"/>
<path d="M192.027 104.224L146.073 108.774C144.446 108.935 143.257 110.385 143.418 112.013L144.387 121.793C144.548 123.42 145.998 124.609 147.625 124.448L193.579 119.898C195.207 119.737 196.395 118.287 196.234 116.659L195.266 106.879C195.105 105.252 193.655 104.063 192.027 104.224Z" fill="#F2F2F2"/>
<path d="M247.84 114.529L201.886 119.079C200.258 119.24 199.07 120.69 199.231 122.318L200.199 132.098C200.36 133.725 201.81 134.914 203.438 134.753L249.392 130.203C251.019 130.042 252.208 128.592 252.047 126.964L251.078 117.184C250.917 115.557 249.467 114.368 247.84 114.529Z" fill="#F2F2F2"/>
<path opacity="0.1" d="M143.976 172.299L98.0219 176.849C96.3945 177.01 95.2058 178.46 95.367 180.088L96.3353 189.868C96.4965 191.495 97.9464 192.684 99.5738 192.523L145.528 187.973C147.155 187.812 148.344 186.362 148.183 184.734L147.215 174.954C147.053 173.327 145.604 172.138 143.976 172.299Z" fill="#F54298"/>
<path opacity="0.1" d="M199.787 182.6L153.833 187.15C152.206 187.312 151.017 188.761 151.178 190.389L152.146 200.169C152.307 201.796 153.757 202.985 155.385 202.824L201.339 198.274C202.966 198.113 204.155 196.663 203.994 195.035L203.026 185.255C202.864 183.628 201.415 182.439 199.787 182.6Z" fill="#F54298"/>
<path opacity="0.1" d="M255.6 192.905L209.646 197.455C208.019 197.617 206.83 199.066 206.991 200.694L207.959 210.474C208.12 212.102 209.57 213.29 211.198 213.129L257.152 208.579C258.779 208.418 259.968 206.968 259.807 205.341L258.839 195.56C258.677 193.933 257.228 192.744 255.6 192.905Z" fill="#F54298"/>
<path opacity="0.1" d="M141.647 148.785L95.6933 153.335C94.0659 153.496 92.8772 154.946 93.0383 156.573L94.0067 166.354C94.1678 167.981 95.6178 169.17 97.2452 169.008L143.199 164.458C144.827 164.297 146.015 162.847 145.854 161.22L144.886 151.44C144.725 149.812 143.275 148.624 141.647 148.785Z" fill="#F54298"/>
<path opacity="0.1" d="M197.458 159.09L151.504 163.64C149.877 163.801 148.688 165.251 148.849 166.879L149.818 176.659C149.979 178.286 151.429 179.475 153.056 179.314L199.01 174.764C200.638 174.602 201.826 173.153 201.665 171.525L200.697 161.745C200.536 160.117 199.086 158.929 197.458 159.09Z" fill="#F54298"/>
<path opacity="0.1" d="M253.273 169.391L207.319 173.941C205.691 174.102 204.503 175.552 204.664 177.18L205.632 186.96C205.793 188.587 207.243 189.776 208.871 189.615L254.825 185.065C256.452 184.903 257.641 183.454 257.48 181.826L256.511 172.046C256.35 170.419 254.9 169.23 253.273 169.391Z" fill="#F54298"/>
<path opacity="0.1" d="M138.543 117.437L92.5888 121.988C90.9614 122.149 89.7727 123.599 89.9339 125.226L90.9022 135.006C91.0634 136.634 92.5133 137.822 94.1407 137.661L140.095 133.111C141.722 132.95 142.911 131.5 142.75 129.873L141.781 120.092C141.62 118.465 140.17 117.276 138.543 117.437Z" fill="#F54298"/>
<path opacity="0.1" d="M194.354 127.739L148.4 132.289C146.772 132.45 145.584 133.9 145.745 135.527L146.713 145.307C146.874 146.935 148.324 148.123 149.952 147.962L195.906 143.412C197.533 143.251 198.722 141.801 198.561 140.174L197.592 130.394C197.431 128.766 195.981 127.577 194.354 127.739Z" fill="#F54298"/>
<path opacity="0.1" d="M250.167 138.04L204.213 142.59C202.585 142.751 201.397 144.201 201.558 145.828L202.526 155.609C202.687 157.236 204.137 158.425 205.765 158.263L251.719 153.713C253.346 153.552 254.535 152.102 254.374 150.475L253.405 140.695C253.244 139.067 251.794 137.879 250.167 138.04Z" fill="#F54298"/>
<path opacity="0.1" d="M136.214 93.9231L90.2602 98.4731C88.6328 98.6343 87.4441 100.084 87.6052 101.712L88.5736 111.492C88.7347 113.119 90.1847 114.308 91.8121 114.147L137.766 109.597C139.394 109.436 140.582 107.986 140.421 106.358L139.453 96.5781C139.292 94.9506 137.842 93.7619 136.214 93.9231Z" fill="#F54298"/>
<path opacity="0.1" d="M192.027 104.224L146.073 108.774C144.446 108.935 143.257 110.385 143.418 112.013L144.387 121.793C144.548 123.42 145.998 124.609 147.625 124.448L193.579 119.898C195.207 119.737 196.395 118.287 196.234 116.659L195.266 106.879C195.105 105.252 193.655 104.063 192.027 104.224Z" fill="#F54298"/>
<path opacity="0.1" d="M247.84 114.529L201.886 119.079C200.258 119.24 199.07 120.69 199.231 122.318L200.199 132.098C200.36 133.725 201.81 134.914 203.438 134.753L249.392 130.203C251.019 130.042 252.208 128.592 252.047 126.964L251.078 117.184C250.917 115.557 249.467 114.368 247.84 114.529Z" fill="#F54298"/>
</g>
<g opacity="0.3">
<path d="M312.112 160.32L266.158 164.87C264.531 165.031 263.342 166.481 263.503 168.108L264.472 177.889C264.633 179.516 266.083 180.705 267.71 180.544L313.664 175.993C315.292 175.832 316.48 174.382 316.319 172.755L315.351 162.975C315.19 161.347 313.74 160.159 312.112 160.32Z" fill="#F2F2F2"/>
<path d="M367.923 170.621L321.969 175.171C320.342 175.332 319.153 176.782 319.314 178.41L320.283 188.19C320.444 189.817 321.894 191.006 323.521 190.845L369.475 186.295C371.103 186.134 372.291 184.684 372.13 183.056L371.162 173.276C371.001 171.649 369.551 170.46 367.923 170.621Z" fill="#F2F2F2"/>
<path d="M423.736 180.926L377.782 185.476C376.155 185.637 374.966 187.087 375.127 188.715L376.096 198.495C376.257 200.122 377.707 201.311 379.334 201.15L425.288 196.6C426.916 196.439 428.104 194.989 427.943 193.361L426.975 183.581C426.814 181.954 425.364 180.765 423.736 180.926Z" fill="#F2F2F2"/>
<path d="M309.784 136.805L263.83 141.355C262.202 141.517 261.013 142.967 261.175 144.594L262.143 154.374C262.304 156.002 263.754 157.19 265.381 157.029L311.336 152.479C312.963 152.318 314.152 150.868 313.991 149.241L313.022 139.46C312.861 137.833 311.411 136.644 309.784 136.805Z" fill="#F2F2F2"/>
<path d="M365.595 147.111L319.641 151.661C318.013 151.822 316.824 153.272 316.986 154.899L317.954 164.679C318.115 166.307 319.565 167.496 321.192 167.334L367.147 162.784C368.774 162.623 369.963 161.173 369.802 159.546L368.833 149.766C368.672 148.138 367.222 146.95 365.595 147.111Z" fill="#F2F2F2"/>
<path d="M421.409 157.412L375.455 161.962C373.828 162.123 372.639 163.573 372.8 165.2L373.768 174.98C373.93 176.608 375.379 177.796 377.007 177.635L422.961 173.085C424.588 172.924 425.777 171.474 425.616 169.847L424.648 160.067C424.487 158.439 423.037 157.25 421.409 157.412Z" fill="#F2F2F2"/>
<path d="M306.679 105.458L260.725 110.008C259.098 110.169 257.909 111.619 258.07 113.247L259.038 123.027C259.2 124.654 260.65 125.843 262.277 125.682L308.231 121.132C309.859 120.971 311.047 119.521 310.886 117.893L309.918 108.113C309.757 106.486 308.307 105.297 306.679 105.458Z" fill="#F2F2F2"/>
<path d="M362.49 115.759L316.536 120.309C314.909 120.471 313.72 121.92 313.881 123.548L314.849 133.328C315.011 134.956 316.461 136.144 318.088 135.983L364.042 131.433C365.67 131.272 366.858 129.822 366.697 128.195L365.729 118.414C365.568 116.787 364.118 115.598 362.49 115.759Z" fill="#F2F2F2"/>
<path d="M418.303 126.06L372.349 130.61C370.722 130.772 369.533 132.222 369.694 133.849L370.662 143.629C370.824 145.257 372.274 146.445 373.901 146.284L419.855 141.734C421.483 141.573 422.671 140.123 422.51 138.496L421.542 128.715C421.381 127.088 419.931 125.899 418.303 126.06Z" fill="#F2F2F2"/>
<path d="M304.351 81.9437L258.396 86.4938C256.769 86.6549 255.58 88.1048 255.741 89.7323L256.71 99.5124C256.871 101.14 258.321 102.329 259.948 102.167L305.902 97.6174C307.53 97.4562 308.719 96.0063 308.557 94.3789L307.589 84.5987C307.428 82.9712 305.978 81.7826 304.351 81.9437Z" fill="#F2F2F2"/>
<path d="M360.164 92.245L314.209 96.795C312.582 96.9562 311.393 98.4061 311.554 100.034L312.523 109.814C312.684 111.441 314.134 112.63 315.761 112.469L361.715 107.919C363.343 107.758 364.532 106.308 364.37 104.68L363.402 94.9C363.241 93.2725 361.791 92.0838 360.164 92.245Z" fill="#F2F2F2"/>
<path d="M415.976 102.55L370.022 107.1C368.394 107.261 367.206 108.711 367.367 110.338L368.335 120.119C368.496 121.746 369.946 122.935 371.574 122.774L417.528 118.224C419.155 118.062 420.344 116.613 420.183 114.985L419.215 105.205C419.053 103.577 417.603 102.389 415.976 102.55Z" fill="#F2F2F2"/>
<path opacity="0.1" d="M312.112 160.32L266.158 164.87C264.531 165.031 263.342 166.481 263.503 168.108L264.472 177.889C264.633 179.516 266.083 180.705 267.71 180.544L313.664 175.993C315.292 175.832 316.48 174.382 316.319 172.755L315.351 162.975C315.19 161.347 313.74 160.159 312.112 160.32Z" fill="#F54298"/>
<path opacity="0.1" d="M367.923 170.621L321.969 175.171C320.342 175.332 319.153 176.782 319.314 178.41L320.283 188.19C320.444 189.817 321.894 191.006 323.521 190.845L369.475 186.295C371.103 186.134 372.291 184.684 372.13 183.056L371.162 173.276C371.001 171.649 369.551 170.46 367.923 170.621Z" fill="#F54298"/>
<path opacity="0.1" d="M423.736 180.926L377.782 185.476C376.155 185.637 374.966 187.087 375.127 188.715L376.096 198.495C376.257 200.122 377.707 201.311 379.334 201.15L425.288 196.6C426.916 196.439 428.104 194.989 427.943 193.361L426.975 183.581C426.814 181.954 425.364 180.765 423.736 180.926Z" fill="#F54298"/>
<path opacity="0.1" d="M309.784 136.805L263.83 141.355C262.202 141.517 261.013 142.967 261.175 144.594L262.143 154.374C262.304 156.002 263.754 157.19 265.381 157.029L311.336 152.479C312.963 152.318 314.152 150.868 313.991 149.241L313.022 139.46C312.861 137.833 311.411 136.644 309.784 136.805Z" fill="#F54298"/>
<path opacity="0.1" d="M365.595 147.111L319.641 151.661C318.013 151.822 316.824 153.272 316.986 154.899L317.954 164.679C318.115 166.307 319.565 167.496 321.192 167.334L367.147 162.784C368.774 162.623 369.963 161.173 369.802 159.546L368.833 149.766C368.672 148.138 367.222 146.95 365.595 147.111Z" fill="#F54298"/>
<path opacity="0.1" d="M421.409 157.412L375.455 161.962C373.828 162.123 372.639 163.573 372.8 165.2L373.768 174.98C373.93 176.608 375.379 177.796 377.007 177.635L422.961 173.085C424.588 172.924 425.777 171.474 425.616 169.847L424.648 160.067C424.487 158.439 423.037 157.25 421.409 157.412Z" fill="#F54298"/>
<path opacity="0.1" d="M306.679 105.458L260.725 110.008C259.098 110.169 257.909 111.619 258.07 113.247L259.038 123.027C259.2 124.654 260.65 125.843 262.277 125.682L308.231 121.132C309.859 120.971 311.047 119.521 310.886 117.893L309.918 108.113C309.757 106.486 308.307 105.297 306.679 105.458Z" fill="#F54298"/>
<path opacity="0.1" d="M362.49 115.759L316.536 120.309C314.909 120.471 313.72 121.92 313.881 123.548L314.849 133.328C315.011 134.956 316.461 136.144 318.088 135.983L364.042 131.433C365.67 131.272 366.858 129.822 366.697 128.195L365.729 118.414C365.568 116.787 364.118 115.598 362.49 115.759Z" fill="#F54298"/>
<path opacity="0.1" d="M418.303 126.06L372.349 130.61C370.722 130.772 369.533 132.222 369.694 133.849L370.662 143.629C370.824 145.257 372.274 146.445 373.901 146.284L419.855 141.734C421.483 141.573 422.671 140.123 422.51 138.496L421.542 128.715C421.381 127.088 419.931 125.899 418.303 126.06Z" fill="#F54298"/>
<path opacity="0.1" d="M304.351 81.9437L258.396 86.4938C256.769 86.6549 255.58 88.1048 255.741 89.7323L256.71 99.5124C256.871 101.14 258.321 102.329 259.948 102.167L305.902 97.6174C307.53 97.4562 308.719 96.0063 308.557 94.3789L307.589 84.5987C307.428 82.9712 305.978 81.7826 304.351 81.9437Z" fill="#F54298"/>
<path opacity="0.1" d="M360.164 92.245L314.209 96.795C312.582 96.9562 311.393 98.4061 311.554 100.034L312.523 109.814C312.684 111.441 314.134 112.63 315.761 112.469L361.715 107.919C363.343 107.758 364.532 106.308 364.37 104.68L363.402 94.9C363.241 93.2725 361.791 92.0838 360.164 92.245Z" fill="#F54298"/>
<path opacity="0.1" d="M415.976 102.55L370.022 107.1C368.394 107.261 367.206 108.711 367.367 110.338L368.335 120.119C368.496 121.746 369.946 122.935 371.574 122.774L417.528 118.224C419.155 118.062 420.344 116.613 420.183 114.985L419.215 105.205C419.053 103.577 417.603 102.389 415.976 102.55Z" fill="#F54298"/>
</g>
<g opacity="0.3">
<path d="M92.8984 269.019L46.9443 273.569C45.3169 273.73 44.1282 275.18 44.2893 276.807L45.2577 286.587C45.4188 288.215 46.8688 289.403 48.4962 289.242L94.4503 284.692C96.0778 284.531 97.2664 283.081 97.1053 281.454L96.1369 271.674C95.9758 270.046 94.5259 268.857 92.8984 269.019Z" fill="#F2F2F2"/>
<path d="M148.709 279.32L102.755 283.87C101.128 284.031 99.9392 285.481 100.1 287.108L101.069 296.889C101.23 298.516 102.68 299.705 104.307 299.544L150.261 294.994C151.889 294.832 153.077 293.383 152.916 291.755L151.948 281.975C151.787 280.347 150.337 279.159 148.709 279.32Z" fill="#F2F2F2"/>
<path d="M204.522 289.625L158.568 294.175C156.941 294.336 155.752 295.786 155.913 297.413L156.882 307.193C157.043 308.821 158.493 310.009 160.12 309.848L206.074 305.298C207.702 305.137 208.89 303.687 208.729 302.06L207.761 292.28C207.6 290.652 206.15 289.463 204.522 289.625Z" fill="#F2F2F2"/>
<path d="M90.5698 245.504L44.6157 250.054C42.9882 250.215 41.7996 251.665 41.9607 253.292L42.9291 263.073C43.0902 264.7 44.5401 265.889 46.1676 265.728L92.1217 261.178C93.7492 261.016 94.9378 259.566 94.7767 257.939L93.8083 248.159C93.6472 246.531 92.1973 245.343 90.5698 245.504Z" fill="#F2F2F2"/>
<path d="M146.381 255.809L100.427 260.359C98.7993 260.52 97.6106 261.97 97.7717 263.598L98.7401 273.378C98.9012 275.005 100.351 276.194 101.979 276.033L147.933 271.483C149.56 271.322 150.749 269.872 150.588 268.244L149.619 258.464C149.458 256.837 148.008 255.648 146.381 255.809Z" fill="#F2F2F2"/>
<path d="M202.195 266.11L156.241 270.66C154.614 270.821 153.425 272.271 153.586 273.899L154.555 283.679C154.716 285.306 156.166 286.495 157.793 286.334L203.747 281.784C205.375 281.623 206.563 280.173 206.402 278.545L205.434 268.765C205.273 267.138 203.823 265.949 202.195 266.11Z" fill="#F2F2F2"/>
<path d="M87.4653 214.157L41.5112 218.707C39.8838 218.868 38.6951 220.318 38.8562 221.945L39.8246 231.725C39.9857 233.353 41.4356 234.541 43.0631 234.38L89.0172 229.83C90.6447 229.669 91.8333 228.219 91.6722 226.592L90.7038 216.812C90.5427 215.184 89.0928 213.995 87.4653 214.157Z" fill="#F2F2F2"/>
<path d="M143.276 224.458L97.3222 229.008C95.6948 229.169 94.5061 230.619 94.6673 232.246L95.6356 242.027C95.7968 243.654 97.2467 244.843 98.8741 244.682L144.828 240.132C146.456 239.97 147.644 238.52 147.483 236.893L146.515 227.113C146.354 225.485 144.904 224.297 143.276 224.458Z" fill="#F2F2F2"/>
<path d="M199.089 234.759L153.135 239.309C151.508 239.47 150.319 240.92 150.48 242.547L151.449 252.328C151.61 253.955 153.06 255.144 154.687 254.983L200.641 250.433C202.269 250.271 203.457 248.821 203.296 247.194L202.328 237.414C202.167 235.786 200.717 234.598 199.089 234.759Z" fill="#F2F2F2"/>
<path d="M85.1367 190.642L39.1826 195.192C37.5551 195.353 36.3665 196.803 36.5276 198.431L37.496 208.211C37.6571 209.838 39.107 211.027 40.7345 210.866L86.6886 206.316C88.316 206.155 89.5047 204.705 89.3436 203.077L88.3752 193.297C88.2141 191.67 86.7642 190.481 85.1367 190.642Z" fill="#F2F2F2"/>
<path d="M140.95 200.943L94.9956 205.494C93.3681 205.655 92.1795 207.105 92.3406 208.732L93.309 218.512C93.4701 220.14 94.92 221.328 96.5475 221.167L142.502 216.617C144.129 216.456 145.318 215.006 145.157 213.379L144.188 203.598C144.027 201.971 142.577 200.782 140.95 200.943Z" fill="#F2F2F2"/>
<path d="M196.762 211.248L150.808 215.798C149.181 215.96 147.992 217.41 148.153 219.037L149.121 228.817C149.283 230.445 150.733 231.633 152.36 231.472L198.314 226.922C199.942 226.761 201.13 225.311 200.969 223.684L200.001 213.903C199.84 212.276 198.39 211.087 196.762 211.248Z" fill="#F2F2F2"/>
<path opacity="0.1" d="M92.8984 269.019L46.9443 273.569C45.3169 273.73 44.1282 275.18 44.2893 276.807L45.2577 286.587C45.4188 288.215 46.8688 289.403 48.4962 289.242L94.4503 284.692C96.0778 284.531 97.2664 283.081 97.1053 281.454L96.1369 271.674C95.9758 270.046 94.5259 268.857 92.8984 269.019Z" fill="#F54298"/>
<path opacity="0.1" d="M148.709 279.32L102.755 283.87C101.128 284.031 99.9392 285.481 100.1 287.108L101.069 296.889C101.23 298.516 102.68 299.705 104.307 299.544L150.261 294.994C151.889 294.832 153.077 293.383 152.916 291.755L151.948 281.975C151.787 280.347 150.337 279.159 148.709 279.32Z" fill="#F54298"/>
<path opacity="0.1" d="M204.522 289.625L158.568 294.175C156.941 294.336 155.752 295.786 155.913 297.413L156.882 307.193C157.043 308.821 158.493 310.009 160.12 309.848L206.074 305.298C207.702 305.137 208.89 303.687 208.729 302.06L207.761 292.28C207.6 290.652 206.15 289.463 204.522 289.625Z" fill="#F54298"/>
<path opacity="0.1" d="M90.5698 245.504L44.6157 250.054C42.9882 250.215 41.7996 251.665 41.9607 253.292L42.9291 263.073C43.0902 264.7 44.5401 265.889 46.1676 265.728L92.1217 261.178C93.7492 261.016 94.9378 259.566 94.7767 257.939L93.8083 248.159C93.6472 246.531 92.1973 245.343 90.5698 245.504Z" fill="#F54298"/>
<path opacity="0.1" d="M146.381 255.809L100.427 260.359C98.7993 260.52 97.6106 261.97 97.7717 263.598L98.7401 273.378C98.9012 275.005 100.351 276.194 101.979 276.033L147.933 271.483C149.56 271.322 150.749 269.872 150.588 268.244L149.619 258.464C149.458 256.837 148.008 255.648 146.381 255.809Z" fill="#F54298"/>
<path opacity="0.1" d="M202.195 266.11L156.241 270.66C154.614 270.821 153.425 272.271 153.586 273.899L154.555 283.679C154.716 285.306 156.166 286.495 157.793 286.334L203.747 281.784C205.375 281.623 206.563 280.173 206.402 278.545L205.434 268.765C205.273 267.138 203.823 265.949 202.195 266.11Z" fill="#F54298"/>
<path opacity="0.1" d="M87.4653 214.157L41.5112 218.707C39.8838 218.868 38.6951 220.318 38.8562 221.945L39.8246 231.725C39.9857 233.353 41.4356 234.541 43.0631 234.38L89.0172 229.83C90.6447 229.669 91.8333 228.219 91.6722 226.592L90.7038 216.812C90.5427 215.184 89.0928 213.995 87.4653 214.157Z" fill="#F54298"/>
<path opacity="0.1" d="M143.276 224.458L97.3222 229.008C95.6948 229.169 94.5061 230.619 94.6673 232.246L95.6356 242.027C95.7968 243.654 97.2467 244.843 98.8741 244.682L144.828 240.132C146.456 239.97 147.644 238.52 147.483 236.893L146.515 227.113C146.354 225.485 144.904 224.297 143.276 224.458Z" fill="#F54298"/>
<path opacity="0.1" d="M199.089 234.759L153.135 239.309C151.508 239.47 150.319 240.92 150.48 242.547L151.449 252.328C151.61 253.955 153.06 255.144 154.687 254.983L200.641 250.433C202.269 250.271 203.457 248.821 203.296 247.194L202.328 237.414C202.167 235.786 200.717 234.598 199.089 234.759Z" fill="#F54298"/>
<path opacity="0.1" d="M85.1367 190.642L39.1826 195.192C37.5551 195.353 36.3665 196.803 36.5276 198.431L37.496 208.211C37.6571 209.838 39.107 211.027 40.7345 210.866L86.6886 206.316C88.316 206.155 89.5047 204.705 89.3436 203.077L88.3752 193.297C88.2141 191.67 86.7642 190.481 85.1367 190.642Z" fill="#F54298"/>
<path opacity="0.1" d="M140.95 200.943L94.9956 205.494C93.3681 205.655 92.1795 207.105 92.3406 208.732L93.309 218.512C93.4701 220.14 94.92 221.328 96.5475 221.167L142.502 216.617C144.129 216.456 145.318 215.006 145.157 213.379L144.188 203.598C144.027 201.971 142.577 200.782 140.95 200.943Z" fill="#F54298"/>
<path opacity="0.1" d="M196.762 211.248L150.808 215.798C149.181 215.96 147.992 217.41 148.153 219.037L149.121 228.817C149.283 230.445 150.733 231.633 152.36 231.472L198.314 226.922C199.942 226.761 201.13 225.311 200.969 223.684L200.001 213.903C199.84 212.276 198.39 211.087 196.762 211.248Z" fill="#F54298"/>
</g>
<g opacity="0.3">
<path d="M261.033 257.039L215.079 261.589C213.452 261.75 212.263 263.2 212.424 264.828L213.392 274.608C213.554 276.235 215.004 277.424 216.631 277.263L262.585 272.713C264.213 272.552 265.401 271.102 265.24 269.474L264.272 259.694C264.111 258.067 262.661 256.878 261.033 257.039Z" fill="#F2F2F2"/>
<path d="M316.846 267.34L270.892 271.89C269.264 272.052 268.075 273.502 268.237 275.129L269.205 284.909C269.366 286.537 270.816 287.725 272.443 287.564L318.398 283.014C320.025 282.853 321.214 281.403 321.053 279.776L320.084 269.995C319.923 268.368 318.473 267.179 316.846 267.34Z" fill="#F2F2F2"/>
<path d="M372.659 277.645L326.705 282.195C325.077 282.356 323.888 283.806 324.05 285.434L325.018 295.214C325.179 296.841 326.629 298.03 328.256 297.869L374.211 293.319C375.838 293.158 377.027 291.708 376.866 290.08L375.897 280.3C375.736 278.673 374.286 277.484 372.659 277.645Z" fill="#F2F2F2"/>
<path d="M258.706 233.525L212.752 238.075C211.124 238.236 209.936 239.686 210.097 241.313L211.065 251.093C211.226 252.721 212.676 253.909 214.304 253.748L260.258 249.198C261.885 249.037 263.074 247.587 262.913 245.96L261.945 236.179C261.783 234.552 260.333 233.363 258.706 233.525Z" fill="#F2F2F2"/>
<path d="M314.517 243.83L268.563 248.38C266.936 248.541 265.747 249.991 265.908 251.618L266.876 261.398C267.037 263.026 268.487 264.215 270.115 264.053L316.069 259.503C317.696 259.342 318.885 257.892 318.724 256.265L317.756 246.485C317.594 244.857 316.145 243.669 314.517 243.83Z" fill="#F2F2F2"/>
<path d="M370.332 254.131L324.378 258.681C322.75 258.842 321.562 260.292 321.723 261.919L322.691 271.699C322.852 273.327 324.302 274.516 325.93 274.354L371.884 269.804C373.511 269.643 374.7 268.193 374.539 266.566L373.571 256.786C373.409 255.158 371.959 253.97 370.332 254.131Z" fill="#F2F2F2"/>
<path d="M255.602 202.177L209.647 206.727C208.02 206.888 206.831 208.338 206.992 209.966L207.961 219.746C208.122 221.373 209.572 222.562 211.199 222.401L257.153 217.851C258.781 217.69 259.97 216.24 259.808 214.612L258.84 204.832C258.679 203.205 257.229 202.016 255.602 202.177Z" fill="#F2F2F2"/>
<path d="M311.413 212.478L265.458 217.029C263.831 217.19 262.642 218.64 262.803 220.267L263.772 230.047C263.933 231.675 265.383 232.863 267.01 232.702L312.964 228.152C314.592 227.991 315.781 226.541 315.619 224.914L314.651 215.133C314.49 213.506 313.04 212.317 311.413 212.478Z" fill="#F2F2F2"/>
<path d="M367.226 222.779L321.271 227.329C319.644 227.491 318.455 228.941 318.616 230.568L319.585 240.348C319.746 241.976 321.196 243.164 322.823 243.003L368.777 238.453C370.405 238.292 371.594 236.842 371.432 235.215L370.464 225.434C370.303 223.807 368.853 222.618 367.226 222.779Z" fill="#F2F2F2"/>
<path d="M253.273 178.663L207.319 183.213C205.692 183.374 204.503 184.824 204.664 186.451L205.633 196.232C205.794 197.859 207.244 199.048 208.871 198.887L254.825 194.336C256.453 194.175 257.641 192.725 257.48 191.098L256.512 181.318C256.351 179.69 254.901 178.502 253.273 178.663Z" fill="#F2F2F2"/>
<path d="M309.086 188.964L263.132 193.514C261.504 193.675 260.316 195.125 260.477 196.753L261.445 206.533C261.606 208.16 263.056 209.349 264.684 209.188L310.638 204.638C312.265 204.476 313.454 203.027 313.293 201.399L312.324 191.619C312.163 189.992 310.713 188.803 309.086 188.964Z" fill="#F2F2F2"/>
<path d="M364.899 199.269L318.945 203.819C317.317 203.98 316.129 205.43 316.29 207.058L317.258 216.838C317.419 218.465 318.869 219.654 320.497 219.493L366.451 214.943C368.078 214.782 369.267 213.332 369.106 211.704L368.137 201.924C367.976 200.297 366.526 199.108 364.899 199.269Z" fill="#F2F2F2"/>
<path opacity="0.1" d="M261.033 257.039L215.079 261.589C213.452 261.75 212.263 263.2 212.424 264.828L213.392 274.608C213.554 276.235 215.004 277.424 216.631 277.263L262.585 272.713C264.213 272.552 265.401 271.102 265.24 269.474L264.272 259.694C264.111 258.067 262.661 256.878 261.033 257.039Z" fill="#F54298"/>
<path opacity="0.1" d="M316.846 267.34L270.892 271.89C269.264 272.052 268.075 273.502 268.237 275.129L269.205 284.909C269.366 286.537 270.816 287.725 272.443 287.564L318.398 283.014C320.025 282.853 321.214 281.403 321.053 279.776L320.084 269.995C319.923 268.368 318.473 267.179 316.846 267.34Z" fill="#F54298"/>
<path opacity="0.1" d="M372.659 277.645L326.705 282.195C325.077 282.356 323.888 283.806 324.05 285.434L325.018 295.214C325.179 296.841 326.629 298.03 328.256 297.869L374.211 293.319C375.838 293.158 377.027 291.708 376.866 290.08L375.897 280.3C375.736 278.673 374.286 277.484 372.659 277.645Z" fill="#F54298"/>
<path opacity="0.1" d="M258.706 233.525L212.752 238.075C211.124 238.236 209.936 239.686 210.097 241.313L211.065 251.093C211.226 252.721 212.676 253.909 214.304 253.748L260.258 249.198C261.885 249.037 263.074 247.587 262.913 245.96L261.945 236.179C261.783 234.552 260.333 233.363 258.706 233.525Z" fill="#F54298"/>
<path opacity="0.1" d="M314.517 243.83L268.563 248.38C266.936 248.541 265.747 249.991 265.908 251.618L266.876 261.398C267.037 263.026 268.487 264.215 270.115 264.053L316.069 259.503C317.696 259.342 318.885 257.892 318.724 256.265L317.756 246.485C317.594 244.857 316.145 243.669 314.517 243.83Z" fill="#F54298"/>
<path opacity="0.1" d="M370.332 254.131L324.378 258.681C322.75 258.842 321.562 260.292 321.723 261.919L322.691 271.699C322.852 273.327 324.302 274.516 325.93 274.354L371.884 269.804C373.511 269.643 374.7 268.193 374.539 266.566L373.571 256.786C373.409 255.158 371.959 253.97 370.332 254.131Z" fill="#F54298"/>
<path opacity="0.1" d="M255.602 202.177L209.647 206.727C208.02 206.888 206.831 208.338 206.992 209.966L207.961 219.746C208.122 221.373 209.572 222.562 211.199 222.401L257.153 217.851C258.781 217.69 259.97 216.24 259.808 214.612L258.84 204.832C258.679 203.205 257.229 202.016 255.602 202.177Z" fill="#F54298"/>
<path opacity="0.1" d="M311.413 212.478L265.458 217.029C263.831 217.19 262.642 218.64 262.803 220.267L263.772 230.047C263.933 231.675 265.383 232.863 267.01 232.702L312.964 228.152C314.592 227.991 315.781 226.541 315.619 224.914L314.651 215.133C314.49 213.506 313.04 212.317 311.413 212.478Z" fill="#F54298"/>
<path opacity="0.1" d="M367.226 222.779L321.271 227.329C319.644 227.491 318.455 228.941 318.616 230.568L319.585 240.348C319.746 241.976 321.196 243.164 322.823 243.003L368.777 238.453C370.405 238.292 371.594 236.842 371.432 235.215L370.464 225.434C370.303 223.807 368.853 222.618 367.226 222.779Z" fill="#F54298"/>
<path opacity="0.1" d="M253.273 178.663L207.319 183.213C205.692 183.374 204.503 184.824 204.664 186.451L205.633 196.232C205.794 197.859 207.244 199.048 208.871 198.887L254.825 194.336C256.453 194.175 257.641 192.725 257.48 191.098L256.512 181.318C256.351 179.69 254.901 178.502 253.273 178.663Z" fill="#F54298"/>
<path opacity="0.1" d="M309.086 188.964L263.132 193.514C261.504 193.675 260.316 195.125 260.477 196.753L261.445 206.533C261.606 208.16 263.056 209.349 264.684 209.188L310.638 204.638C312.265 204.476 313.454 203.027 313.293 201.399L312.324 191.619C312.163 189.992 310.713 188.803 309.086 188.964Z" fill="#F54298"/>
<path opacity="0.1" d="M364.899 199.269L318.945 203.819C317.317 203.98 316.129 205.43 316.29 207.058L317.258 216.838C317.419 218.465 318.869 219.654 320.497 219.493L366.451 214.943C368.078 214.782 369.267 213.332 369.106 211.704L368.137 201.924C367.976 200.297 366.526 199.108 364.899 199.269Z" fill="#F54298"/>
</g>
<path d="M360.763 298.252C361.027 297.047 361.582 295.925 362.379 294.983C363.177 294.041 364.192 293.308 365.337 292.848C366.482 292.388 367.722 292.215 368.95 292.344C370.177 292.473 371.354 292.9 372.379 293.588L372.695 293.807C379.481 298.643 375.745 307.902 373.041 308.175C370.336 308.447 365.13 308.795 365.13 308.795C365.13 308.795 358.93 306.409 360.763 298.252Z" fill="#192534"/>
<path d="M420.752 290.578L420.792 292.244C420.792 292.244 393.744 294.768 390.851 294.838L385.437 294.968C385.437 294.968 385.359 295.054 385.231 295.208C385.014 295.465 384.646 295.916 384.241 296.476C383.415 297.604 382.437 299.174 382.232 300.463C381.889 302.764 380.435 303.632 380.435 303.632L374.985 302.308L369.612 296.186L368.833 295.471L366.616 293.456L364.721 291.727L364.788 290.729L364.785 290.578C365.176 288.427 365.692 286.301 366.33 284.21C366.328 284.154 366.363 284.093 366.381 284.037C367.775 279.491 370.149 273.952 373.72 272.236C373.992 272.106 374.276 271.979 374.58 271.864L374.943 271.728C381.812 269.242 394.918 269.848 394.918 269.848C394.918 269.848 404.981 272.524 405.848 273.755C406.715 274.986 416.433 285.061 416.433 285.061C417.28 285.668 418.063 286.358 418.771 287.122C419.683 288.085 420.538 289.304 420.752 290.578Z" fill="#F54298"/>
<path opacity="0.1" d="M364.229 305.692C365.84 305.653 367.096 303.57 367.035 301.04C366.975 298.509 365.619 296.489 364.009 296.528C362.398 296.567 361.142 298.65 361.203 301.18C361.263 303.711 362.619 305.731 364.229 305.692Z" fill="white"/>
<path opacity="0.1" d="M375.548 273.746C375.548 273.746 373.245 277.469 370.832 282.232C370.831 282.244 370.832 282.256 370.833 282.267C370.19 283.535 369.536 284.87 368.915 286.236L368.889 286.301C368.889 286.301 367.48 285.238 366.367 284.197C366.365 284.141 366.4 284.08 366.418 284.024C367.812 279.478 370.186 273.939 373.757 272.223C374.029 272.093 374.313 271.966 374.617 271.851L375.548 273.746Z" fill="black"/>
<path opacity="0.1" d="M368.764 286.204C368.764 286.204 383.656 290.231 386.523 288.276C386.523 288.276 387.246 274.924 380.353 274.257C380.353 274.257 376.372 273.308 375.562 273.973C374.753 274.639 368.764 286.204 368.764 286.204Z" fill="white"/>
<path opacity="0.1" d="M387.686 275.954C387.686 275.954 390.868 286.92 392.957 287.081C395.045 287.242 416.06 286.314 415.196 284.875C414.333 283.437 404.939 274.291 404.939 274.291L387.686 275.954Z" fill="white"/>
<path d="M384.59 296.009C384.59 296.009 388.255 290.942 395.041 295.782C401.827 300.621 398.087 309.877 395.387 310.149C392.687 310.421 387.504 310.757 387.504 310.757C387.504 310.757 379.204 307.576 384.59 296.009Z" fill="#192534"/>
<path d="M423.93 296.33C423.634 295.55 423.179 294.84 422.595 294.245C422.01 293.65 421.309 293.183 420.534 292.872C419.76 292.562 418.93 292.416 418.096 292.443C417.262 292.469 416.443 292.669 415.69 293.028C414.954 293.397 414.26 293.843 413.617 294.358C407.792 298.947 411.53 307.017 413.925 307.147C414.791 307.19 415.944 307.23 417.065 307.263C418.213 307.296 419.353 307.063 420.395 306.581C421.437 306.099 422.353 305.382 423.071 304.486C423.789 303.59 424.29 302.54 424.533 301.417C424.776 300.295 424.756 299.132 424.473 298.019C424.324 297.446 424.143 296.882 423.93 296.33Z" fill="#192534"/>
<path opacity="0.1" d="M386.573 307.654C388.184 307.615 389.44 305.532 389.379 303.002C389.318 300.471 387.963 298.451 386.353 298.49C384.742 298.529 383.485 300.612 383.546 303.142C383.607 305.673 384.962 307.693 386.573 307.654Z" fill="white"/>
<path opacity="0.1" d="M394.376 294.131C394.376 294.131 393.832 288.1 400.331 290.444C406.829 292.787 402.747 295.596 402.747 295.596L394.376 294.131Z" fill="white"/>
<path opacity="0.1" d="M420.751 290.579L420.771 291.411L419.741 291.835L417.608 291.487C417.608 291.487 417.072 288.088 418.789 287.074C419.683 288.085 420.537 289.304 420.751 290.579Z" fill="white"/>
<path opacity="0.1" d="M420.753 290.618L420.792 292.244C420.792 292.244 393.744 294.768 390.852 294.838L390.828 294.838C389.311 294.077 387.804 293.759 386.558 294.319C386.178 294.487 385.823 294.705 385.501 294.966C385.407 295.044 385.317 295.126 385.232 295.208C384.843 295.582 384.51 296.008 384.242 296.476C382.449 299.537 382.96 304.197 382.96 304.197C377.586 305.992 371.859 301.757 371.859 301.757C370.765 298.722 369.765 296.748 368.861 295.451C368.035 294.274 367.296 293.706 366.643 293.435L364.721 291.727L364.788 290.729L380.165 301.354C380.165 301.354 381.398 291.948 384.736 292.493C388.074 293.039 394.747 292.878 394.747 292.878L420.753 290.618Z" fill="black"/>
<path d="M363.87 290.695C363.87 290.695 362.694 293.849 363.95 294.03C365.206 294.211 367.952 291.542 371.861 302.383C371.861 302.383 377.588 306.63 382.962 304.823C382.962 304.823 382.126 296.925 386.571 294.941C391.017 292.956 398.732 302.151 398.732 302.151L398.783 304.235L416.439 301.932C416.439 301.932 421.754 297.638 421.391 291.189L394.777 293.496C394.777 293.496 388.111 293.656 384.765 293.111C381.419 292.565 380.195 301.991 380.195 301.991L363.87 290.695Z" fill="#F54298"/>
<path d="M283.819 240.32L283.816 240.32C277.691 240.927 273.218 246.383 273.825 252.507L273.825 252.511C274.431 258.635 279.888 263.109 286.012 262.502L286.016 262.502C292.14 261.895 296.613 256.439 296.007 250.315L296.006 250.311C295.4 244.187 289.944 239.713 283.819 240.32Z" fill="#192534"/>
<path d="M281.934 280.527C283.292 279.075 284.672 277.597 285.578 275.829C286.411 274.209 286.817 272.411 287.19 270.628C288.252 265.532 289.093 260.396 289.713 255.219C283.517 254.892 278.426 249.953 272.301 248.962C272.154 248.936 270.305 276.817 270.22 279.356C270.151 281.454 268.767 291.575 271.465 291.364C272.908 291.253 275.557 287.354 276.526 286.301L281.934 280.527Z" fill="#3F3D56"/>
<path opacity="0.1" d="M281.934 280.527C283.292 279.075 284.672 277.597 285.578 275.829C286.411 274.209 286.817 272.411 287.19 270.628C288.252 265.532 289.093 260.396 289.713 255.219C283.517 254.892 278.426 249.953 272.301 248.962C272.154 248.936 270.305 276.817 270.22 279.356C270.151 281.454 268.767 291.575 271.465 291.364C272.908 291.253 275.557 287.354 276.526 286.301L281.934 280.527Z" fill="black"/>
<path d="M199.65 218.789C198.986 218.959 198.278 219.081 197.761 219.529C197.023 220.163 196.923 221.214 196.635 222.147C196.254 223.347 195.512 224.399 194.51 225.161C193.657 225.806 192.587 226.289 192.134 227.255C191.888 227.9 191.81 228.596 191.906 229.28C192.036 231.319 192.329 233.344 192.782 235.337C193.009 236.335 193.278 237.35 193.166 238.366C193.04 239.552 192.408 240.612 191.809 241.644C190.371 244.114 188.992 246.805 189.138 249.658C189.212 251.093 189.674 252.525 189.451 253.945C189.055 256.463 186.612 258.323 186.35 260.856C186.272 261.604 186.389 262.378 186.171 263.092C185.789 264.332 184.477 265.118 184.246 266.379C184.071 267.325 184.556 268.258 184.678 269.211C184.857 270.607 184.251 271.973 183.664 273.249L180.231 280.677C179.116 283.086 177.979 285.602 178.014 288.258C178.043 290.614 178.998 292.854 180.013 294.98C182.271 299.703 185.418 304.629 190.463 306.032C193.432 306.86 196.593 306.306 199.626 305.75C203.78 304.99 207.961 304.22 211.889 302.673C213.835 301.908 215.724 300.956 217.706 300.351C219.028 299.952 220.4 299.684 221.658 299.123C223.013 298.478 224.171 297.481 225.008 296.235C225.846 294.99 226.333 293.542 226.419 292.043C228.216 292.554 229.594 290.127 229.166 288.311C228.737 286.495 227.346 285.059 226.669 283.324C225.712 280.932 226.161 278.188 227.126 275.802C228.091 273.415 229.534 271.246 230.613 268.908C231.813 266.292 232.549 263.487 232.787 260.619C233.105 256.747 232.508 252.861 231.912 249.024L229.634 234.355C229.216 231.669 228.77 228.898 227.338 226.573C225.77 224.041 223.197 222.325 220.646 220.787C216.876 218.467 212.958 216.396 208.918 214.588C206.315 213.452 206.542 213.97 204.741 215.802C203.348 217.243 201.588 218.276 199.65 218.789Z" fill="#3F3D56"/>
<path d="M237.05 256.525C234.465 259.015 231.848 261.541 229.972 264.602C227.709 268.323 226.644 272.649 226.922 276.995C227.098 279.025 227.44 281.036 227.946 283.009C228.694 286.239 229.821 289.808 232.756 291.344C234.606 292.31 237.022 292.359 238.376 293.947C238.802 294.446 239.085 295.078 239.568 295.507C240.446 296.285 241.702 296.349 242.851 296.3C244.567 296.226 246.273 296.004 247.951 295.634C249.867 295.208 251.796 294.589 253.752 294.764C257.557 295.096 260.695 298.345 264.529 298.442C267.713 298.528 270.479 296.407 272.94 294.406C275.479 292.34 278.124 290.136 279.308 287.083C280.46 284.117 280.051 280.802 279.627 277.644C279.155 274.138 278.676 270.589 277.4 267.287C277.02 266.428 276.705 265.541 276.46 264.633C275.943 262.281 276.786 259.835 277.354 257.48C278.244 253.896 278.361 249.575 275.639 247.081C274.489 246.025 272.979 245.454 271.469 245.091C264.795 243.413 257.767 244.998 251.259 246.691C245.044 248.272 241.614 252.136 237.05 256.525Z" fill="#3F3D56"/>
<path d="M290.346 237.407C288.171 241.495 285.992 245.611 284.563 249.994C283.607 253.167 282.857 256.398 282.317 259.668C280.642 268.721 279.006 277.962 274.676 286.084C274.055 287.251 273.359 288.469 273.413 289.789C273.464 291.026 274.164 292.118 274.84 293.156C276.259 295.355 277.736 297.571 279.631 299.394C281.525 301.217 283.705 302.523 285.904 303.859C290.466 306.611 295.518 309.507 300.805 308.744C301.899 308.583 303.047 308.213 303.7 307.319C304.352 306.426 304.343 305.281 304.108 304.239C303.388 301.015 300.675 298.692 298.206 296.494C295.738 294.295 293.217 291.689 293.069 288.372C292.938 285.633 294.493 283.132 295.991 280.837C297.706 278.209 299.424 275.584 301.019 272.883C307.917 261.206 312.45 248.258 315.757 235.103C317.149 229.551 318.341 223.746 317.181 218.141C312.713 217.503 303.633 214.789 300.314 218.846C298.303 221.304 297.053 224.776 295.573 227.586L290.346 237.407Z" fill="#FBBEBE"/>
<path d="M323.495 196.523C321.208 201.617 319.554 206.973 318.57 212.469C318.329 213.799 318.135 215.196 318.546 216.477C318.99 217.85 320.061 218.91 320.905 220.076C321.749 221.242 322.412 222.758 321.884 224.1C318.814 224.648 315.665 224.107 312.592 223.566L302.957 221.877C302.165 221.804 301.403 221.539 300.738 221.103C299.549 220.184 299.462 218.45 299.526 216.954C300.166 204.692 304.961 192.971 305.981 180.74C306.13 178.975 306.277 177.022 307.548 175.779C311.204 172.253 320.445 174.017 322.949 178.351C325.744 183.16 325.644 191.74 323.495 196.523Z" fill="#F54298"/>
<path d="M269.218 160.206C268.883 160.424 268.507 160.677 268.437 161.06C268.433 161.266 268.475 161.469 268.559 161.657C268.642 161.844 268.766 162.011 268.921 162.146L273.48 167.381C277.976 172.543 282.484 177.74 287.55 182.352C291.374 185.832 295.496 188.97 299.868 191.729C301.099 192.505 302.408 193.308 303.099 194.589C299.874 187.451 299.519 179.345 302.107 171.952C303.141 169.046 304.616 166.301 305.703 163.406C305.816 163.242 305.885 163.051 305.903 162.852C305.921 162.653 305.887 162.453 305.805 162.271C305.723 162.089 305.595 161.931 305.434 161.813C305.274 161.695 305.085 161.62 304.887 161.596C301.244 160.155 297.345 159.452 293.715 157.977C290.865 156.817 288.234 155.203 285.622 153.616C283.291 152.201 280.119 149.607 277.374 149.186C274.409 148.727 274.785 151.353 274.071 153.646C273.254 156.325 271.54 158.641 269.218 160.206Z" fill="#FBBEBE"/>
<path opacity="0.1" d="M269.218 160.206C268.883 160.424 268.507 160.677 268.437 161.06C268.433 161.266 268.475 161.469 268.559 161.657C268.642 161.844 268.766 162.011 268.921 162.146L273.48 167.381C277.976 172.543 282.484 177.74 287.55 182.352C291.374 185.832 295.496 188.97 299.868 191.729C301.099 192.505 302.408 193.308 303.099 194.589C299.874 187.451 299.519 179.345 302.107 171.952C303.141 169.046 304.616 166.301 305.703 163.406C305.816 163.242 305.885 163.051 305.903 162.852C305.921 162.653 305.887 162.453 305.805 162.271C305.723 162.089 305.595 161.931 305.434 161.813C305.274 161.695 305.085 161.62 304.887 161.596C301.244 160.155 297.345 159.452 293.715 157.977C290.865 156.817 288.234 155.203 285.622 153.616C283.291 152.201 280.119 149.607 277.374 149.186C274.409 148.727 274.785 151.353 274.071 153.646C273.254 156.325 271.54 158.641 269.218 160.206Z" fill="black"/>
<path d="M295.979 180.22C293.963 178.353 291.383 177.243 289.069 175.758C285.741 173.62 282.991 170.713 280.323 167.793C275.425 162.419 270.363 155.743 271.831 148.609C269.521 148.614 267.732 150.689 266.854 152.823C265.976 154.956 265.649 157.319 264.489 159.312C262.726 162.342 259.382 164.003 256.274 165.617C249.442 169.168 242.907 173.263 236.733 177.864C234.253 179.711 231.796 181.673 230.011 184.196C228.099 186.889 227.051 190.096 225.488 192.994C222.447 198.69 217.419 203.237 211.623 206.102C209.715 207.051 207.647 207.849 205.993 209.222C202.447 212.164 201.372 217.437 202.717 221.845C204.063 226.254 207.508 229.781 211.462 232.137C215.415 234.493 219.77 235.684 224.179 236.849C227.873 237.805 231.583 238.698 235.31 239.528C238.056 240.184 240.844 240.652 243.654 240.928C248.819 241.358 254.012 240.612 259.196 240.671C263.935 240.723 268.657 241.453 273.397 241.316C278.137 241.179 283.06 240.058 286.624 236.938C289.458 234.459 291.163 230.97 292.717 227.524C296.754 218.636 300.243 209.509 303.163 200.194C304.023 197.437 312.954 181.423 310.169 179.744C296.144 171.293 302.012 186.347 300.649 185.28C298.825 183.851 297.654 181.772 295.979 180.22Z" fill="#F54298"/>
<path d="M278.915 172.859C275.552 167.497 273.059 161.648 270.58 155.83C269.896 154.216 269.194 152.467 269.59 150.762C270.068 148.712 272.058 146.805 271.226 144.881C266.339 146.967 260.727 150.033 260.246 155.331C260.141 156.487 260.3 157.693 259.874 158.768C259.045 160.877 256.47 161.564 254.279 162.126C247.909 163.802 241.735 167.048 237.778 172.314C237.111 173.181 236.499 174.151 235.625 174.838C234.991 175.302 234.305 175.692 233.582 176.002C229.397 177.99 225.128 180.375 222.699 184.32C221.447 186.35 220.751 188.706 219.318 190.618C217.38 193.213 214.297 194.719 212.165 197.169C210.725 198.802 209.78 200.786 208.92 202.781C205.612 210.462 203.502 219.293 206.437 227.128C207.968 231.226 210.794 234.731 212.525 238.748C214.905 244.22 215.365 250.682 219.261 255.202C221.717 258.043 225.248 259.732 228.81 260.917C236.733 263.542 245.204 264.059 253.388 262.416C256.418 261.756 259.411 260.941 262.357 259.974C269.401 257.779 276.507 255.446 282.707 251.444C293.28 244.618 300.283 233.596 306.956 222.923C308.224 220.891 309.503 218.842 310.333 216.581C311.148 214.422 311.542 212.132 312.012 209.875C313.601 202.264 316.137 194.592 315.067 186.897C314.988 185.97 314.714 185.071 314.265 184.257C313.893 183.653 313.354 183.145 313.017 182.534C312.42 181.44 312.507 180.097 312.048 178.937C310.77 175.7 306.329 175.499 302.866 175.87L303.691 195.528C303.811 198.48 303.82 201.767 301.829 203.951C300.974 204.847 299.855 205.448 298.635 205.666C297.415 205.884 296.158 205.708 295.045 205.163C292.563 203.883 291.973 201.278 291.739 198.75C291.448 195.575 290.903 192.693 289.59 189.752C286.871 183.649 282.444 178.497 278.915 172.859Z" fill="#192534"/>
<path d="M285.81 228.428C300.312 234.061 314.9 239.738 328.181 247.834C331.249 249.701 334.251 251.702 337.459 253.323C346.653 257.964 357.65 259.578 365.094 266.691C366.66 268.182 368.031 269.896 369.789 271.148C371.307 272.162 372.97 272.942 374.72 273.463C380.316 275.299 386.241 275.915 392.096 275.271C393.629 275.099 395.196 274.828 396.511 274.033C400.049 271.864 400.416 266.958 400.385 262.808C400.375 261.403 400.24 259.758 399.059 259.002C398.423 258.597 397.63 258.555 396.877 258.514C384.627 257.804 372.924 253.1 362.163 247.201C351.403 241.302 341.369 234.165 330.728 228.054C326.987 225.905 323.174 223.884 319.361 221.862L307.024 215.323C300.498 211.864 293.634 208.314 286.245 208.273C285.822 208.242 285.398 208.313 285.008 208.479C284.39 208.793 284.099 209.495 283.846 210.136C282.115 214.529 279.877 218.583 277.631 222.714C276.428 224.924 276.322 225.475 278.859 226.341C281.143 227.124 283.523 227.542 285.81 228.428Z" fill="#FBBEBE"/>
<path d="M324.381 341.244C324.539 341.228 324.684 341.15 324.785 341.028C324.885 340.905 324.933 340.748 324.917 340.59C324.902 340.432 324.824 340.287 324.701 340.186C324.579 340.086 324.421 340.038 324.263 340.054C324.106 340.07 323.96 340.147 323.86 340.27C323.759 340.392 323.712 340.55 323.727 340.708C323.743 340.865 323.821 341.011 323.943 341.111C324.066 341.212 324.223 341.259 324.381 341.244Z" fill="black"/>
<path d="M313.084 182.896C334.034 180.821 349.337 162.156 347.262 141.205C345.188 120.254 326.522 104.952 305.572 107.026C284.621 109.1 269.318 127.766 271.393 148.717C273.467 169.668 292.133 184.97 313.084 182.896Z" fill="#FBBEBE"/>
<path d="M280.976 162.706C281.313 159.233 285.053 157.124 288.493 156.552C291.977 156.016 295.542 156.409 298.827 157.689C302.112 158.97 305.002 161.093 307.205 163.846C307.796 161.64 308.118 159.37 308.162 157.087L314.554 156.931C315.273 156.97 315.991 156.833 316.645 156.531C317.426 156.086 317.848 155.211 318.194 154.376C320.457 148.917 321.683 142.372 326.624 139.123L327.33 146.262C328.73 145.843 330.014 145.108 331.084 144.114C332.155 143.12 332.982 141.894 333.503 140.529C334.056 142.47 334.817 144.345 335.771 146.123C335.929 146.42 336.141 146.744 336.47 146.791C336.628 146.787 336.783 146.749 336.926 146.681C337.068 146.612 337.194 146.514 337.296 146.393C339.543 144.308 341.53 141.96 343.215 139.399L352.044 151.717C355.309 140.292 354.339 128.072 349.313 117.305C344.287 106.538 335.542 97.9482 324.687 93.1147C322.846 92.2835 320.942 91.5976 318.994 91.0633C313.905 89.7009 308.559 89.6334 303.293 89.7944C295.806 90.0231 287.96 90.82 281.785 95.0318C278.464 97.2949 275.829 100.407 273.294 103.526C269.866 107.734 266.46 112.16 264.929 117.37C263.872 120.967 263.763 124.762 263.705 128.509C263.669 130.775 263.661 133.115 264.513 135.213C265.105 136.664 266.075 137.926 266.783 139.325C267.958 141.652 268.366 144.279 268.982 146.813C270.345 152.413 272.742 157.709 276.051 162.429C276.75 163.429 277.623 164.48 278.836 164.632C280.048 164.785 281.343 163.335 280.614 162.366" fill="#192534"/>
<path d="M280.976 162.706C281.313 159.233 285.053 157.124 288.493 156.552C291.977 156.016 295.542 156.409 298.827 157.689C302.112 158.97 305.002 161.093 307.205 163.846C307.796 161.64 308.118 159.37 308.162 157.087L314.554 156.931C315.273 156.97 315.991 156.833 316.645 156.531C317.426 156.086 317.848 155.211 318.194 154.376C320.457 148.917 321.683 142.372 326.624 139.123L327.33 146.262C328.73 145.843 330.014 145.108 331.084 144.114C332.155 143.12 332.982 141.894 333.503 140.529C334.056 142.47 334.817 144.345 335.771 146.123C335.929 146.42 336.141 146.744 336.47 146.791C336.628 146.787 336.783 146.749 336.926 146.681C337.068 146.612 337.194 146.514 337.296 146.393C339.543 144.308 341.53 141.96 343.215 139.399L352.044 151.717C355.309 140.292 354.339 128.072 349.313 117.305C344.287 106.538 335.542 97.9482 324.687 93.1147C322.846 92.2835 320.942 91.5976 318.994 91.0633C313.905 89.7009 308.559 89.6334 303.293 89.7944C295.806 90.0231 287.96 90.82 281.785 95.0318C278.464 97.2949 275.829 100.407 273.294 103.526C269.866 107.734 266.46 112.16 264.929 117.37C263.872 120.967 263.763 124.762 263.705 128.509C263.669 130.775 263.661 133.115 264.513 135.213C265.105 136.664 266.075 137.926 266.783 139.325C267.958 141.652 268.366 144.279 268.982 146.813C270.345 152.413 272.742 157.709 276.051 162.429C276.75 163.429 277.623 164.48 278.836 164.632C280.048 164.785 281.343 163.335 280.614 162.366" stroke="black" stroke-width="0.39854" stroke-miterlimit="10"/>
<path d="M241.042 203.425C242.99 207.481 247.119 209.956 251.026 212.197L261.216 218.044C263.925 219.598 266.708 221.213 268.615 223.683C266.298 224.834 265.506 228.036 266.538 230.409C267.57 232.782 270.008 234.314 272.553 234.863C275.099 235.412 277.714 235.125 280.273 234.724C283.212 234.269 286.27 233.605 288.543 231.686L282.858 228.917C281.359 228.18 279.599 226.945 279.959 225.319L285.605 224.704C286.2 224.645 286.843 224.554 287.279 224.138C287.714 223.722 287.821 223.139 287.966 222.58C288.59 220.316 289.836 218.272 291.563 216.68C293.289 215.087 295.427 214.01 297.735 213.571C299.12 213.33 300.733 213.23 301.593 212.096C302.152 211.344 302.188 210.339 302.208 209.404C302.244 207.622 302.271 205.793 301.751 204.102C301.231 202.412 300.054 200.798 298.364 200.233C297.121 199.811 295.75 199.999 294.432 199.953C288.369 199.752 283.683 194.738 279.964 189.944C276.246 185.149 272.239 179.835 266.324 178.499C264.483 178.14 262.6 178.04 260.731 178.199C256.586 178.437 252.368 179.196 248.778 181.281C242.086 185.168 237.572 196.207 241.042 203.425Z" fill="#F54298"/>
<path opacity="0.1" d="M351.38 144.654L342.551 132.336C340.867 134.898 338.88 137.246 336.631 139.33C336.531 139.452 336.405 139.551 336.262 139.621C336.12 139.69 335.964 139.728 335.806 139.732C335.477 139.684 335.265 139.361 335.107 139.064C334.153 137.285 333.392 135.408 332.839 133.466C332.319 134.831 331.492 136.059 330.421 137.054C329.351 138.049 328.066 138.784 326.667 139.203L325.96 132.064C321.02 135.321 319.809 141.865 317.53 147.317C317.184 148.152 316.761 149.015 315.981 149.472C315.327 149.774 314.609 149.911 313.89 149.872L307.498 150.028C307.454 152.311 307.132 154.581 306.541 156.787C304.338 154.034 301.448 151.911 298.163 150.63C294.878 149.35 291.314 148.957 287.829 149.492C284.389 150.065 280.649 152.174 280.312 155.647L279.938 155.308C280.679 156.28 279.377 157.73 278.161 157.578C276.944 157.427 276.075 156.375 275.375 155.375C272.074 150.649 269.684 145.348 268.329 139.745C267.714 137.211 267.305 134.584 266.13 132.257C265.423 130.858 264.453 129.596 263.86 128.145C263.855 128.093 263.823 128.048 263.806 127.998C263.8 128.299 263.793 128.6 263.791 128.9C263.756 131.171 263.746 133.506 264.601 135.629C265.194 137.08 266.164 138.341 266.87 139.737C268.046 142.068 268.454 144.691 269.07 147.229C270.424 152.831 272.814 158.131 276.116 162.855C276.816 163.855 277.689 164.91 278.902 165.062C280.114 165.215 281.408 163.765 280.679 162.792L281.053 163.127C281.39 159.658 285.13 157.545 288.57 156.976C292.054 156.439 295.619 156.831 298.904 158.111C302.189 159.391 305.079 161.514 307.282 164.267C307.874 162.062 308.195 159.794 308.239 157.512L314.631 157.352C315.35 157.392 316.068 157.255 316.722 156.952C317.503 156.507 317.925 155.632 318.27 154.797C320.533 149.334 321.76 142.793 326.7 139.544L327.407 146.683C328.807 146.264 330.092 145.529 331.162 144.534C332.232 143.539 333.059 142.311 333.579 140.946C334.134 142.887 334.894 144.764 335.848 146.544C336.005 146.837 336.218 147.164 336.546 147.208C336.705 147.206 336.86 147.169 337.003 147.1C337.146 147.031 337.272 146.932 337.372 146.81C339.62 144.726 341.608 142.378 343.292 139.816L352.12 152.134C354.152 144.932 354.532 137.365 353.233 129.997C353.355 134.948 352.73 139.889 351.38 144.654Z" fill="black"/>
</g>
<defs>
<clipPath id="clip0_341_2428">
<rect width="436.003" height="323.367" fill="white" transform="translate(45.3936 43.9186) rotate(-5.65459)"/>
</clipPath>
</defs>
</svg>
