<svg width="234" height="321" viewBox="0 0 234 321" fill="none" xmlns="http://www.w3.org/2000/svg">
<path d="M210.553 218.811V326.151H-58.3741C-89.0148 326.151 -113.944 302.074 -113.944 272.481C-113.944 242.888 -89.0148 218.811 -58.3741 218.811H210.553Z" fill="#FFF5B7" fill-opacity="0.1"/>
<path d="M217.161 325.326C217.161 326.421 216.726 327.471 215.952 328.245C215.178 329.019 214.128 329.454 213.033 329.454H-63.1617C-78.1623 329.454 -92.5486 323.495 -103.156 312.888C-113.763 302.281 -119.722 287.895 -119.722 272.894C-119.722 257.894 -113.763 243.507 -103.156 232.9C-92.5486 222.293 -78.1623 216.334 -63.1617 216.334H213.033C214.128 216.334 215.178 216.769 215.952 217.544C216.726 218.318 217.161 219.368 217.161 220.463C217.161 221.558 216.726 222.608 215.952 223.382C215.178 224.156 214.128 224.591 213.033 224.591H-63.1617C-75.9724 224.591 -88.2585 229.68 -97.3171 238.739C-106.376 247.798 -111.465 260.084 -111.465 272.894C-111.465 285.705 -106.376 297.991 -97.3171 307.05C-88.2585 316.108 -75.9724 321.197 -63.1617 321.197H213.033C214.128 321.198 215.178 321.633 215.952 322.407C216.726 323.181 217.161 324.231 217.161 325.326Z" fill="#00EAD3"/>
<path d="M210.555 243.582H-78.4375C-78.6565 243.582 -78.8665 243.495 -79.0213 243.34C-79.1762 243.185 -79.2632 242.975 -79.2632 242.756C-79.2632 242.537 -79.1762 242.327 -79.0213 242.173C-78.8665 242.018 -78.6565 241.931 -78.4375 241.931H210.555C210.774 241.931 210.984 242.018 211.139 242.173C211.294 242.327 211.381 242.537 211.381 242.756C211.381 242.975 211.294 243.185 211.139 243.34C210.984 243.495 210.774 243.582 210.555 243.582Z" fill="#CCCCCC"/>
<path d="M210.555 263.399H-78.4375C-78.6565 263.399 -78.8665 263.312 -79.0213 263.157C-79.1762 263.002 -79.2632 262.792 -79.2632 262.573C-79.2632 262.354 -79.1762 262.144 -79.0213 261.989C-78.8665 261.834 -78.6565 261.747 -78.4375 261.747H210.555C210.774 261.747 210.984 261.834 211.139 261.989C211.294 262.144 211.381 262.354 211.381 262.573C211.381 262.792 211.294 263.002 211.139 263.157C210.984 263.312 210.774 263.399 210.555 263.399Z" fill="#CCCCCC"/>
<path d="M210.555 283.216H-78.4375C-78.6565 283.216 -78.8665 283.129 -79.0213 282.974C-79.1762 282.819 -79.2632 282.609 -79.2632 282.39C-79.2632 282.171 -79.1762 281.961 -79.0213 281.806C-78.8665 281.651 -78.6565 281.564 -78.4375 281.564H210.555C210.774 281.564 210.984 281.651 211.139 281.806C211.294 281.961 211.381 282.171 211.381 282.39C211.381 282.609 211.294 282.819 211.139 282.974C210.984 283.129 210.774 283.216 210.555 283.216Z" fill="#CCCCCC"/>
<path d="M210.555 303.032H-78.4375C-78.6565 303.032 -78.8665 302.945 -79.0213 302.79C-79.1762 302.636 -79.2632 302.426 -79.2632 302.207C-79.2632 301.988 -79.1762 301.778 -79.0213 301.623C-78.8665 301.468 -78.6565 301.381 -78.4375 301.381H210.555C210.774 301.381 210.984 301.468 211.139 301.623C211.294 301.778 211.381 301.988 211.381 302.207C211.381 302.426 211.294 302.636 211.139 302.79C210.984 302.945 210.774 303.032 210.555 303.032Z" fill="#CCCCCC"/>
<g clip-path="url(#clip0_478_644)">
<g opacity="0.3">
<path d="M10.2449 128.739L-22.4375 131.975C-23.5949 132.089 -24.4403 133.121 -24.3257 134.278L-23.637 141.234C-23.5224 142.391 -22.4912 143.237 -21.3338 143.122L11.3486 139.886C12.5061 139.771 13.3515 138.74 13.2369 137.583L12.5482 130.627C12.4336 129.47 11.4024 128.624 10.2449 128.739Z" fill="#F2F2F2"/>
<path d="M49.9388 136.068L17.2564 139.304C16.0989 139.418 15.2535 140.45 15.3681 141.607L16.0568 148.563C16.1714 149.72 17.2026 150.565 18.3601 150.451L51.0425 147.215C52.1999 147.1 53.0453 146.069 52.9307 144.912L52.242 137.956C52.1274 136.799 51.0962 135.953 49.9388 136.068Z" fill="#F2F2F2"/>
<path d="M8.5887 112.018L-24.0937 115.254C-25.2512 115.369 -26.0966 116.4 -25.9819 117.558L-25.2933 124.513C-25.1787 125.671 -24.1475 126.516 -22.99 126.401L9.6924 123.165C10.8498 123.051 11.6952 122.02 11.5806 120.862L10.8919 113.907C10.7773 112.749 9.74613 111.904 8.5887 112.018Z" fill="#F2F2F2"/>
<path d="M48.284 119.344L15.6016 122.58C14.4441 122.695 13.5988 123.726 13.7134 124.884L14.4021 131.839C14.5167 132.997 15.5478 133.842 16.7053 133.727L49.3877 130.491C50.5451 130.377 51.3905 129.346 51.2759 128.188L50.5872 121.233C50.4726 120.075 49.4414 119.23 48.284 119.344Z" fill="#F2F2F2"/>
<path d="M6.38118 89.7214L-26.3013 92.9574C-27.4587 93.072 -28.3041 94.1032 -28.1895 95.2606L-27.5008 102.216C-27.3862 103.374 -26.355 104.219 -25.1976 104.104L7.48488 100.868C8.64231 100.754 9.48769 99.7227 9.37309 98.5652L8.68439 91.6096C8.56979 90.4522 7.53861 89.6068 6.38118 89.7214Z" fill="#F2F2F2"/>
<path d="M46.075 97.0475L13.3926 100.283C12.2352 100.398 11.3898 101.429 11.5044 102.587L12.1931 109.542C12.3077 110.7 13.3389 111.545 14.4963 111.431L47.1787 108.195C48.3361 108.08 49.1815 107.049 49.0669 105.891L48.3782 98.9357C48.2636 97.7783 47.2324 96.9329 46.075 97.0475Z" fill="#F2F2F2"/>
<path d="M4.7259 72.998L-27.9565 76.234C-29.114 76.3486 -29.9593 77.3798 -29.8447 78.5372L-29.156 85.4928C-29.0414 86.6503 -28.0103 87.4957 -26.8528 87.3811L5.82961 84.1451C6.98704 84.0305 7.83242 82.9993 7.71782 81.8419L7.02912 74.8862C6.91452 73.7288 5.88333 72.8834 4.7259 72.998Z" fill="#F2F2F2"/>
<path d="M44.4197 80.3269L11.7373 83.5629C10.5799 83.6775 9.7345 84.7087 9.8491 85.8661L10.5378 92.8217C10.6524 93.9792 11.6836 94.8245 12.841 94.7099L45.5234 91.474C46.6809 91.3594 47.5263 90.3282 47.4117 89.1707L46.723 82.2151C46.6084 81.0577 45.5772 80.2123 44.4197 80.3269Z" fill="#F2F2F2"/>
<path opacity="0.1" d="M10.2449 128.739L-22.4375 131.975C-23.5949 132.089 -24.4403 133.121 -24.3257 134.278L-23.637 141.234C-23.5224 142.391 -22.4912 143.237 -21.3338 143.122L11.3486 139.886C12.5061 139.771 13.3515 138.74 13.2369 137.583L12.5482 130.627C12.4336 129.47 11.4024 128.624 10.2449 128.739Z" fill="#F54298"/>
<path opacity="0.1" d="M49.9388 136.068L17.2564 139.304C16.0989 139.418 15.2535 140.45 15.3681 141.607L16.0568 148.563C16.1714 149.72 17.2026 150.565 18.3601 150.451L51.0425 147.215C52.1999 147.1 53.0453 146.069 52.9307 144.912L52.242 137.956C52.1274 136.799 51.0962 135.953 49.9388 136.068Z" fill="#F54298"/>
<path opacity="0.1" d="M8.5887 112.018L-24.0937 115.254C-25.2512 115.369 -26.0966 116.4 -25.9819 117.558L-25.2933 124.513C-25.1787 125.671 -24.1475 126.516 -22.99 126.401L9.6924 123.165C10.8498 123.051 11.6952 122.02 11.5806 120.862L10.8919 113.907C10.7773 112.749 9.74613 111.904 8.5887 112.018Z" fill="#F54298"/>
<path opacity="0.1" d="M48.284 119.344L15.6016 122.58C14.4441 122.695 13.5988 123.726 13.7134 124.884L14.4021 131.839C14.5167 132.997 15.5478 133.842 16.7053 133.727L49.3877 130.491C50.5451 130.377 51.3905 129.346 51.2759 128.188L50.5872 121.233C50.4726 120.075 49.4414 119.23 48.284 119.344Z" fill="#F54298"/>
<path opacity="0.1" d="M6.38118 89.7214L-26.3013 92.9574C-27.4587 93.072 -28.3041 94.1032 -28.1895 95.2606L-27.5008 102.216C-27.3862 103.374 -26.355 104.219 -25.1976 104.104L7.48488 100.868C8.64231 100.754 9.48769 99.7227 9.37309 98.5652L8.68439 91.6096C8.56979 90.4522 7.53861 89.6068 6.38118 89.7214Z" fill="#F54298"/>
<path opacity="0.1" d="M46.075 97.0475L13.3926 100.283C12.2352 100.398 11.3898 101.429 11.5044 102.587L12.1931 109.542C12.3077 110.7 13.3389 111.545 14.4963 111.431L47.1787 108.195C48.3361 108.08 49.1815 107.049 49.0669 105.891L48.3782 98.9357C48.2636 97.7783 47.2324 96.9329 46.075 97.0475Z" fill="#F54298"/>
<path opacity="0.1" d="M4.7259 72.998L-27.9565 76.234C-29.114 76.3486 -29.9593 77.3798 -29.8447 78.5372L-29.156 85.4928C-29.0414 86.6503 -28.0103 87.4957 -26.8528 87.3811L5.82961 84.1451C6.98704 84.0305 7.83242 82.9993 7.71782 81.8419L7.02912 74.8862C6.91452 73.7288 5.88333 72.8834 4.7259 72.998Z" fill="#F54298"/>
<path opacity="0.1" d="M44.4197 80.3269L11.7373 83.5629C10.5799 83.6775 9.7345 84.7087 9.8491 85.8661L10.5378 92.8217C10.6524 93.9792 11.6836 94.8245 12.841 94.7099L45.5234 91.474C46.6809 91.3594 47.5263 90.3282 47.4117 89.1707L46.723 82.2151C46.6084 81.0577 45.5772 80.2123 44.4197 80.3269Z" fill="#F54298"/>
</g>
<g opacity="0.3">
<path d="M90.1302 112.893L57.4478 116.129C56.2903 116.244 55.445 117.275 55.5596 118.432L56.2482 125.388C56.3629 126.545 57.394 127.391 58.5515 127.276L91.2339 124.04C92.3913 123.925 93.2367 122.894 93.1221 121.737L92.4334 114.781C92.3188 113.624 91.2876 112.778 90.1302 112.893Z" fill="#F2F2F2"/>
<path d="M129.823 120.219L97.1406 123.455C95.9832 123.57 95.1378 124.601 95.2524 125.758L95.9411 132.714C96.0557 133.871 97.0869 134.717 98.2443 134.602L130.927 131.366C132.084 131.252 132.93 130.22 132.815 129.063L132.126 122.107C132.012 120.95 130.981 120.105 129.823 120.219Z" fill="#F2F2F2"/>
<path d="M169.517 127.548L136.835 130.784C135.678 130.899 134.832 131.93 134.947 133.087L135.635 140.043C135.75 141.2 136.781 142.046 137.939 141.931L170.621 138.695C171.779 138.581 172.624 137.549 172.509 136.392L171.821 129.436C171.706 128.279 170.675 127.433 169.517 127.548Z" fill="#F2F2F2"/>
<path d="M88.4744 96.1697L55.792 99.4057C54.6346 99.5203 53.7892 100.551 53.9038 101.709L54.5925 108.665C54.7071 109.822 55.7383 110.667 56.8957 110.553L89.5781 107.317C90.7356 107.202 91.581 106.171 91.4664 105.014L90.7777 98.0579C90.6631 96.9005 89.6319 96.0551 88.4744 96.1697Z" fill="#F2F2F2"/>
<path d="M128.167 103.499L95.4849 106.735C94.3274 106.849 93.4821 107.88 93.5967 109.038L94.2854 115.994C94.4 117.151 95.4311 117.996 96.5886 117.882L129.271 114.646C130.428 114.531 131.274 113.5 131.159 112.343L130.471 105.387C130.356 104.229 129.325 103.384 128.167 103.499Z" fill="#F2F2F2"/>
<path d="M167.862 110.825L135.18 114.061C134.022 114.175 133.177 115.207 133.291 116.364L133.98 123.32C134.095 124.477 135.126 125.322 136.283 125.208L168.966 121.972C170.123 121.857 170.969 120.826 170.854 119.669L170.165 112.713C170.051 111.556 169.02 110.71 167.862 110.825Z" fill="#F2F2F2"/>
<path d="M86.2664 73.8755L53.584 77.1115C52.4266 77.2261 51.5812 78.2573 51.6958 79.4147L52.3845 86.3704C52.4991 87.5278 53.5303 88.3732 54.6877 88.2586L87.3701 85.0226C88.5276 84.908 89.3729 83.8768 89.2583 82.7194L88.5696 75.7637C88.455 74.6063 87.4239 73.7609 86.2664 73.8755Z" fill="#F2F2F2"/>
<path d="M125.959 81.2017L93.2769 84.4377C92.1194 84.5523 91.2741 85.5835 91.3887 86.7409L92.0774 93.6966C92.192 94.854 93.2231 95.6994 94.3806 95.5848L127.063 92.3488C128.22 92.2342 129.066 91.203 128.951 90.0456L128.263 83.0899C128.148 81.9325 127.117 81.0871 125.959 81.2017Z" fill="#F2F2F2"/>
<path d="M165.653 88.5278L132.971 91.7638C131.813 91.8784 130.968 92.9096 131.083 94.067L131.771 101.023C131.886 102.18 132.917 103.025 134.074 102.911L166.757 99.6749C167.914 99.5603 168.76 98.5291 168.645 97.3717L167.956 90.4161C167.842 89.2586 166.811 88.4132 165.653 88.5278Z" fill="#F2F2F2"/>
<path d="M84.6102 57.1522L51.9277 60.3881C50.7703 60.5027 49.9249 61.5339 50.0395 62.6914L50.7282 69.647C50.8428 70.8044 51.874 71.6498 53.0314 71.5352L85.7139 68.2992C86.8713 68.1846 87.7167 67.1534 87.6021 65.996L86.9134 59.0404C86.7988 57.8829 85.7676 57.0376 84.6102 57.1522Z" fill="#F2F2F2"/>
<path d="M124.304 64.4783L91.6216 67.7143C90.4642 67.8289 89.6188 68.8601 89.7334 70.0176L90.4221 76.9732C90.5367 78.1306 91.5679 78.976 92.7253 78.8614L125.408 75.6254C126.565 75.5108 127.411 74.4796 127.296 73.3222L126.607 66.3666C126.493 65.2091 125.461 64.3637 124.304 64.4783Z" fill="#F2F2F2"/>
<path d="M163.998 71.8072L131.316 75.0432C130.158 75.1578 129.313 76.189 129.428 77.3464L130.116 84.3021C130.231 85.4595 131.262 86.3049 132.42 86.1903L165.102 82.9543C166.259 82.8397 167.105 81.8085 166.99 80.6511L166.302 73.6955C166.187 72.538 165.156 71.6926 163.998 71.8072Z" fill="#F2F2F2"/>
<path opacity="0.1" d="M90.1302 112.893L57.4478 116.129C56.2903 116.244 55.445 117.275 55.5596 118.432L56.2482 125.388C56.3629 126.545 57.394 127.391 58.5515 127.276L91.2339 124.04C92.3913 123.925 93.2367 122.894 93.1221 121.737L92.4334 114.781C92.3188 113.624 91.2876 112.778 90.1302 112.893Z" fill="#F54298"/>
<path opacity="0.1" d="M129.823 120.219L97.1406 123.455C95.9832 123.57 95.1378 124.601 95.2524 125.758L95.9411 132.714C96.0557 133.871 97.0869 134.717 98.2443 134.602L130.927 131.366C132.084 131.252 132.93 130.22 132.815 129.063L132.126 122.107C132.012 120.95 130.981 120.105 129.823 120.219Z" fill="#F54298"/>
<path opacity="0.1" d="M169.517 127.548L136.835 130.784C135.678 130.899 134.832 131.93 134.947 133.087L135.635 140.043C135.75 141.2 136.781 142.046 137.939 141.931L170.621 138.695C171.779 138.581 172.624 137.549 172.509 136.392L171.821 129.436C171.706 128.279 170.675 127.433 169.517 127.548Z" fill="#F54298"/>
<path opacity="0.1" d="M88.4744 96.1697L55.792 99.4057C54.6346 99.5203 53.7892 100.551 53.9038 101.709L54.5925 108.665C54.7071 109.822 55.7383 110.667 56.8957 110.553L89.5781 107.317C90.7356 107.202 91.581 106.171 91.4664 105.014L90.7777 98.0579C90.6631 96.9005 89.6319 96.0551 88.4744 96.1697Z" fill="#F54298"/>
<path opacity="0.1" d="M128.167 103.499L95.4849 106.735C94.3274 106.849 93.4821 107.88 93.5967 109.038L94.2854 115.994C94.4 117.151 95.4311 117.996 96.5886 117.882L129.271 114.646C130.428 114.531 131.274 113.5 131.159 112.343L130.471 105.387C130.356 104.229 129.325 103.384 128.167 103.499Z" fill="#F54298"/>
<path opacity="0.1" d="M167.862 110.825L135.18 114.061C134.022 114.175 133.177 115.207 133.291 116.364L133.98 123.32C134.095 124.477 135.126 125.322 136.283 125.208L168.966 121.972C170.123 121.857 170.969 120.826 170.854 119.669L170.165 112.713C170.051 111.556 169.02 110.71 167.862 110.825Z" fill="#F54298"/>
<path opacity="0.1" d="M86.2664 73.8755L53.584 77.1115C52.4266 77.2261 51.5812 78.2573 51.6958 79.4147L52.3845 86.3704C52.4991 87.5278 53.5303 88.3732 54.6877 88.2586L87.3701 85.0226C88.5276 84.908 89.3729 83.8768 89.2583 82.7194L88.5696 75.7637C88.455 74.6063 87.4239 73.7609 86.2664 73.8755Z" fill="#F54298"/>
<path opacity="0.1" d="M125.959 81.2017L93.2769 84.4377C92.1194 84.5523 91.2741 85.5835 91.3887 86.7409L92.0774 93.6966C92.192 94.854 93.2231 95.6994 94.3806 95.5848L127.063 92.3488C128.22 92.2342 129.066 91.203 128.951 90.0456L128.263 83.0899C128.148 81.9325 127.117 81.0871 125.959 81.2017Z" fill="#F54298"/>
<path opacity="0.1" d="M165.653 88.5278L132.971 91.7638C131.813 91.8784 130.968 92.9096 131.083 94.067L131.771 101.023C131.886 102.18 132.917 103.025 134.074 102.911L166.757 99.6749C167.914 99.5603 168.76 98.5291 168.645 97.3717L167.956 90.4161C167.842 89.2586 166.811 88.4132 165.653 88.5278Z" fill="#F54298"/>
<path opacity="0.1" d="M84.6102 57.1522L51.9277 60.3881C50.7703 60.5027 49.9249 61.5339 50.0395 62.6914L50.7282 69.647C50.8428 70.8044 51.874 71.6498 53.0314 71.5352L85.7139 68.2992C86.8713 68.1846 87.7167 67.1534 87.6021 65.996L86.9134 59.0404C86.7988 57.8829 85.7676 57.0376 84.6102 57.1522Z" fill="#F54298"/>
<path opacity="0.1" d="M124.304 64.4783L91.6216 67.7143C90.4642 67.8289 89.6188 68.8601 89.7334 70.0176L90.4221 76.9732C90.5367 78.1306 91.5679 78.976 92.7253 78.8614L125.408 75.6254C126.565 75.5108 127.411 74.4796 127.296 73.3222L126.607 66.3666C126.493 65.2091 125.461 64.3637 124.304 64.4783Z" fill="#F54298"/>
<path opacity="0.1" d="M163.998 71.8072L131.316 75.0432C130.158 75.1578 129.313 76.189 129.428 77.3464L130.116 84.3021C130.231 85.4595 131.262 86.3049 132.42 86.1903L165.102 82.9543C166.259 82.8397 167.105 81.8085 166.99 80.6511L166.302 73.6955C166.187 72.538 165.156 71.6926 163.998 71.8072Z" fill="#F54298"/>
</g>
<g opacity="0.3">
<path d="M13.6121 204.854L-19.0703 208.09C-20.2277 208.205 -21.0731 209.236 -20.9585 210.393L-20.2698 217.349C-20.1552 218.506 -19.124 219.352 -17.9666 219.237L14.7158 216.001C15.8733 215.887 16.7187 214.855 16.6041 213.698L15.9154 206.742C15.8008 205.585 14.7696 204.74 13.6121 204.854Z" fill="#F2F2F2"/>
<path d="M11.9569 188.131L-20.7256 191.367C-21.883 191.481 -22.7284 192.513 -22.6138 193.67L-21.9251 200.626C-21.8105 201.783 -20.7793 202.628 -19.6219 202.514L13.0606 199.278C14.218 199.163 15.0634 198.132 14.9488 196.975L14.2601 190.019C14.1455 188.862 13.1143 188.016 11.9569 188.131Z" fill="#F2F2F2"/>
<path d="M9.74788 165.834L-22.9346 169.07C-24.092 169.184 -24.9374 170.216 -24.8228 171.373L-24.1341 178.329C-24.0195 179.486 -22.9883 180.331 -21.8308 180.217L10.8516 176.981C12.009 176.866 12.8544 175.835 12.7398 174.678L12.0511 167.722C11.9365 166.565 10.9053 165.719 9.74788 165.834Z" fill="#F2F2F2"/>
<path d="M8.0931 149.113L-24.5893 152.349C-25.7468 152.464 -26.5922 153.495 -26.4776 154.652L-25.7889 161.608C-25.6743 162.766 -24.6431 163.611 -23.4856 163.496L9.1968 160.26C10.3542 160.146 11.1996 159.115 11.085 157.957L10.3963 151.001C10.2817 149.844 9.25053 148.999 8.0931 149.113Z" fill="#F2F2F2"/>
<path opacity="0.1" d="M13.6121 204.854L-19.0703 208.09C-20.2277 208.205 -21.0731 209.236 -20.9585 210.393L-20.2698 217.349C-20.1552 218.506 -19.124 219.352 -17.9666 219.237L14.7158 216.001C15.8733 215.887 16.7187 214.855 16.6041 213.698L15.9154 206.742C15.8008 205.585 14.7696 204.74 13.6121 204.854Z" fill="#F54298"/>
<path opacity="0.1" d="M11.9569 188.131L-20.7256 191.367C-21.883 191.481 -22.7284 192.513 -22.6138 193.67L-21.9251 200.626C-21.8105 201.783 -20.7793 202.628 -19.6219 202.514L13.0606 199.278C14.218 199.163 15.0634 198.132 14.9488 196.975L14.2601 190.019C14.1455 188.862 13.1143 188.016 11.9569 188.131Z" fill="#F54298"/>
<path opacity="0.1" d="M9.74788 165.834L-22.9346 169.07C-24.092 169.184 -24.9374 170.216 -24.8228 171.373L-24.1341 178.329C-24.0195 179.486 -22.9883 180.331 -21.8308 180.217L10.8516 176.981C12.009 176.866 12.8544 175.835 12.7398 174.678L12.0511 167.722C11.9365 166.565 10.9053 165.719 9.74788 165.834Z" fill="#F54298"/>
<path opacity="0.1" d="M8.0931 149.113L-24.5893 152.349C-25.7468 152.464 -26.5922 153.495 -26.4776 154.652L-25.7889 161.608C-25.6743 162.766 -24.6431 163.611 -23.4856 163.496L9.1968 160.26C10.3542 160.146 11.1996 159.115 11.085 157.957L10.3963 151.001C10.2817 149.844 9.25053 148.999 8.0931 149.113Z" fill="#F54298"/>
</g>
<g opacity="0.3">
<path d="M53.8026 181.68L21.1201 184.916C19.9627 185.03 19.1173 186.061 19.2319 187.219L19.9206 194.174C20.0352 195.332 21.0664 196.177 22.2238 196.063L54.9063 192.827C56.0637 192.712 56.9091 191.681 56.7945 190.523L56.1058 183.568C55.9912 182.41 54.96 181.565 53.8026 181.68Z" fill="#F2F2F2"/>
<path d="M93.4964 189.006L60.814 192.242C59.6565 192.356 58.8112 193.388 58.9258 194.545L59.6145 201.501C59.7291 202.658 60.7602 203.503 61.9177 203.389L94.6001 200.153C95.7575 200.038 96.6029 199.007 96.4883 197.85L95.7996 190.894C95.685 189.737 94.6538 188.891 93.4964 189.006Z" fill="#F2F2F2"/>
<path d="M133.19 196.334L100.508 199.57C99.3504 199.685 98.505 200.716 98.6196 201.874L99.3083 208.829C99.4229 209.987 100.454 210.832 101.612 210.718L134.294 207.482C135.451 207.367 136.297 206.336 136.182 205.178L135.493 198.223C135.379 197.065 134.348 196.22 133.19 196.334Z" fill="#F2F2F2"/>
<path d="M52.1478 164.956L19.4653 168.192C18.3079 168.307 17.4625 169.338 17.5771 170.495L18.2658 177.451C18.3804 178.608 19.4116 179.454 20.569 179.339L53.2515 176.103C54.4089 175.988 55.2543 174.957 55.1397 173.8L54.451 166.844C54.3364 165.687 53.3052 164.841 52.1478 164.956Z" fill="#F2F2F2"/>
<path d="M91.8402 172.285L59.1577 175.521C58.0003 175.636 57.1549 176.667 57.2695 177.824L57.9582 184.78C58.0728 185.937 59.104 186.783 60.2614 186.668L92.9439 183.432C94.1013 183.317 94.9467 182.286 94.8321 181.129L94.1434 174.173C94.0288 173.016 92.9976 172.17 91.8402 172.285Z" fill="#F2F2F2"/>
<path d="M131.535 179.611L98.853 182.847C97.6956 182.962 96.8502 183.993 96.9648 185.15L97.6535 192.106C97.7681 193.263 98.7993 194.109 99.9567 193.994L132.639 190.758C133.797 190.643 134.642 189.612 134.527 188.455L133.839 181.499C133.724 180.342 132.693 179.496 131.535 179.611Z" fill="#F2F2F2"/>
<path d="M49.9398 142.662L17.2573 145.898C16.0999 146.012 15.2545 147.044 15.3691 148.201L16.0578 155.157C16.1724 156.314 17.2036 157.159 18.361 157.045L51.0435 153.809C52.2009 153.694 53.0463 152.663 52.9317 151.506L52.243 144.55C52.1284 143.393 51.0972 142.547 49.9398 142.662Z" fill="#F2F2F2"/>
<path d="M89.6326 149.988L56.9502 153.224C55.7928 153.339 54.9474 154.37 55.062 155.527L55.7507 162.483C55.8653 163.64 56.8965 164.486 58.0539 164.371L90.7363 161.135C91.8938 161.021 92.7392 159.989 92.6246 158.832L91.9359 151.876C91.8213 150.719 90.7901 149.873 89.6326 149.988Z" fill="#F2F2F2"/>
<path d="M129.326 157.314L96.6441 160.55C95.4866 160.665 94.6412 161.696 94.7558 162.853L95.4445 169.809C95.5591 170.966 96.5903 171.812 97.7478 171.697L130.43 168.461C131.588 168.347 132.433 167.315 132.318 166.158L131.63 159.202C131.515 158.045 130.484 157.199 129.326 157.314Z" fill="#F2F2F2"/>
<path d="M48.284 125.938L15.6016 129.174C14.4441 129.289 13.5988 130.32 13.7134 131.478L14.4021 138.433C14.5167 139.591 15.5478 140.436 16.7053 140.322L49.3877 137.086C50.5451 136.971 51.3905 135.94 51.2759 134.782L50.5872 127.827C50.4726 126.669 49.4414 125.824 48.284 125.938Z" fill="#F2F2F2"/>
<path d="M87.9779 133.265L55.2954 136.501C54.138 136.615 53.2926 137.646 53.4072 138.804L54.0959 145.76C54.2105 146.917 55.2417 147.762 56.3991 147.648L89.0816 144.412C90.239 144.297 91.0844 143.266 90.9698 142.109L90.2811 135.153C90.1665 133.995 89.1353 133.15 87.9779 133.265Z" fill="#F2F2F2"/>
<path d="M127.672 140.594L94.9893 143.83C93.8318 143.944 92.9865 144.975 93.1011 146.133L93.7898 153.088C93.9044 154.246 94.9355 155.091 96.093 154.977L128.775 151.741C129.933 151.626 130.778 150.595 130.664 149.437L129.975 142.482C129.86 141.324 128.829 140.479 127.672 140.594Z" fill="#F2F2F2"/>
<path opacity="0.1" d="M53.8026 181.68L21.1201 184.916C19.9627 185.03 19.1173 186.061 19.2319 187.219L19.9206 194.174C20.0352 195.332 21.0664 196.177 22.2238 196.063L54.9063 192.827C56.0637 192.712 56.9091 191.681 56.7945 190.523L56.1058 183.568C55.9912 182.41 54.96 181.565 53.8026 181.68Z" fill="#F54298"/>
<path opacity="0.1" d="M93.4964 189.006L60.814 192.242C59.6565 192.356 58.8112 193.388 58.9258 194.545L59.6145 201.501C59.7291 202.658 60.7602 203.503 61.9177 203.389L94.6001 200.153C95.7575 200.038 96.6029 199.007 96.4883 197.85L95.7996 190.894C95.685 189.737 94.6538 188.891 93.4964 189.006Z" fill="#F54298"/>
<path opacity="0.1" d="M133.19 196.334L100.508 199.57C99.3504 199.685 98.505 200.716 98.6196 201.874L99.3083 208.829C99.4229 209.987 100.454 210.832 101.612 210.718L134.294 207.482C135.451 207.367 136.297 206.336 136.182 205.178L135.493 198.223C135.379 197.065 134.348 196.22 133.19 196.334Z" fill="#F54298"/>
<path opacity="0.1" d="M52.1478 164.956L19.4653 168.192C18.3079 168.307 17.4625 169.338 17.5771 170.495L18.2658 177.451C18.3804 178.608 19.4116 179.454 20.569 179.339L53.2515 176.103C54.4089 175.988 55.2543 174.957 55.1397 173.8L54.451 166.844C54.3364 165.687 53.3052 164.841 52.1478 164.956Z" fill="#F54298"/>
<path opacity="0.1" d="M91.8402 172.285L59.1577 175.521C58.0003 175.636 57.1549 176.667 57.2695 177.824L57.9582 184.78C58.0728 185.937 59.104 186.783 60.2614 186.668L92.9439 183.432C94.1013 183.317 94.9467 182.286 94.8321 181.129L94.1434 174.173C94.0288 173.016 92.9976 172.17 91.8402 172.285Z" fill="#F54298"/>
<path opacity="0.1" d="M131.535 179.611L98.853 182.847C97.6956 182.962 96.8502 183.993 96.9648 185.15L97.6535 192.106C97.7681 193.263 98.7993 194.109 99.9567 193.994L132.639 190.758C133.797 190.643 134.642 189.612 134.527 188.455L133.839 181.499C133.724 180.342 132.693 179.496 131.535 179.611Z" fill="#F54298"/>
<path opacity="0.1" d="M49.9398 142.662L17.2573 145.898C16.0999 146.012 15.2545 147.044 15.3691 148.201L16.0578 155.157C16.1724 156.314 17.2036 157.159 18.361 157.045L51.0435 153.809C52.2009 153.694 53.0463 152.663 52.9317 151.506L52.243 144.55C52.1284 143.393 51.0972 142.547 49.9398 142.662Z" fill="#F54298"/>
<path opacity="0.1" d="M89.6326 149.988L56.9502 153.224C55.7928 153.339 54.9474 154.37 55.062 155.527L55.7507 162.483C55.8653 163.64 56.8965 164.486 58.0539 164.371L90.7363 161.135C91.8938 161.021 92.7392 159.989 92.6246 158.832L91.9359 151.876C91.8213 150.719 90.7901 149.873 89.6326 149.988Z" fill="#F54298"/>
<path opacity="0.1" d="M129.326 157.314L96.6441 160.55C95.4866 160.665 94.6412 161.696 94.7558 162.853L95.4445 169.809C95.5591 170.966 96.5903 171.812 97.7478 171.697L130.43 168.461C131.588 168.347 132.433 167.315 132.318 166.158L131.63 159.202C131.515 158.045 130.484 157.199 129.326 157.314Z" fill="#F54298"/>
<path opacity="0.1" d="M48.284 125.938L15.6016 129.174C14.4441 129.289 13.5988 130.32 13.7134 131.478L14.4021 138.433C14.5167 139.591 15.5478 140.436 16.7053 140.322L49.3877 137.086C50.5451 136.971 51.3905 135.94 51.2759 134.782L50.5872 127.827C50.4726 126.669 49.4414 125.824 48.284 125.938Z" fill="#F54298"/>
<path opacity="0.1" d="M87.9779 133.265L55.2954 136.501C54.138 136.615 53.2926 137.646 53.4072 138.804L54.0959 145.76C54.2105 146.917 55.2417 147.762 56.3991 147.648L89.0816 144.412C90.239 144.297 91.0844 143.266 90.9698 142.109L90.2811 135.153C90.1665 133.995 89.1353 133.15 87.9779 133.265Z" fill="#F54298"/>
<path opacity="0.1" d="M127.672 140.594L94.9893 143.83C93.8318 143.944 92.9865 144.975 93.1011 146.133L93.7898 153.088C93.9044 154.246 94.9355 155.091 96.093 154.977L128.775 151.741C129.933 151.626 130.778 150.595 130.664 149.437L129.975 142.482C129.86 141.324 128.829 140.479 127.672 140.594Z" fill="#F54298"/>
</g>
<path d="M124.73 210.99C124.918 210.133 125.313 209.335 125.88 208.665C126.447 207.995 127.169 207.474 127.983 207.147C128.798 206.82 129.68 206.697 130.552 206.788C131.425 206.88 132.262 207.184 132.991 207.673L133.216 207.829C138.042 211.268 135.385 217.853 133.462 218.047C131.539 218.241 127.836 218.488 127.836 218.488C127.836 218.488 123.426 216.791 124.73 210.99Z" fill="#192534"/>
<path d="M167.394 205.533L167.423 206.717C167.423 206.717 148.186 208.512 146.129 208.562L142.278 208.655C142.278 208.655 142.223 208.715 142.132 208.825C141.978 209.008 141.716 209.329 141.428 209.727C140.841 210.529 140.145 211.646 139.999 212.562C139.755 214.199 138.721 214.816 138.721 214.816L134.845 213.874L131.024 209.521L130.47 209.012L128.893 207.579L127.545 206.35L127.593 205.64L127.591 205.532C127.869 204.002 128.236 202.49 128.689 201.003C128.688 200.964 128.713 200.92 128.726 200.88C129.717 197.647 131.406 193.708 133.945 192.487C134.139 192.395 134.341 192.305 134.557 192.223L134.815 192.126C139.7 190.359 149.022 190.789 149.022 190.789C149.022 190.789 156.178 192.692 156.795 193.568C157.411 194.443 164.323 201.609 164.323 201.609C164.925 202.04 165.482 202.531 165.986 203.074C166.634 203.759 167.242 204.626 167.394 205.533Z" fill="#F54298"/>
<path opacity="0.1" d="M127.195 216.281C128.341 216.254 129.234 214.772 129.191 212.973C129.148 211.173 128.184 209.736 127.039 209.764C125.893 209.791 124.999 211.273 125.043 213.072C125.086 214.872 126.05 216.309 127.195 216.281Z" fill="white"/>
<path opacity="0.1" d="M135.245 193.562C135.245 193.562 133.607 196.209 131.891 199.596C131.891 199.605 131.891 199.613 131.892 199.622C131.435 200.523 130.97 201.473 130.528 202.444L130.509 202.49C130.509 202.49 129.507 201.735 128.716 200.994C128.715 200.954 128.739 200.911 128.752 200.871C129.743 197.638 131.432 193.699 133.971 192.478C134.165 192.385 134.367 192.296 134.583 192.214L135.245 193.562Z" fill="black"/>
<path opacity="0.1" d="M130.421 202.422C130.421 202.422 141.011 205.286 143.05 203.895C143.05 203.895 143.565 194.399 138.663 193.925C138.663 193.925 135.831 193.25 135.256 193.723C134.68 194.196 130.421 202.422 130.421 202.422Z" fill="white"/>
<path opacity="0.1" d="M143.877 195.131C143.877 195.131 146.14 202.931 147.626 203.045C149.111 203.16 164.057 202.499 163.443 201.477C162.828 200.454 156.148 193.949 156.148 193.949L143.877 195.131Z" fill="white"/>
<path d="M141.676 209.395C141.676 209.395 144.283 205.791 149.109 209.233C153.935 212.675 151.275 219.257 149.355 219.451C147.434 219.645 143.749 219.884 143.749 219.884C143.749 219.884 137.845 217.621 141.676 209.395Z" fill="#192534"/>
<path d="M169.655 209.623C169.444 209.068 169.12 208.564 168.705 208.14C168.289 207.717 167.79 207.385 167.239 207.164C166.689 206.943 166.098 206.839 165.505 206.858C164.912 206.877 164.33 207.019 163.794 207.275C163.271 207.537 162.777 207.854 162.32 208.22C158.177 211.484 160.836 217.224 162.539 217.316C163.155 217.347 163.975 217.375 164.772 217.398C165.588 217.422 166.399 217.256 167.14 216.913C167.881 216.571 168.533 216.061 169.044 215.423C169.554 214.786 169.91 214.039 170.083 213.241C170.256 212.443 170.242 211.616 170.041 210.824C169.935 210.417 169.806 210.016 169.655 209.623Z" fill="#192534"/>
<path opacity="0.1" d="M143.086 217.677C144.232 217.649 145.125 216.168 145.082 214.368C145.038 212.568 144.075 211.132 142.929 211.159C141.784 211.187 140.89 212.668 140.933 214.468C140.977 216.268 141.94 217.704 143.086 217.677Z" fill="white"/>
<path opacity="0.1" d="M148.635 208.059C148.635 208.059 148.249 203.77 152.871 205.437C157.492 207.103 154.589 209.101 154.589 209.101L148.635 208.059Z" fill="white"/>
<path opacity="0.1" d="M167.394 205.533L167.408 206.125L166.675 206.426L165.158 206.179C165.158 206.179 164.776 203.761 165.998 203.04C166.634 203.759 167.241 204.626 167.394 205.533Z" fill="white"/>
<path opacity="0.1" d="M167.395 205.561L167.423 206.717C167.423 206.717 148.186 208.512 146.129 208.562L146.112 208.562C145.033 208.021 143.962 207.794 143.075 208.193C142.805 208.312 142.553 208.467 142.324 208.653C142.257 208.709 142.193 208.767 142.132 208.825C141.856 209.091 141.619 209.394 141.428 209.727C140.154 211.904 140.517 215.218 140.517 215.218C136.694 216.495 132.621 213.483 132.621 213.483C131.844 211.324 131.132 209.921 130.489 208.998C129.902 208.161 129.376 207.757 128.912 207.564L127.545 206.349L127.593 205.639L138.529 213.196C138.529 213.196 139.406 206.506 141.779 206.894C144.153 207.282 148.9 207.168 148.9 207.168L167.395 205.561Z" fill="black"/>
<path d="M126.939 205.616C126.939 205.616 126.103 207.859 126.996 207.987C127.89 208.116 129.843 206.218 132.623 213.928C132.623 213.928 136.696 216.949 140.518 215.663C140.518 215.663 139.924 210.047 143.085 208.635C146.246 207.224 151.734 213.763 151.734 213.763L151.769 215.245L164.327 213.607C164.327 213.607 168.107 210.554 167.849 205.967L148.921 207.607C148.921 207.607 144.18 207.721 141.8 207.333C139.421 206.946 138.55 213.649 138.55 213.649L126.939 205.616Z" fill="#F54298"/>
<path d="M70.0084 169.789L70.0056 169.789C65.65 170.22 62.4687 174.101 62.9 178.456L62.9003 178.459C63.3315 182.815 67.212 185.996 71.5676 185.565L71.5704 185.565C75.926 185.133 79.1072 181.253 78.676 176.897L78.6757 176.894C78.2444 172.539 74.364 169.358 70.0084 169.789Z" fill="#192534"/>
<path d="M68.6674 198.384C69.6333 197.352 70.6144 196.3 71.2589 195.043C71.8512 193.891 72.1404 192.612 72.4051 191.344C73.1609 187.72 73.7591 184.067 74.1996 180.385C69.7931 180.152 66.1727 176.64 61.8162 175.935C61.7119 175.917 60.3968 195.745 60.3364 197.551C60.2876 199.043 59.3027 206.241 61.2218 206.091C62.2479 206.012 64.1324 203.24 64.8216 202.491L68.6674 198.384Z" fill="#3F3D56"/>
<path opacity="0.1" d="M68.6674 198.384C69.6333 197.352 70.6144 196.3 71.2589 195.043C71.8512 193.891 72.1404 192.612 72.4051 191.344C73.1609 187.72 73.7591 184.067 74.1996 180.385C69.7931 180.152 66.1727 176.64 61.8162 175.935C61.7119 175.917 60.3968 195.745 60.3364 197.551C60.2876 199.043 59.3027 206.241 61.2218 206.091C62.2479 206.012 64.1324 203.24 64.8216 202.491L68.6674 198.384Z" fill="black"/>
<path d="M10.1476 154.476C9.67532 154.597 9.17124 154.684 8.804 155.002C8.27898 155.453 8.20773 156.201 8.00289 156.865C7.732 157.718 7.2043 158.466 6.49191 159.008C5.88509 159.467 5.12439 159.81 4.8022 160.497C4.62711 160.956 4.57132 161.451 4.64004 161.937C4.73223 163.387 4.94058 164.828 5.26307 166.245C5.42455 166.955 5.61562 167.677 5.53623 168.399C5.446 169.243 4.99654 169.997 4.5708 170.731C3.5484 172.487 2.56731 174.401 2.67138 176.43C2.72396 177.451 3.05267 178.469 2.89346 179.479C2.61221 181.27 0.874716 182.593 0.688504 184.394C0.632988 184.926 0.715931 185.476 0.561162 185.985C0.289548 186.866 -0.643403 187.425 -0.808141 188.322C-0.932329 188.995 -0.587486 189.659 -0.500436 190.336C-0.373645 191.329 -0.804413 192.3 -1.22158 193.208L-3.66352 198.491C-4.45658 200.204 -5.26495 201.993 -5.24028 203.882C-5.21964 205.558 -4.54065 207.151 -3.81843 208.663C-2.21271 212.022 0.0254708 215.526 3.61338 216.523C5.72524 217.112 7.97344 216.718 10.1303 216.322C13.0845 215.782 16.058 215.234 18.8515 214.134C20.2359 213.59 21.5788 212.913 22.9888 212.483C23.9291 212.199 24.9043 212.008 25.799 211.609C26.7631 211.151 27.5862 210.442 28.182 209.556C28.7778 208.67 29.1245 207.64 29.1855 206.574C30.4634 206.938 31.4431 205.212 31.1387 203.92C30.8342 202.629 29.8444 201.607 29.3634 200.373C28.6822 198.672 29.0017 196.721 29.6881 195.023C30.3746 193.326 31.401 191.783 32.1678 190.121C33.0212 188.26 33.5446 186.266 33.7146 184.226C33.9403 181.472 33.5158 178.708 33.0917 175.979L31.472 165.547C31.1747 163.636 30.857 161.666 29.8388 160.012C28.7235 158.211 26.8937 156.991 25.0793 155.897C22.3982 154.247 19.6121 152.775 16.7388 151.488C14.8872 150.68 15.049 151.049 13.7681 152.352C12.7775 153.377 11.5255 154.112 10.1476 154.476Z" fill="#3F3D56"/>
<path d="M36.7463 181.314C34.9079 183.085 33.0464 184.881 31.7125 187.058C30.1029 189.704 29.3456 192.781 29.5433 195.872C29.6681 197.315 29.9117 198.746 30.2715 200.149C30.8037 202.446 31.6048 204.985 33.6924 206.077C35.008 206.764 36.7261 206.799 37.6896 207.928C37.9924 208.283 38.1936 208.733 38.5371 209.038C39.1616 209.591 40.0547 209.637 40.8716 209.601C42.0921 209.549 43.3059 209.391 44.499 209.128C45.8618 208.825 47.2337 208.385 48.6246 208.509C51.3311 208.745 53.5622 211.056 56.2891 211.125C58.5538 211.186 60.5208 209.678 62.2711 208.254C64.0767 206.785 65.958 205.218 66.7997 203.047C67.6191 200.937 67.3287 198.579 67.0265 196.334C66.6914 193.84 66.3503 191.316 65.4428 188.968C65.1724 188.357 64.949 187.726 64.7745 187.08C64.4067 185.408 65.0063 183.668 65.4101 181.993C66.0435 179.444 66.1266 176.371 64.1908 174.597C63.373 173.847 62.2989 173.44 61.2252 173.182C56.4786 171.989 51.4804 173.116 46.8516 174.32C42.4313 175.444 39.9918 178.192 36.7463 181.314Z" fill="#3F3D56"/>
<path d="M74.6499 167.717C73.1035 170.624 71.5534 173.552 70.5375 176.669C69.8576 178.926 69.324 181.224 68.9402 183.549C67.749 189.987 66.5854 196.559 63.5059 202.336C63.064 203.166 62.5687 204.032 62.6076 204.971C62.6434 205.851 63.1418 206.627 63.6222 207.366C64.6315 208.929 65.682 210.506 67.0294 211.802C68.3768 213.099 69.9271 214.027 71.4909 214.978C74.7352 216.935 78.3285 218.995 82.0886 218.451C82.8663 218.337 83.6833 218.074 84.1473 217.439C84.6113 216.803 84.6048 215.989 84.4374 215.248C83.9255 212.955 81.996 211.303 80.2405 209.739C78.4849 208.176 76.6922 206.322 76.5867 203.963C76.4936 202.016 77.5992 200.237 78.6652 198.605C79.8843 196.735 81.1065 194.868 82.2407 192.947C87.1463 184.643 90.3703 175.434 92.7223 166.079C93.7127 162.13 94.56 158.001 93.7353 154.016C90.5572 153.561 84.0999 151.631 81.7396 154.517C80.3091 156.265 79.42 158.734 78.3675 160.732L74.6499 167.717Z" fill="#FBBEBE"/>
<path d="M98.2253 138.641C96.5991 142.264 95.4228 146.072 94.7226 149.982C94.5513 150.927 94.4133 151.921 94.7057 152.832C95.0218 153.809 95.7828 154.562 96.3833 155.391C96.9838 156.22 97.4551 157.299 97.0797 158.253C94.8966 158.643 92.6568 158.258 90.4711 157.874L83.6189 156.672C83.0557 156.621 82.5138 156.432 82.0406 156.122C81.1954 155.468 81.1332 154.235 81.1788 153.171C81.634 144.45 85.0441 136.115 85.7692 127.416C85.8756 126.16 85.9802 124.771 86.8839 123.887C89.4839 121.38 96.0566 122.634 97.8371 125.717C99.8249 129.137 99.7541 135.239 98.2253 138.641Z" fill="#F54298"/>
<path d="M59.6234 112.812C59.3852 112.967 59.1182 113.147 59.0683 113.42C59.0657 113.566 59.0951 113.711 59.1546 113.844C59.2141 113.977 59.3021 114.096 59.4125 114.192L62.6551 117.915C65.8525 121.586 69.0582 125.282 72.6614 128.562C75.3811 131.037 78.3125 133.269 81.4221 135.231C82.297 135.783 83.228 136.354 83.7199 137.265C81.426 132.189 81.1734 126.424 83.0144 121.166C83.7497 119.099 84.7983 117.147 85.5714 115.088C85.6519 114.971 85.701 114.835 85.7137 114.694C85.7265 114.552 85.7025 114.41 85.6441 114.281C85.5858 114.151 85.495 114.039 85.3806 113.955C85.2662 113.871 85.132 113.818 84.9911 113.801C82.4002 112.776 79.6277 112.276 77.0459 111.227C75.0189 110.402 73.1478 109.254 71.2901 108.125C69.6324 107.119 67.3762 105.274 65.424 104.975C63.3153 104.648 63.5828 106.516 63.075 108.147C62.4939 110.052 61.2752 111.699 59.6234 112.812Z" fill="#FBBEBE"/>
<path opacity="0.1" d="M59.6234 112.812C59.3852 112.967 59.1182 113.147 59.0683 113.42C59.0657 113.566 59.0951 113.711 59.1546 113.844C59.2141 113.977 59.3021 114.096 59.4125 114.192L62.6551 117.915C65.8525 121.586 69.0582 125.282 72.6614 128.562C75.3811 131.037 78.3125 133.269 81.4221 135.231C82.297 135.783 83.228 136.354 83.7199 137.265C81.426 132.189 81.1734 126.424 83.0144 121.166C83.7497 119.099 84.7983 117.147 85.5714 115.088C85.6519 114.971 85.701 114.835 85.7137 114.694C85.7265 114.552 85.7025 114.41 85.6441 114.281C85.5858 114.151 85.495 114.039 85.3806 113.955C85.2662 113.871 85.132 113.818 84.9911 113.801C82.4002 112.776 79.6277 112.276 77.0459 111.227C75.0189 110.402 73.1478 109.254 71.2901 108.125C69.6324 107.119 67.3762 105.274 65.424 104.975C63.3153 104.648 63.5828 106.516 63.075 108.147C62.4939 110.052 61.2752 111.699 59.6234 112.812Z" fill="black"/>
<path d="M78.6556 127.046C77.2225 125.718 75.3869 124.929 73.7414 123.872C71.3749 122.352 69.4185 120.284 67.5211 118.208C64.038 114.386 60.4377 109.638 61.482 104.565C59.8388 104.568 58.5665 106.044 57.942 107.561C57.3175 109.078 57.0852 110.759 56.26 112.177C55.0065 114.332 52.6283 115.513 50.4178 116.66C45.5589 119.186 40.9115 122.098 36.5205 125.37C34.7565 126.684 33.0091 128.079 31.7399 129.874C30.38 131.789 29.6346 134.07 28.5228 136.131C26.3604 140.182 22.7842 143.416 18.6622 145.453C17.305 146.128 15.8345 146.696 14.658 147.672C12.1365 149.765 11.3714 153.515 12.3284 156.65C13.2853 159.785 15.7355 162.294 18.5474 163.969C21.3593 165.645 24.4566 166.492 27.592 167.321C30.219 168 32.8576 168.635 35.508 169.226C37.4613 169.692 39.4441 170.025 41.4427 170.222C45.1159 170.527 48.8088 169.996 52.4958 170.039C55.8661 170.075 59.2243 170.594 62.5956 170.497C65.9668 170.4 69.4682 169.603 72.0027 167.384C74.0185 165.62 75.2311 163.139 76.3357 160.689C79.2072 154.368 81.6883 147.876 83.7648 141.251C84.3768 139.291 90.7286 127.901 88.7476 126.707C78.7732 120.697 82.9464 131.403 81.977 130.645C80.68 129.628 79.8472 128.15 78.6556 127.046Z" fill="#F54298"/>
<path d="M66.5198 121.811C64.1285 117.997 62.3551 113.838 60.5925 109.7C60.1057 108.552 59.6066 107.308 59.8882 106.095C60.228 104.638 61.6432 103.281 61.052 101.913C57.5759 103.396 53.5849 105.577 53.2431 109.345C53.1678 110.167 53.2812 111.025 52.9781 111.79C52.3889 113.289 50.5574 113.778 48.9991 114.177C44.4687 115.369 40.0775 117.678 37.2639 121.423C36.7895 122.04 36.3536 122.73 35.7327 123.218C35.2811 123.548 34.7936 123.826 34.2794 124.046C31.3034 125.46 28.2671 127.156 26.5397 129.962C25.6487 131.406 25.1538 133.081 24.1349 134.441C22.7568 136.286 20.5643 137.358 19.0478 139.1C18.0235 140.261 17.3514 141.672 16.74 143.091C14.387 148.554 12.8869 154.835 14.9739 160.407C16.0628 163.321 18.0727 165.814 19.3041 168.671C20.9967 172.562 21.3236 177.158 24.0942 180.373C25.8409 182.393 28.3523 183.595 30.8853 184.438C36.5206 186.304 42.5449 186.672 48.3653 185.504C50.52 185.034 52.6491 184.455 54.7444 183.767C59.7537 182.206 64.8074 180.546 69.2167 177.7C76.7368 172.845 81.717 165.007 86.4625 157.416C87.3648 155.971 88.2744 154.514 88.8642 152.906C89.4442 151.37 89.7244 149.742 90.0582 148.136C91.1886 142.724 92.9924 137.267 92.2312 131.794C92.1748 131.135 91.9805 130.496 91.6608 129.917C91.3961 129.487 91.0129 129.127 90.7733 128.692C90.3488 127.913 90.4109 126.959 90.0843 126.134C89.1756 123.831 86.0169 123.688 83.5537 123.952L84.1404 137.933C84.2258 140.032 84.2323 142.37 82.8166 143.923C82.2084 144.561 81.4128 144.988 80.5452 145.143C79.6775 145.298 78.7831 145.173 77.9916 144.785C76.2267 143.875 75.8069 142.022 75.6402 140.225C75.4337 137.966 75.0457 135.917 74.1122 133.825C72.1786 129.485 69.0302 125.82 66.5198 121.811Z" fill="#192534"/>
<path d="M71.4239 161.332C81.7382 165.338 92.1125 169.375 101.558 175.133C103.74 176.461 105.875 177.884 108.156 179.037C114.695 182.337 122.516 183.485 127.811 188.544C128.924 189.604 129.899 190.823 131.15 191.714C132.23 192.435 133.412 192.99 134.656 193.36C138.637 194.666 142.85 195.104 147.014 194.646C148.104 194.524 149.219 194.331 150.154 193.765C152.67 192.223 152.931 188.734 152.91 185.782C152.902 184.783 152.806 183.613 151.967 183.076C151.514 182.787 150.95 182.758 150.414 182.728C141.703 182.223 133.379 178.878 125.726 174.682C118.073 170.487 110.937 165.412 103.369 161.065C100.709 159.537 97.9972 158.1 95.2857 156.662L86.5111 152.011C81.8698 149.551 76.9886 147.026 71.7334 146.997C71.4326 146.975 71.1309 147.025 70.8536 147.144C70.4143 147.367 70.2074 147.866 70.0275 148.322C68.7959 151.446 67.2044 154.33 65.6069 157.268C64.7514 158.839 64.6763 159.231 66.4804 159.847C68.1049 160.404 69.7977 160.701 71.4239 161.332Z" fill="#FBBEBE"/>
<path d="M98.8555 241.566C98.9677 241.554 99.0709 241.499 99.1424 241.412C99.2139 241.325 99.2478 241.213 99.2367 241.101C99.2256 240.988 99.1704 240.885 99.0832 240.814C98.996 240.742 98.8839 240.708 98.7717 240.719C98.6595 240.731 98.5563 240.786 98.4848 240.873C98.4133 240.96 98.3794 241.072 98.3905 241.184C98.4016 241.297 98.4569 241.4 98.5441 241.471C98.6313 241.543 98.7433 241.577 98.8555 241.566Z" fill="black"/>
<path d="M90.8207 128.949C105.721 127.474 116.604 114.199 115.129 99.2984C113.653 84.3982 100.378 73.5152 85.4782 74.9906C70.578 76.4659 59.695 89.7408 61.1703 104.641C62.6456 119.541 75.9206 130.424 90.8207 128.949Z" fill="#FBBEBE"/>
<path d="M67.9863 114.59C68.2259 112.12 70.8858 110.62 73.332 110.213C75.8105 109.832 78.3455 110.111 80.6818 111.022C83.018 111.933 85.0731 113.443 86.6401 115.401C87.0607 113.832 87.2892 112.218 87.3205 110.594L91.8667 110.483C92.3782 110.511 92.8888 110.413 93.3539 110.199C93.9093 109.882 94.2094 109.26 94.4553 108.666C96.0647 104.784 96.9368 100.129 100.451 97.8182L100.953 102.895C101.949 102.597 102.862 102.075 103.623 101.368C104.384 100.661 104.973 99.7883 105.343 98.8177C105.737 100.198 106.278 101.532 106.956 102.797C107.068 103.008 107.219 103.238 107.453 103.271C107.566 103.268 107.676 103.242 107.777 103.193C107.879 103.144 107.968 103.074 108.041 102.988C109.639 101.506 111.052 99.8355 112.251 98.0142L118.53 106.775C120.852 98.6493 120.162 89.9587 116.587 82.3012C113.013 74.6438 106.794 68.5345 99.0736 65.097C97.7639 64.5058 96.41 64.018 95.0242 63.638C91.405 62.6691 87.6035 62.6211 83.858 62.7356C78.5336 62.8982 72.953 63.465 68.5613 66.4604C66.2 68.0699 64.3257 70.2835 62.523 72.5013C60.085 75.4941 57.6623 78.6421 56.5737 82.3472C55.8216 84.9054 55.7442 87.6047 55.7032 90.269C55.6777 91.8808 55.6715 93.5448 56.2779 95.0371C56.6991 96.0691 57.3889 96.9664 57.8919 97.9619C58.7279 99.6166 59.0183 101.485 59.4559 103.287C60.4254 107.27 62.1305 111.037 64.4833 114.393C64.981 115.104 65.6019 115.852 66.4642 115.96C67.3266 116.068 68.247 115.037 67.7287 114.348" fill="#192534"/>
<path d="M67.9863 114.59C68.2259 112.12 70.8858 110.62 73.332 110.213C75.8105 109.832 78.3455 110.111 80.6818 111.022C83.018 111.933 85.0731 113.443 86.6401 115.401C87.0607 113.832 87.2892 112.218 87.3205 110.594L91.8667 110.483C92.3782 110.511 92.8888 110.413 93.3539 110.199C93.9093 109.882 94.2094 109.26 94.4553 108.666C96.0647 104.784 96.9368 100.129 100.451 97.8182L100.953 102.895C101.949 102.597 102.862 102.075 103.623 101.368C104.384 100.661 104.973 99.7883 105.343 98.8177C105.737 100.198 106.278 101.532 106.956 102.797C107.068 103.008 107.219 103.238 107.453 103.271C107.566 103.268 107.676 103.242 107.777 103.193C107.879 103.144 107.968 103.074 108.041 102.988C109.639 101.506 111.052 99.8355 112.251 98.0142L118.53 106.775C120.852 98.6493 120.162 89.9587 116.587 82.3012C113.013 74.6438 106.794 68.5345 99.0736 65.097C97.7639 64.5058 96.41 64.018 95.0242 63.638C91.405 62.6691 87.6035 62.6211 83.858 62.7356C78.5336 62.8982 72.953 63.465 68.5613 66.4604C66.2 68.0699 64.3257 70.2835 62.523 72.5013C60.085 75.4941 57.6623 78.6421 56.5737 82.3472C55.8216 84.9054 55.7442 87.6047 55.7032 90.269C55.6777 91.8808 55.6715 93.5448 56.2779 95.0371C56.6991 96.0691 57.3889 96.9664 57.8919 97.9619C58.7279 99.6166 59.0183 101.485 59.4559 103.287C60.4254 107.27 62.1305 111.037 64.4833 114.393C64.981 115.104 65.6019 115.852 66.4642 115.96C67.3266 116.068 68.247 115.037 67.7287 114.348" stroke="black" stroke-width="0.283441" stroke-miterlimit="10"/>
<path d="M39.5854 143.549C40.9704 146.434 43.9075 148.194 46.6857 149.788L53.9333 153.946C55.8599 155.051 57.8392 156.2 59.1952 157.957C57.5473 158.775 56.9838 161.053 57.7177 162.74C58.4516 164.428 60.1859 165.518 61.9962 165.908C63.8065 166.299 65.6661 166.094 67.4864 165.809C69.5763 165.485 71.7512 165.013 73.3678 163.649L69.3248 161.679C68.2589 161.155 67.0069 160.277 67.2628 159.12L71.2782 158.683C71.7013 158.641 72.1591 158.576 72.4688 158.28C72.7785 157.985 72.8542 157.57 72.9572 157.172C73.4013 155.562 74.2875 154.108 75.5155 152.976C76.7434 151.844 78.264 151.078 79.9049 150.765C80.8905 150.594 82.0371 150.523 82.6493 149.716C83.0464 149.181 83.0724 148.466 83.0864 147.801C83.1118 146.534 83.1312 145.233 82.7615 144.031C82.3918 142.829 81.5547 141.681 80.3528 141.279C79.4686 140.979 78.4935 141.113 77.556 141.08C73.2439 140.937 69.9114 137.371 67.2668 133.961C64.6221 130.552 61.7727 126.772 57.5657 125.822C56.2562 125.567 54.9176 125.495 53.5884 125.609C50.6401 125.778 47.6402 126.317 45.0869 127.801C40.3277 130.565 37.1175 138.416 39.5854 143.549Z" fill="#F54298"/>
<path opacity="0.1" d="M118.057 101.751L111.778 92.991C110.58 94.8129 109.167 96.4831 107.568 97.965C107.496 98.052 107.407 98.1226 107.305 98.1719C107.204 98.2213 107.094 98.2482 106.981 98.251C106.747 98.2172 106.596 97.9872 106.484 97.7761C105.805 96.5105 105.264 95.1756 104.871 93.7945C104.501 94.7657 103.912 95.6388 103.151 96.3463C102.39 97.0538 101.476 97.5768 100.481 97.8749L99.9782 92.7978C96.4649 95.1138 95.6041 99.7677 93.9829 103.645C93.7369 104.239 93.4359 104.853 92.8814 105.178C92.4163 105.393 91.9057 105.49 91.3943 105.462L86.848 105.574C86.8167 107.197 86.5882 108.812 86.1676 110.38C84.6007 108.423 82.5456 106.913 80.2093 106.002C77.873 105.091 75.338 104.812 72.8595 105.193C70.4133 105.6 67.7534 107.1 67.5138 109.57L67.2478 109.329C67.7748 110.02 66.8487 111.051 65.9836 110.943C65.1184 110.835 64.5003 110.088 64.0027 109.376C61.6547 106.015 59.9551 102.245 58.9914 98.2602C58.5537 96.4579 58.2634 94.5897 57.4273 92.935C56.9243 91.9395 56.2345 91.0422 55.8133 90.0102C55.8097 89.9735 55.7866 89.9416 55.7745 89.9058C55.77 90.1198 55.7656 90.3339 55.764 90.5477C55.7387 92.1623 55.7323 93.8235 56.3403 95.3326C56.7615 96.3647 57.4513 97.262 57.9541 98.2547C58.7904 99.9122 59.0804 101.778 59.5184 103.583C60.4813 107.567 62.1809 111.336 64.5294 114.696C65.0271 115.407 65.6482 116.158 66.5106 116.266C67.3729 116.374 68.2934 115.343 67.7748 114.651L68.0405 114.89C68.2804 112.422 70.9401 110.92 73.3865 110.515C75.8647 110.133 78.3998 110.412 80.7362 111.322C83.0725 112.232 85.1276 113.742 86.6943 115.7C87.1154 114.132 87.344 112.519 87.375 110.896L91.921 110.782C92.4325 110.811 92.9433 110.713 93.4081 110.498C93.9635 110.181 94.2636 109.559 94.5096 108.965C96.1187 105.08 96.9911 100.428 100.505 98.1175L101.008 103.195C102.003 102.897 102.917 102.374 103.678 101.666C104.439 100.958 105.027 100.085 105.397 99.1142C105.791 100.495 106.332 101.83 107.011 103.096C107.122 103.304 107.274 103.537 107.507 103.568C107.62 103.566 107.731 103.54 107.832 103.491C107.934 103.442 108.023 103.372 108.094 103.285C109.694 101.803 111.107 100.133 112.304 98.3106L118.584 107.071C120.028 101.949 120.298 96.568 119.375 91.3273C119.461 94.8485 119.017 98.3626 118.057 101.751Z" fill="black"/>
</g>
<defs>
<clipPath id="clip0_478_644">
<rect width="310.084" height="229.978" fill="white" transform="translate(-99.5596 30.1088) rotate(-5.65459)"/>
</clipPath>
</defs>
</svg>
