<svg width="247" height="126" viewBox="0 0 247 126" fill="none" xmlns="http://www.w3.org/2000/svg">
<path id="Vector 4" d="M58.0751 61.5793C71.2651 61.5793 84.5253 61.4827 97.6808 61.1818C99.978 61.1292 100.515 61.017 97.9529 61.0069C95.4533 60.997 92.5609 61.141 90.1187 60.9751C87.6469 60.807 87.5162 58.74 87.453 58.1766C87.3455 57.2186 85.8807 56.8487 83.2639 57.636C81.1814 58.2625 80.2646 59.1102 78.0412 59.7189C76.275 60.2024 74.2952 60.6283 72.764 61.1818C70.3176 62.0661 67.8523 62.7309 64.8211 63.4396C63.7473 63.6907 61.67 64.7129 60.0336 64.2346C56.4684 63.1926 57.5854 61.2476 57.5854 59.9256C57.5854 59.2843 57.5854 58.643 57.5854 58.0017C57.5854 57.456 57.0734 57 59.4351 57C67.7368 57 79.4009 57.47 83.4271 59.862C85.0891 60.8494 85.4084 61.8494 85.4944 62.9308C85.5864 64.087 86.4525 65.1502 87.3442 66.2698C88.1664 67.3023 88.8505 68.278 92.6757 68.6231C95.0503 68.8373 100.364 69.2082 102.849 68.8139C104.536 68.5462 105.264 68.0016 106.277 67.5577C108.356 66.646 110.698 65.7887 112.669 64.8547C114.411 64.0293 117.81 62.6917 117.81 61.6588C117.81 61.0142 117.095 60.4852 116.858 59.862C116.506 58.9372 120.499 58.6625 122.87 58.4469C127.576 58.0189 130.942 58.969 131.955 60.3231C133.592 62.5105 132.989 65.0498 132.989 67.2874C132.989 68.1081 132.101 69.3353 135.899 69.434C140.326 69.549 145.042 69.4903 149.473 69.434C152.006 69.4018 155.255 69.35 157.47 68.9252C161.417 68.1682 162.861 67.2753 164.624 66.0075C166.116 64.9352 169.2 63.3178 166.991 62.1437C165.742 61.4798 159.536 60.0602 161.061 60.673C163.145 61.5106 167.722 61.5339 169.956 62.4379C171.923 63.2339 173.318 64.0633 174.335 64.9978C175.039 65.6442 176.619 66.4444 178.28 66.9297C180.487 67.5749 182.913 67.4464 185.842 67.4464C188.504 67.4464 187.338 66.1084 187.338 65.5384C187.338 64.4807 186.44 64.0357 183.91 63.2965" stroke="#00EAD3" stroke-width="83.8233" stroke-linecap="square" stroke-dasharray="223.53 447.06 670.59 894.12"/>
</svg>
