<svg width="1001" height="192" viewBox="0 0 1001 192" fill="none" xmlns="http://www.w3.org/2000/svg">
<g clip-path="url(#clip0_297_1459)">
<g clip-path="url(#clip1_297_1459)">
<g clip-path="url(#clip2_297_1459)">
<g clip-path="url(#clip3_297_1459)">
<path d="M249.815 12.9886C249.815 7.49883 247.772 3.04852 245.251 3.04852C242.731 3.04852 240.688 7.49883 240.688 12.9886V177.975C240.688 183.465 242.731 187.915 245.251 187.915C247.772 187.915 249.815 183.465 249.815 177.975V12.9886Z" fill="#00E8D1"/>
<g clip-path="url(#clip4_297_1459)">
<g clip-path="url(#clip5_297_1459)">
<g clip-path="url(#clip6_297_1459)">
<g clip-path="url(#clip7_297_1459)">
<path d="M273.71 4.27899H356.269V23.4084H326.208V103.953H303.771V23.4084H273.71V4.27899ZM370.652 103.953V4.27899H393.089V103.953H370.652ZM501.825 103.953H482.983C476.559 92.5429 469.607 81.2762 462.128 70.1533C454.649 59.0304 446.69 48.5308 438.252 38.6544V103.953H416.102V4.27899H434.368C437.533 7.44326 441.033 11.3267 444.868 15.9293C448.704 20.5318 452.606 25.4412 456.576 30.6575C460.565 35.8929 464.525 41.3105 468.456 46.9103C472.388 52.5293 476.079 57.9277 479.531 63.1056V4.27899H501.825V103.953ZM561.342 45.2706C565.369 38.4627 569.205 31.6547 572.848 24.8467C576.492 18.0388 579.848 11.1828 582.916 4.27899H607.655C602.19 15.0183 596.532 25.4221 590.683 35.4902C584.834 45.5583 578.65 55.6744 572.129 65.8384V103.953H549.692V66.126C543.171 55.962 536.967 45.798 531.08 35.634C525.173 25.47 519.487 15.0183 514.022 4.27899H540.055C543.123 11.1828 546.431 18.0388 549.979 24.8467C553.527 31.6547 557.315 38.4627 561.342 45.2706Z" fill="#00E8D1"/>
<path d="M645.051 4.27899H727.609V23.4084H697.549V103.953H675.111V23.4084H645.051V4.27899ZM832.749 103.953H808.73C807.675 100.501 806.496 96.9537 805.191 93.31C803.907 89.6663 802.641 86.0226 801.394 82.3789H762.56C761.314 86.0226 760.038 89.6663 758.734 93.31C757.449 96.9537 756.28 100.501 755.225 103.953H731.924C735.664 93.2141 739.212 83.2898 742.568 74.1805C745.924 65.0713 749.203 56.4894 752.406 48.4349C755.628 40.3804 758.792 32.7286 761.899 25.4796C765.024 18.2497 768.265 11.1828 771.621 4.27899H793.052C796.312 11.1828 799.525 18.2497 802.689 25.4796C805.853 32.7286 809.037 40.3804 812.239 48.4349C815.461 56.4894 818.75 65.0713 822.106 74.1805C825.462 83.2898 829.01 93.2141 832.749 103.953ZM781.833 26.8604C781.354 28.2987 780.635 30.2643 779.676 32.7574C778.717 35.2505 777.614 38.1271 776.368 41.3872C775.121 44.6474 773.75 48.2431 772.254 52.1745C770.778 56.1059 769.272 60.229 767.738 64.5439H796.073C794.538 60.229 793.052 56.1059 791.614 52.1745C790.176 48.2431 788.804 44.6474 787.5 41.3872C786.215 38.1271 785.094 35.2505 784.135 32.7574C783.176 30.2643 782.409 28.2987 781.833 26.8604ZM868.103 84.6802H912.259V103.953H845.665V4.27899H868.103V84.6802ZM997.263 103.953H926.642V4.27899H993.954V23.1208H949.079V42.6817H988.92V61.092H949.079V85.1117H997.263V103.953Z" fill="#004069"/>
</g>
</g>
<g clip-path="url(#clip8_297_1459)">
<g clip-path="url(#clip9_297_1459)">
<path d="M289.17 173.147H273.733V172.197L278.483 169.822V137.287L273.733 134.912V133.962H302.172V144.174H301.222L297.541 137.227H283.826V151.298H293.326L296.294 146.37H297.244V159.373H296.294L293.326 154.564H283.826V169.822L289.17 172.197V173.147ZM322.358 173.74C319.746 173.74 317.458 173.127 315.495 171.9C313.54 170.673 312.016 169.011 310.923 166.913C309.839 164.815 309.296 162.44 309.296 159.788C309.296 157.136 309.839 154.762 310.923 152.664C312.016 150.566 313.54 148.904 315.495 147.677C317.458 146.45 319.746 145.836 322.358 145.836C324.97 145.836 327.254 146.45 329.209 147.677C331.173 148.904 332.696 150.566 333.781 152.664C334.873 154.762 335.42 157.136 335.42 159.788C335.42 162.44 334.873 164.815 333.781 166.913C332.696 169.011 331.173 170.673 329.209 171.9C327.254 173.127 324.97 173.74 322.358 173.74ZM323.189 171.187C324.772 171.187 326.079 170.693 327.108 169.703C328.137 168.714 328.889 167.435 329.364 165.868C329.839 164.308 330.076 162.678 330.076 160.976C330.076 158.878 329.787 156.859 329.209 154.92C328.639 152.98 327.729 151.397 326.478 150.17C325.236 148.943 323.625 148.33 321.646 148.33C320.023 148.33 318.697 148.824 317.668 149.814C316.639 150.803 315.875 152.07 315.376 153.614C314.885 155.157 314.64 156.8 314.64 158.541C314.64 160.639 314.937 162.658 315.53 164.597C316.124 166.537 317.054 168.12 318.321 169.347C319.587 170.574 321.21 171.187 323.189 171.187ZM354.181 173.147H341.475V172.197L345.216 170.297V152.604L341.654 149.517V149.102L349.016 145.836H349.372L349.906 150.883H350.144C351.054 149.418 351.893 148.318 352.661 147.582C353.437 146.853 354.161 146.378 354.834 146.157C355.507 145.943 356.18 145.836 356.852 145.836C357.169 145.836 357.533 145.895 357.945 146.014C358.364 146.133 358.713 146.252 358.99 146.37C359.425 146.568 359.829 146.806 360.201 147.083C360.581 147.36 360.771 147.677 360.771 148.033C360.771 148.389 360.692 148.745 360.533 149.102L359.346 152.011H358.93L356.674 151.12C356.239 150.922 355.812 150.803 355.392 150.764C354.98 150.724 354.577 150.705 354.181 150.705C352.518 150.705 351.113 151.556 349.965 153.257V170.297L354.181 172.197V173.147ZM392.344 173.147H379.639V172.197L383.379 170.297V135.387L379.817 132.3V131.884L387.773 128.619H388.129V158.007L397.688 149.873V149.517L394.779 147.38V146.43H406.059V147.38L402.259 149.458L392.463 156.998L404.456 170.178L408.256 172.197V173.147H400.419L398.163 170.059L388.129 158.898V170.475L392.344 172.197V173.147ZM419.061 138.652C418.032 138.652 417.181 138.304 416.508 137.607C415.835 136.919 415.499 136.08 415.499 135.09C415.499 134.061 415.835 133.21 416.508 132.537C417.181 131.864 418.032 131.528 419.061 131.528C420.09 131.528 420.941 131.864 421.614 132.537C422.287 133.21 422.623 134.061 422.623 135.09C422.623 136.08 422.287 136.919 421.614 137.607C420.941 138.304 420.09 138.652 419.061 138.652ZM425.354 173.147H413.124V172.197L416.864 170.297V152.604L413.302 149.517V149.102L421.258 145.836H421.614V170.297L425.354 172.197V173.147ZM441.444 173.74C439.465 173.74 437.692 173.246 436.124 172.256C434.565 171.267 433.338 169.869 432.443 168.065C431.557 166.268 431.113 164.122 431.113 161.629C431.113 158.264 431.767 155.403 433.073 153.044C434.379 150.693 436.12 148.904 438.297 147.677C440.474 146.45 442.849 145.836 445.422 145.836C446.53 145.836 447.5 145.884 448.331 145.979C449.162 146.082 449.914 146.212 450.587 146.37V135.387L446.728 132.3V131.884L454.981 128.619H455.337V170.475L459.552 172.197V173.147H451.181L450.706 170.119H450.29C448.786 171.385 447.33 172.304 445.921 172.874C444.519 173.451 443.027 173.74 441.444 173.74ZM435.863 160.263C435.863 163.548 436.734 165.931 438.475 167.411C440.217 168.9 442.295 169.644 444.709 169.644C445.659 169.644 446.637 169.493 447.642 169.193C448.656 168.9 449.637 168.456 450.587 167.863V151.239C449.637 150.408 448.695 149.782 447.761 149.363C446.835 148.951 445.798 148.745 444.65 148.745C443.067 148.745 441.61 149.129 440.28 149.897C438.958 150.673 437.89 151.9 437.074 153.578C436.267 155.264 435.863 157.493 435.863 160.263ZM474.324 173.74C472.463 173.74 470.86 173.582 469.514 173.265C468.169 172.949 466.803 172.434 465.418 171.722V165.072H466.249L468.149 168.338C469.376 170.515 471.375 171.603 474.145 171.603C475.729 171.603 476.967 171.227 477.862 170.475C478.749 169.723 479.192 168.694 479.192 167.388C479.192 166.24 478.915 165.349 478.361 164.716C477.807 164.083 477.027 163.517 476.022 163.018C475.008 162.527 473.809 161.965 472.424 161.332C470.405 160.422 468.853 159.42 467.769 158.328C466.677 157.243 466.13 155.711 466.13 153.732C466.13 152.268 466.546 150.942 467.377 149.755C468.208 148.567 469.269 147.617 470.559 146.905C471.842 146.192 473.176 145.836 474.561 145.836C476.025 145.836 477.371 146.014 478.598 146.37C479.825 146.727 481.072 147.221 482.339 147.855V154.326H481.507L479.548 151.179C478.875 150.111 478.143 149.339 477.351 148.864C476.56 148.389 475.709 148.152 474.798 148.152C473.453 148.152 472.376 148.488 471.569 149.161C470.753 149.834 470.346 150.764 470.346 151.951C470.346 153.297 470.833 154.314 471.806 155.003C472.772 155.7 474.185 156.483 476.045 157.354C477.154 157.908 478.274 158.462 479.406 159.016C480.53 159.571 481.46 160.35 482.196 161.356C482.924 162.369 483.288 163.806 483.288 165.666C483.288 167.408 482.814 168.88 481.864 170.083C480.914 171.294 479.746 172.205 478.361 172.814C476.975 173.432 475.63 173.74 474.324 173.74ZM490.947 185.318V184.071C492.61 183.2 493.817 182.211 494.569 181.102C495.321 179.994 495.697 178.826 495.697 177.599C495.697 176.491 495.452 175.573 494.961 174.845C494.462 174.108 493.718 173.483 492.728 172.969L490.71 171.9L490.532 171.306L492.253 168.338C492.531 167.902 492.768 167.574 492.966 167.352C493.164 167.138 493.421 167.031 493.738 167.031C494.054 167.031 494.549 167.21 495.222 167.566C496.449 168.278 497.411 169.268 498.107 170.534C498.796 171.801 499.141 173.166 499.141 174.631C499.141 176.729 498.507 178.688 497.241 180.509C495.974 182.329 493.876 183.932 490.947 185.318ZM523.483 173.74H523.126V135.387L519.564 132.3V131.884L527.52 128.619H527.876V149.517H528.113C529.617 148.251 531.07 147.32 532.471 146.727C533.88 146.133 535.396 145.836 537.019 145.836C539.038 145.836 540.819 146.351 542.362 147.38C543.906 148.409 545.121 149.861 546.008 151.738C546.902 153.622 547.35 155.87 547.35 158.482C547.35 161.728 546.736 164.486 545.509 166.758C544.282 169.038 542.62 170.772 540.522 171.959C538.424 173.147 536.069 173.74 533.457 173.74C531.834 173.74 530.318 173.594 528.909 173.301C527.508 173 526.194 172.632 524.967 172.197L523.483 173.74ZM533.754 149.933C532.804 149.933 531.822 150.079 530.809 150.372C529.804 150.673 528.826 151.12 527.876 151.714V168.456C528.984 169.327 530.1 169.949 531.224 170.321C532.356 170.701 533.615 170.891 535 170.891C536.386 170.891 537.652 170.522 538.8 169.786C539.948 169.058 540.866 167.882 541.555 166.26C542.252 164.637 542.6 162.5 542.6 159.848C542.6 156.404 541.737 153.891 540.011 152.308C538.294 150.724 536.208 149.933 533.754 149.933ZM555.175 187.455C554.264 187.455 553.702 187.328 553.489 187.075C553.267 186.814 553.156 186.367 553.156 185.733V182.765L553.394 182.527H556.125C557.114 182.527 557.866 182.44 558.381 182.266C558.895 182.084 559.37 181.629 559.806 180.9C560.241 180.164 560.854 178.965 561.646 177.303L563.724 172.672L552.859 149.22L548.881 147.38V146.43H563.071V147.38L558.203 149.22V149.517L566.099 166.735H566.277L572.927 149.873V149.517L568.474 147.38V146.43H580.11V147.38L575.658 149.398L563.962 177.837C563.605 178.747 563.301 179.511 563.047 180.129C562.786 180.738 562.497 181.332 562.18 181.91C561.864 182.48 561.409 183.18 560.815 184.012C560.023 185.159 559.133 186.022 558.143 186.6C557.154 187.17 556.164 187.455 555.175 187.455ZM598.515 187.455C597.605 187.455 597.039 187.328 596.817 187.075C596.604 186.814 596.497 186.367 596.497 185.733V182.765L596.734 182.527H599.465C600.455 182.527 601.207 182.44 601.721 182.266C602.236 182.084 602.711 181.629 603.146 180.9C603.582 180.164 604.195 178.965 604.987 177.303L607.065 172.672L596.2 149.22L592.222 147.38V146.43H606.412V147.38L601.543 149.22V149.517L609.44 166.735H609.618L616.267 149.873V149.517L611.814 147.38V146.43H623.451V147.38L618.998 149.398L607.302 177.837C606.946 178.747 606.637 179.511 606.376 180.129C606.123 180.738 605.838 181.332 605.521 181.91C605.204 182.48 604.749 183.18 604.156 184.012C603.364 185.159 602.473 186.022 601.484 186.6C600.494 187.17 599.505 187.455 598.515 187.455ZM638.116 173.74C635.503 173.74 633.216 173.127 631.252 171.9C629.297 170.673 627.773 169.011 626.681 166.913C625.596 164.815 625.054 162.44 625.054 159.788C625.054 157.136 625.596 154.762 626.681 152.664C627.773 150.566 629.297 148.904 631.252 147.677C633.216 146.45 635.503 145.836 638.116 145.836C640.728 145.836 643.012 146.45 644.967 147.677C646.93 148.904 648.454 150.566 649.539 152.664C650.631 154.762 651.177 157.136 651.177 159.788C651.177 162.44 650.631 164.815 649.539 166.913C648.454 169.011 646.93 170.673 644.967 171.9C643.012 173.127 640.728 173.74 638.116 173.74ZM638.947 171.187C640.53 171.187 641.836 170.693 642.865 169.703C643.894 168.714 644.646 167.435 645.121 165.868C645.596 164.308 645.834 162.678 645.834 160.976C645.834 158.878 645.545 156.859 644.967 154.92C644.397 152.98 643.487 151.397 642.236 150.17C640.993 148.943 639.382 148.33 637.403 148.33C635.78 148.33 634.454 148.824 633.425 149.814C632.396 150.803 631.632 152.07 631.134 153.614C630.643 155.157 630.397 156.8 630.397 158.541C630.397 160.639 630.694 162.658 631.288 164.597C631.882 166.537 632.812 168.12 634.078 169.347C635.345 170.574 636.968 171.187 638.947 171.187ZM667.492 173.74C665.157 173.74 663.249 173.155 661.769 171.983C660.281 170.819 659.537 169.09 659.537 166.794V149.22L655.796 147.38V146.43H664.286V164.004C664.286 165.745 664.832 167.071 665.925 167.981C667.009 168.892 668.422 169.347 670.164 169.347C671.233 169.347 672.412 169.169 673.702 168.813C674.985 168.456 676.002 167.942 676.754 167.269V149.22L672.539 147.38V146.43H681.504V170.475L685.719 172.197V173.147H676.754V169.406H676.457C674.953 170.91 673.501 172.007 672.099 172.695C670.69 173.392 669.155 173.74 667.492 173.74ZM695.456 161.273H694.269L691.597 133.962H698.128L695.456 161.273ZM694.862 173.444C693.873 173.444 693.022 173.075 692.309 172.339C691.597 171.611 691.241 170.772 691.241 169.822C691.241 168.832 691.597 167.981 692.309 167.269C693.022 166.557 693.873 166.2 694.862 166.2C695.812 166.2 696.655 166.557 697.391 167.269C698.12 167.981 698.484 168.832 698.484 169.822C698.484 170.772 698.12 171.611 697.391 172.339C696.655 173.075 695.812 173.444 694.862 173.444Z" fill="#004069"/>
</g>
</g>
</g>
</g>
<g clip-path="url(#clip10_297_1459)">
<g clip-path="url(#clip11_297_1459)">
<path d="M110.025 190.812C198.678 190.812 215.578 164.348 216.249 163.224C216.844 162.232 216.959 161.023 216.554 159.937C216.158 158.854 215.281 158.011 214.186 157.641L154.59 137.774L151.528 119.398C151.528 119.387 151.524 119.379 151.524 119.372L144.672 78.2655C144.538 77.4685 144.153 76.7326 143.577 76.1682L66.9321 1.23881C65.5861 -0.0767465 63.4888 -0.214022 61.9826 0.910873L9.9324 39.8055C8.44907 40.9152 7.97623 42.9247 8.80751 44.5758C9.6426 46.2308 11.5492 47.0354 13.3109 46.5129L61.1361 32.1639L75.2335 79.1425L68.5413 119.284C68.5337 119.315 68.5299 119.345 68.526 119.376L65.4602 137.778L5.86372 157.645C4.76933 158.011 3.89229 158.854 3.49572 159.94C3.09534 161.027 3.20592 162.236 3.80078 163.227C4.4719 164.348 21.372 190.812 110.025 190.812ZM75.0733 126.491L77.4985 128.108C79.6453 129.378 91.2947 135.711 110.025 135.711C130.883 135.711 142.834 127.906 142.937 127.837L144.977 126.491L147.009 138.689C142.193 141.267 129.114 147.151 110.021 147.151C91.0392 147.151 77.876 141.252 73.0371 138.682L75.0733 126.491ZM67.3478 26.3182C66.7415 24.301 64.6251 23.1609 62.6003 23.7634L31.763 33.0142L63.9388 8.97198L137.358 80.7479L143.612 118.254L138.758 121.454C138.647 121.526 128.142 128.085 110.025 128.085C92.9267 128.085 82.5129 122.213 81.5214 121.637L76.4461 118.243L82.898 79.5238C82.9933 78.948 82.959 78.357 82.7912 77.8003L67.3478 26.3182ZM68.3811 144.84C73.1667 147.555 87.9657 154.777 110.025 154.777C132.084 154.777 146.883 147.555 151.669 144.844L205.984 162.949C197.611 169.637 172.87 183.186 110.025 183.186C47.0844 183.186 22.4054 169.641 14.0583 162.949L68.3811 144.84Z" fill="#00E8D1"/>
</g>
</g>
</g>
</g>
</g>
</g>
<defs>
<clipPath id="clip0_297_1459">
<rect width="1000" height="191" fill="white" transform="translate(0.867188 0.151367)"/>
</clipPath>
<clipPath id="clip1_297_1459">
<rect width="1000" height="191" fill="white" transform="translate(0.260742 -0.01828)"/>
</clipPath>
<clipPath id="clip2_297_1459">
<rect width="994.004" height="190.661" fill="white" transform="translate(3.25879 0.151367)"/>
</clipPath>
<clipPath id="clip3_297_1459">
<rect width="994.004" height="190.661" fill="white" transform="translate(3.25879 0.151367)"/>
</clipPath>
<clipPath id="clip4_297_1459">
<rect width="723.553" height="183.947" fill="white" transform="translate(273.71 3.50839)"/>
</clipPath>
<clipPath id="clip5_297_1459">
<rect width="723.553" height="183.947" fill="white" transform="translate(273.71 3.50839)"/>
</clipPath>
<clipPath id="clip6_297_1459">
<rect width="723.553" height="101.216" fill="white" transform="translate(273.71 3.50839)"/>
</clipPath>
<clipPath id="clip7_297_1459">
<rect width="723.553" height="101.216" fill="white" transform="translate(273.71 3.50839)"/>
</clipPath>
<clipPath id="clip8_297_1459">
<rect width="424.798" height="58.8364" fill="white" transform="translate(273.71 128.619)"/>
</clipPath>
<clipPath id="clip9_297_1459">
<rect width="424.798" height="58.8364" fill="white" transform="translate(273.71 128.619)"/>
</clipPath>
<clipPath id="clip10_297_1459">
<rect width="213.534" height="190.661" fill="white" transform="translate(3.25879 0.151367)"/>
</clipPath>
<clipPath id="clip11_297_1459">
<rect width="213.534" height="190.661" fill="white" transform="translate(3.25879 0.151367)"/>
</clipPath>
</defs>
</svg>
