<svg width="94" height="72" viewBox="0 0 94 72" fill="none" xmlns="http://www.w3.org/2000/svg">
<path d="M27.7167 33.9814C27.7997 34.0047 27.3356 33.4771 27.1919 33.291C26.6829 32.6321 25.9737 31.7964 25.5617 31.0313C25.4366 30.7991 25.6128 30.2321 25.6604 29.9607C25.7987 29.1705 25.3426 28.5961 25.0903 27.9617C24.4527 26.3588 25.0893 28.1264 25.1316 29.1087C25.182 30.2804 25.1402 31.4524 25.2682 32.615C25.2868 32.7843 25.2277 34.0726 25.2841 34.1375C26.2478 35.2468 27.7733 31.767 28.1445 30.8928C29.0695 28.7148 30.1808 27.7847 31.8012 27.5262C32.2556 27.4537 32.592 27.0225 33.0215 26.9186C33.3302 26.8438 33.5268 27.0782 33.7794 27.2918C34.9524 28.2841 36.1548 29.2033 37.3477 30.1452C38.7035 31.2157 39.4764 31.8844 39.9739 34.0915C40.362 35.8127 41.0789 37.7442 40.9776 39.6061C40.9329 40.4294 40.7849 41.0346 41.4697 40.9908C42.7353 40.9098 44.322 40.6428 45.0342 38.7954C45.9036 36.5404 46.3073 34.0146 46.7371 31.5602C46.961 30.2815 47.0498 29.1848 47.8492 28.528C48.1971 28.2422 50.0703 33.1746 50.0572 34.3562C50.0334 36.4928 49.2134 38.5586 49.2033 40.7067C49.1933 42.8594 51.2104 42.8007 52.2175 43.0835C52.5626 43.1805 52.9603 43.2099 53.1953 43.6297C53.4015 43.9981 53.5071 44.9482 53.9396 44.357C54.4929 43.6008 54.8102 42.4661 55.1635 41.5166C55.5894 40.3721 56.1597 39.3676 56.5948 38.2285C57.085 36.9456 57.1621 35.4922 57.6256 34.1861C58.9704 30.397 61.79 29.2009 64.378 28.6282C65.9155 28.2879 68.2322 27.8568 69.1707 29.9742C69.8598 31.5287 70.3728 32.9338 70.4206 34.8668" stroke="white" stroke-width="36.8383" stroke-linecap="square" stroke-dasharray="98.24 196.47 294.71 392.94"/>
</svg>
