<svg width="53" height="54" viewBox="0 0 53 54" fill="none" xmlns="http://www.w3.org/2000/svg">
<g id="pepicons-pop:plus" filter="url(#filter0_ddd_341_2404)">
<rect x="14.4004" y="11.8862" width="24" height="24" rx="5" fill="white"/>
<g id="Group">
<path id="Vector" d="M21.202 24.8587C20.8837 24.8587 20.5785 24.7323 20.3534 24.5073C20.1284 24.2822 20.002 23.977 20.002 23.6587C20.002 23.3405 20.1284 23.0353 20.3534 22.8102C20.5785 22.5852 20.8837 22.4587 21.202 22.4587H33.202C33.5202 22.4587 33.8254 22.5852 34.0505 22.8102C34.2755 23.0353 34.402 23.3405 34.402 23.6587C34.402 23.977 34.2755 24.2822 34.0505 24.5073C33.8254 24.7323 33.5202 24.8587 33.202 24.8587H21.202Z" fill="black"/>
<path id="Vector_2" d="M26.002 17.6587C26.002 17.3405 26.1284 17.0353 26.3534 16.8102C26.5785 16.5852 26.8837 16.4587 27.202 16.4587C27.5202 16.4587 27.8254 16.5852 28.0505 16.8102C28.2755 17.0353 28.402 17.3405 28.402 17.6587V29.6587C28.402 29.977 28.2755 30.2822 28.0505 30.5073C27.8254 30.7323 27.5202 30.8587 27.202 30.8587C26.8837 30.8587 26.5785 30.7323 26.3534 30.5073C26.1284 30.2822 26.002 29.977 26.002 29.6587V17.6587Z" fill="black"/>
</g>
</g>
<defs>
<filter id="filter0_ddd_341_2404" x="0.400391" y="0.88623" width="52" height="53" filterUnits="userSpaceOnUse" color-interpolation-filters="sRGB">
<feFlood flood-opacity="0" result="BackgroundImageFix"/>
<feColorMatrix in="SourceAlpha" type="matrix" values="0 0 0 0 0 0 0 0 0 0 0 0 0 0 0 0 0 0 127 0" result="hardAlpha"/>
<feOffset dy="5"/>
<feGaussianBlur stdDeviation="2.5"/>
<feColorMatrix type="matrix" values="0 0 0 0 0.0068 0 0 0 0 0.0102133 0 0 0 0 0.0132 0 0 0 0.04 0"/>
<feBlend mode="normal" in2="BackgroundImageFix" result="effect1_dropShadow_341_2404"/>
<feColorMatrix in="SourceAlpha" type="matrix" values="0 0 0 0 0 0 0 0 0 0 0 0 0 0 0 0 0 0 127 0" result="hardAlpha"/>
<feOffset dy="3"/>
<feGaussianBlur stdDeviation="7"/>
<feColorMatrix type="matrix" values="0 0 0 0 0.0068 0 0 0 0 0.0102133 0 0 0 0 0.0132 0 0 0 0.02 0"/>
<feBlend mode="normal" in2="effect1_dropShadow_341_2404" result="effect2_dropShadow_341_2404"/>
<feColorMatrix in="SourceAlpha" type="matrix" values="0 0 0 0 0 0 0 0 0 0 0 0 0 0 0 0 0 0 127 0" result="hardAlpha"/>
<feOffset dy="8"/>
<feGaussianBlur stdDeviation="5"/>
<feColorMatrix type="matrix" values="0 0 0 0 0.0068 0 0 0 0 0.0102325 0 0 0 0 0.0132 0 0 0 0.03 0"/>
<feBlend mode="normal" in2="effect2_dropShadow_341_2404" result="effect3_dropShadow_341_2404"/>
<feBlend mode="normal" in="SourceGraphic" in2="effect3_dropShadow_341_2404" result="shape"/>
</filter>
</defs>
</svg>
