<svg width="432" height="268" viewBox="0 0 432 268" fill="none" xmlns="http://www.w3.org/2000/svg">
<path d="M137.045 138.508C143.041 138.508 149.795 140.085 155.753 137.73C162.69 134.988 170.759 132.877 177.814 136.063C180.642 137.341 183.379 139.423 185.167 144.008C186.057 146.289 186.958 150.075 188.844 149.397C193.523 147.713 197.626 142.05 202.11 139.119C203.692 138.084 205.275 136.508 206.934 136.508C209.337 136.508 211.268 140.216 213.64 140.508C217.124 140.937 219.496 145.796 222.7 146.508C224.311 146.866 225.965 147.508 227.582 147.508C229.365 147.508 233.909 145.169 234.73 141.897C235.449 139.029 237.806 122.793 239.995 125.73C244.129 131.277 247.709 140.508 253.29 140.508C255.305 140.508 257.592 140.828 259.114 137.952C260.422 135.483 262.575 125.819 264.997 129.174C267.206 132.234 268.5 135.02 271.233 136.397C273.665 137.622 275.667 138.868 277.763 141.508C282.155 147.039 282.036 124.814 283.293 120.73C284.94 115.378 286.557 116.272 289.705 117.508C291.153 118.076 294.901 118.837 295.912 121.063C297.202 123.906 299.685 123.904 300.912 127.508C302.469 132.082 305.342 133.713 307.001 138.063C309.058 143.46 309.99 142.508 313.472 142.508C316.902 142.508 316.879 141.295 319.061 137.174C319.811 135.757 321.918 136.508 322.884 136.508C324.758 136.508 325.584 135.764 327.12 133.508C328.58 131.363 329.735 129.347 330.532 126.119C330.967 124.359 330.826 132.699 330.826 134.508" stroke="#00EAD3" stroke-width="150" stroke-linecap="square" stroke-dasharray="400 800 1200 1600"/>
<path d="M119.848 152.112C120.166 152.112 118.138 150.978 117.495 150.562C115.22 149.089 112.102 147.271 110.112 145.417C109.508 144.854 109.789 143.094 109.789 142.281C109.789 139.914 107.76 138.64 106.436 137.03C103.089 132.965 106.537 137.501 107.318 140.272C108.25 143.577 108.845 146.957 110.054 150.174C110.229 150.643 110.836 154.368 111.083 154.509C115.303 156.903 118.642 145.744 119.437 142.95C121.417 135.99 124.874 132.443 130.614 130.406C132.224 129.834 133.174 128.333 134.673 127.692C135.751 127.231 136.617 127.743 137.673 128.15C142.582 130.043 147.55 131.703 152.498 133.436C158.122 135.406 161.366 136.695 164.587 142.598C167.1 147.201 170.945 152.141 171.765 157.539C172.127 159.926 171.974 161.772 174.441 161.098C179.002 159.852 184.614 157.817 186.03 151.971C187.76 144.836 187.619 137.3 187.619 129.947C187.619 126.117 187.242 122.914 189.737 120.398C190.822 119.303 200.796 131.884 201.502 135.268C202.779 141.388 201.109 147.944 202.444 154.086C203.781 160.24 211.094 158.455 214.945 158.455C216.264 158.455 217.732 158.22 218.857 159.231C219.843 160.117 220.834 162.745 222.033 160.711C223.567 158.108 223.999 154.613 224.681 151.619C225.502 148.01 226.94 144.684 227.799 141.083C228.766 137.027 228.119 132.815 228.975 128.714C231.458 116.817 240.97 111.141 250.036 107.43C255.422 105.226 263.589 102.137 268.361 107.43C271.864 111.316 274.63 114.917 276.038 120.398" stroke="#00EAD3" stroke-width="150" stroke-linecap="square" stroke-dasharray="400 800 1200 1600"/>
</svg>
