<svg width="304" height="43" viewBox="0 0 304 43" fill="none" xmlns="http://www.w3.org/2000/svg">
<g clip-path="url(#clip0_341_2368)">
<path d="M0.279297 0.728882H34.8588V8.74121H22.268V42.4773H12.8701V8.74121H0.279297V0.728882ZM40.8831 42.4773V0.728882H50.2811V42.4773H40.8831ZM95.8248 42.4773H87.933C85.2421 37.698 82.3304 32.979 79.1977 28.3202C76.0651 23.6614 72.7317 19.2637 69.1974 15.127V42.4773H59.92V0.728882H67.5708C68.8962 2.05423 70.3621 3.68079 71.9686 5.60857C73.5751 7.53635 75.2096 9.59265 76.8724 11.7775C78.5431 13.9703 80.2018 16.2395 81.8484 18.5849C83.4951 20.9384 85.0413 23.1995 86.4872 25.3683V0.728882H95.8248V42.4773ZM120.753 17.8982C122.44 15.0467 124.047 12.1951 125.573 9.34364C127.099 6.49214 128.505 3.62055 129.79 0.728882H140.152C137.862 5.22703 135.493 9.58462 133.043 13.8016C130.593 18.0186 128.003 22.2557 125.272 26.5129V42.4773H115.874V26.6334C113.143 22.3762 110.544 18.119 108.078 13.8619C105.604 9.6047 103.223 5.22703 100.933 0.728882H111.837C113.123 3.62055 114.508 6.49214 115.994 9.34364C117.48 12.1951 119.067 15.0467 120.753 17.8982Z" fill="#00E8D1"/>
<path d="M155.814 0.728882H190.394V8.74121H177.803V42.4773H168.405V8.74121H155.814V0.728882ZM234.432 42.4773H224.371C223.929 41.0315 223.435 39.5455 222.889 38.0193C222.351 36.4932 221.821 34.967 221.299 33.4409H205.033C204.511 34.967 203.977 36.4932 203.431 38.0193C202.892 39.5455 202.402 41.0315 201.961 42.4773H192.201C193.768 37.9792 195.254 33.8224 196.659 30.007C198.065 26.1916 199.438 22.5971 200.78 19.2235C202.129 15.8499 203.455 12.645 204.756 9.60871C206.065 6.58049 207.423 3.62055 208.828 0.728882H217.805C219.17 3.62055 220.516 6.58049 221.841 9.60871C223.166 12.645 224.5 15.8499 225.841 19.2235C227.19 22.5971 228.568 26.1916 229.974 30.007C231.379 33.8224 232.865 37.9792 234.432 42.4773ZM213.106 10.187C212.905 10.7895 212.604 11.6128 212.202 12.657C211.8 13.7012 211.339 14.9061 210.816 16.2716C210.294 17.6371 209.72 19.1432 209.093 20.7898C208.475 22.4365 207.844 24.1634 207.202 25.9707H219.07C218.427 24.1634 217.805 22.4365 217.202 20.7898C216.6 19.1432 216.025 17.6371 215.479 16.2716C214.941 14.9061 214.471 13.7012 214.07 12.657C213.668 11.6128 213.347 10.7895 213.106 10.187ZM249.239 34.4048H267.734V42.4773H239.841V0.728882H249.239V34.4048ZM303.338 42.4773H273.758V0.728882H301.952V8.62073H283.156V16.8138H299.844V24.5249H283.156V34.5855H303.338V42.4773Z" fill="#004069"/>
</g>
<defs>
<clipPath id="clip0_341_2368">
<rect width="303.059" height="42.394" fill="white" transform="translate(0.279297 0.406128)"/>
</clipPath>
</defs>
</svg>
