<svg width="518" height="1018" viewBox="0 0 518 1018" fill="none" xmlns="http://www.w3.org/2000/svg">
<g opacity="0.2" clip-path="url(#clip0_942_819)">
<path d="M219.422 408.775C272.181 408.775 314.951 366.005 314.951 313.246C314.951 260.487 272.181 217.718 219.422 217.718C166.663 217.718 123.894 260.487 123.894 313.246C123.894 366.005 166.663 408.775 219.422 408.775Z" fill="#FF449F"/>
<path d="M214.013 665.914L219.511 313.141" stroke="#3F3D56" stroke-width="3.12258" stroke-miterlimit="10"/>
<path d="M219.51 337.646C233.044 337.646 244.015 326.675 244.015 313.141C244.015 299.607 233.044 288.636 219.51 288.636C205.976 288.636 195.005 299.607 195.005 313.141C195.005 326.675 205.976 337.646 219.51 337.646Z" fill="#3F3D56"/>
<path d="M217.955 412.927C217.955 412.927 215.628 337.589 143.735 345.221L217.955 412.927Z" fill="#3F3D56"/>
<path d="M214.115 659.179C214.115 659.179 232.123 514.653 141.225 506.234" stroke="#3F3D56" stroke-width="3.12258" stroke-miterlimit="10"/>
<path d="M141.226 530.739C154.759 530.739 165.731 519.768 165.731 506.234C165.731 492.7 154.759 481.729 141.226 481.729C127.692 481.729 116.721 492.7 116.721 506.234C116.721 519.768 127.692 530.739 141.226 530.739Z" fill="#3F3D56"/>
<path d="M424.858 196.697C477.617 196.697 520.387 153.927 520.387 101.168C520.387 48.4091 477.617 5.6394 424.858 5.6394C372.099 5.6394 329.329 48.4091 329.329 101.168C329.329 153.927 372.099 196.697 424.858 196.697Z" fill="#FF449F"/>
<path d="M424.915 679.518V101.519" stroke="#3F3D56" stroke-width="3.12258" stroke-miterlimit="10"/>
<path d="M424.915 125.75C438.449 125.75 449.42 114.779 449.42 101.245C449.42 87.7117 438.449 76.7405 424.915 76.7405C411.381 76.7405 400.41 87.7117 400.41 101.245C400.41 114.779 411.381 125.75 424.915 125.75Z" fill="#3F3D56"/>
<path d="M349.65 543.935C363.183 543.935 374.155 532.964 374.155 519.43C374.155 505.896 363.183 494.925 349.65 494.925C336.116 494.925 325.145 505.896 325.145 519.43C325.145 532.964 336.116 543.935 349.65 543.935Z" fill="#3F3D56"/>
<path d="M424.915 226.418C424.915 226.418 421.414 151.125 349.649 159.877L424.915 226.418Z" fill="#3F3D56"/>
<path d="M424.915 439.865C424.915 439.865 421.414 364.572 349.649 373.324L424.915 439.865Z" fill="#3F3D56"/>
<path d="M424.915 672.782C424.915 672.782 440.668 526.432 349.649 519.43" stroke="#3F3D56" stroke-width="3.12258" stroke-miterlimit="10"/>
<path d="M501.684 314.069C515.217 314.069 526.189 303.098 526.189 289.564C526.189 276.03 515.217 265.059 501.684 265.059C488.15 265.059 477.179 276.03 477.179 289.564C477.179 303.098 488.15 314.069 501.684 314.069Z" fill="#3F3D56"/>
<path d="M426.42 435.109C426.42 435.109 410.666 296.566 501.685 289.564" stroke="#3F3D56" stroke-width="3.12258" stroke-miterlimit="10"/>
<path d="M89.0174 68.7162C82.2239 68.7162 75.583 66.7017 69.9344 62.9274C64.2859 59.1532 59.8833 53.7887 57.2836 47.5124C54.6838 41.236 54.0036 34.3297 55.329 27.6668C56.6543 21.0038 59.9257 14.8835 64.7294 10.0798C69.5331 5.27612 75.6534 2.00476 82.3163 0.679418C88.9793 -0.645922 95.8856 0.0342962 102.162 2.63404C108.438 5.23379 113.803 9.6363 117.577 15.2849C121.351 20.9334 123.366 27.5743 123.366 34.3678C123.355 43.4744 119.733 52.2051 113.294 58.6444C106.855 65.0838 98.124 68.7059 89.0174 68.7162ZM89.0174 3.14201C82.8415 3.14201 76.8043 4.97336 71.6692 8.4045C66.5342 11.8356 62.5319 16.7124 60.1685 22.4182C57.8051 28.124 57.1867 34.4025 58.3916 40.4597C59.5964 46.5169 62.5704 52.0808 66.9374 56.4478C71.3044 60.8148 76.8683 63.7888 82.9255 64.9936C88.9827 66.1985 95.2612 65.5801 100.967 63.2167C106.673 60.8533 111.55 56.851 114.981 51.7159C118.412 46.5809 120.243 40.5437 120.243 34.3678C120.234 26.0891 116.941 18.1522 111.087 12.2983C105.233 6.44437 97.2961 3.15147 89.0174 3.14201Z" fill="#3F3D56"/>
<path d="M426.255 963.336C593.536 963.336 729.145 827.727 729.145 660.445H123.364C123.364 827.727 258.973 963.336 426.255 963.336Z" fill="#FF449F"/>
</g>
<defs>
<clipPath id="clip0_942_819">
<rect width="839.974" height="1017.96" fill="white" transform="translate(0.0234375 0.0194092)"/>
</clipPath>
</defs>
</svg>
