<svg width="666" height="889" viewBox="0 0 666 889" fill="none" xmlns="http://www.w3.org/2000/svg">
<g clip-path="url(#clip0_942_165)">
<path d="M489.081 879.288C484.444 879.288 479.759 879.214 475.16 879.07L475.265 875.731C481.868 875.936 488.606 875.994 495.24 875.902L495.286 879.245C493.221 879.273 491.153 879.287 489.081 879.288ZM515.4 878.512L515.204 875.176C521.817 874.785 528.515 874.237 535.111 873.547L535.46 876.87C528.813 877.567 522.065 878.12 515.4 878.512ZM455.064 877.992C448.396 877.481 441.657 876.811 435.035 875.998L435.443 872.681C442.015 873.486 448.701 874.152 455.319 874.658L455.064 877.992ZM555.423 874.315L554.922 871.011C561.492 870.014 568.113 868.857 574.595 867.569L575.246 870.847C568.714 872.144 562.044 873.311 555.423 874.315ZM415.121 873.093C408.533 871.976 401.884 870.693 395.357 869.276L396.067 866.008C402.543 867.415 409.141 868.689 415.679 869.795L415.121 873.093ZM594.894 866.47L594.091 863.225C600.54 861.63 607.026 859.867 613.367 857.987L614.317 861.193C607.927 863.088 601.392 864.864 594.894 866.47ZM375.793 864.554C369.331 862.835 362.828 860.945 356.465 858.932L357.472 855.745C363.787 857.742 370.24 859.617 376.651 861.322L375.793 864.554ZM633.477 855.024L632.38 851.867C638.638 849.691 644.933 847.339 651.092 844.874L652.332 847.978C646.128 850.461 639.784 852.832 633.477 855.024ZM337.368 852.405C331.092 850.099 324.777 847.61 318.601 845.008L319.898 841.926C326.028 844.508 332.294 846.978 338.522 849.268L337.368 852.405ZM670.801 840.089L669.417 837.046C675.427 834.315 681.469 831.4 687.373 828.382L688.894 831.359C682.944 834.4 676.857 837.337 670.801 840.089ZM300.2 836.756C294.167 833.881 288.112 830.824 282.204 827.667L283.779 824.719C289.643 827.851 295.651 830.886 301.638 833.739L300.2 836.756ZM706.57 821.805L704.914 818.903C710.678 815.613 716.432 812.156 722.014 808.625L723.799 811.449C718.176 815.008 712.379 818.493 706.57 821.805ZM264.65 817.763C258.913 814.35 253.167 810.751 247.573 807.066L249.413 804.275C254.963 807.932 260.665 811.503 266.36 814.89L264.65 817.763ZM740.541 800.313L738.628 797.574C744.056 793.782 749.472 789.811 754.726 785.772L756.764 788.423C751.47 792.492 746.011 796.493 740.541 800.313ZM231.008 795.605C225.612 791.686 220.222 787.581 214.986 783.4L217.072 780.788C222.268 784.936 227.617 789.011 232.972 792.899L231.008 795.605ZM772.43 775.805L770.275 773.248C775.334 768.98 780.368 764.531 785.241 760.026L787.51 762.481C782.601 767.021 777.528 771.503 772.43 775.805ZM199.541 770.48C194.515 766.079 189.523 761.502 184.702 756.874L187.017 754.461C191.802 759.055 196.756 763.598 201.743 767.966L199.541 770.48ZM801.971 748.48L799.591 746.133C804.254 741.407 808.868 736.516 813.299 731.598L815.784 733.834C811.318 738.792 806.67 743.719 801.971 748.48ZM170.502 742.61C165.892 737.762 161.338 732.751 156.968 727.716L159.493 725.526C163.83 730.522 168.348 735.495 172.925 740.305L170.502 742.61ZM828.917 718.573L826.334 716.451C830.547 711.324 834.695 706.033 838.667 700.723L841.344 702.725C837.343 708.076 833.162 713.409 828.917 718.573ZM144.129 712.227C139.988 706.995 135.911 701.593 132.011 696.172L134.724 694.22C138.595 699.599 142.641 704.959 146.75 710.154L144.129 712.227ZM853.035 686.323L850.27 684.445C853.998 678.956 857.65 673.306 861.122 667.65L863.972 669.4C860.47 675.098 856.791 680.792 853.035 686.323ZM120.641 679.587C116.998 674.003 113.433 668.257 110.044 662.505L112.923 660.807C116.288 666.515 119.826 672.219 123.441 677.759L120.641 679.587ZM874.122 651.989L871.197 650.373C874.406 644.565 877.524 638.6 880.467 632.643L883.464 634.126C880.5 640.126 877.356 646.137 874.122 651.989ZM100.241 644.96C97.1227 639.067 94.0996 633.02 91.2551 626.99L94.2783 625.564C97.1015 631.548 100.101 637.549 103.195 643.396L100.241 644.96ZM891.975 615.848L888.913 614.506C891.577 608.422 894.135 602.191 896.517 595.988L899.638 597.186C897.238 603.438 894.659 609.716 891.975 615.848ZM83.1053 608.634C80.5425 602.483 78.0882 596.191 75.811 589.929L78.9534 588.786C81.2126 595 83.6481 601.244 86.1905 607.348L83.1053 608.634ZM906.431 578.186L903.258 577.134C905.344 570.848 907.313 564.423 909.109 558.035L912.328 558.94C910.517 565.376 908.532 571.852 906.431 578.186ZM69.3713 570.859C67.3823 564.488 65.5132 557.98 63.8163 551.512L67.05 550.664C68.7338 557.082 70.589 563.541 72.5625 569.864L69.3713 570.859ZM917.328 539.443L914.071 538.685C915.568 532.242 916.936 525.662 918.139 519.131L921.426 519.735C920.215 526.318 918.836 532.947 917.328 539.443ZM59.1606 531.93C57.7665 525.401 56.5047 518.749 55.411 512.156L58.7084 511.607C59.7947 518.151 61.0468 524.753 62.4302 531.232L59.1606 531.93ZM924.613 499.864L921.299 499.41C922.198 492.863 922.958 486.186 923.557 479.565L926.887 479.866C926.283 486.539 925.517 493.266 924.613 499.864ZM52.5723 492.231C51.7839 485.613 51.1366 478.873 50.6478 472.198L53.9827 471.953C54.4667 478.579 55.1099 485.267 55.8926 491.836L52.5723 492.231ZM928.248 459.787L924.908 459.637C925.205 453.013 925.357 446.294 925.357 439.668H928.7C928.7 446.345 928.548 453.114 928.248 459.787ZM49.6349 452.096C49.5207 447.997 49.4628 443.815 49.4619 439.668C49.4619 437.096 49.4839 434.528 49.528 431.965L52.8711 432.024C52.827 434.567 52.805 437.115 52.805 439.668C52.8059 443.784 52.8638 447.935 52.9764 452.004L49.6349 452.096ZM925.333 435.005C925.264 428.376 925.042 421.658 924.675 415.036L928.011 414.85C928.382 421.523 928.606 428.292 928.676 434.969L925.333 435.005ZM53.6647 412.066L50.3281 411.857C50.7452 405.177 51.3214 398.43 52.0388 391.804L55.3624 392.164C54.6498 398.741 54.0793 405.436 53.6647 412.066ZM923.111 395.125C922.444 388.534 921.613 381.866 920.643 375.304L923.95 374.816C924.926 381.428 925.764 388.146 926.438 394.787L923.111 395.125ZM57.9651 372.361L54.6612 371.85C55.6855 365.237 56.8756 358.571 58.1985 352.036L61.4747 352.699C60.1623 359.184 58.9813 365.799 57.9651 372.361ZM917.269 355.62C915.994 349.098 914.556 342.534 912.992 336.109L916.24 335.319C917.816 341.793 919.265 348.408 920.55 354.978L917.269 355.62ZM65.8839 333.219L62.6411 332.406C64.2645 325.931 66.0626 319.402 67.9855 313L71.1866 313.962C69.2792 320.315 67.495 326.794 65.8839 333.219ZM907.821 316.815C905.957 310.449 903.919 304.046 901.766 297.781L904.927 296.694C907.098 303.007 909.151 309.461 911.03 315.875L907.821 316.815ZM77.3923 294.917L74.2385 293.809C76.4602 287.489 78.859 281.139 81.368 274.935L84.4679 276.189C81.9776 282.345 79.5969 288.646 77.3923 294.917ZM894.839 279.047C892.4 272.894 889.788 266.72 887.075 260.694L890.124 259.321C892.859 265.393 895.49 271.615 897.947 277.814L894.839 279.047ZM92.3969 257.813L89.3591 256.418C92.1513 250.337 95.123 244.239 98.1919 238.294L101.163 239.827C98.1168 245.727 95.1679 251.778 92.3969 257.813ZM878.477 242.71C875.485 236.808 872.315 230.894 869.055 225.134L871.964 223.487C875.25 229.292 878.443 235.251 881.458 241.198L878.477 242.71ZM110.746 222.267L107.848 220.599C111.183 214.808 114.7 209.012 118.302 203.372L121.119 205.171C117.545 210.768 114.054 216.521 110.746 222.267ZM858.836 208C855.304 202.377 851.605 196.775 847.842 191.349L850.588 189.444C854.38 194.911 858.108 200.556 861.667 206.223L858.836 208ZM132.264 188.571L129.531 186.645C133.385 181.179 137.415 175.731 141.51 170.452L144.151 172.5C140.088 177.74 136.088 183.147 132.264 188.571ZM836.096 175.212C832.067 169.935 827.872 164.689 823.623 159.621L826.185 157.473C830.466 162.581 834.693 167.866 838.753 173.183L836.096 175.212ZM156.758 156.993L154.213 154.826C158.538 149.746 163.045 144.689 167.61 139.797L170.054 142.078C165.524 146.933 161.051 151.952 156.758 156.993ZM810.453 144.61C805.962 139.722 801.303 134.877 796.608 130.212L798.966 127.84C803.696 132.542 808.389 137.423 812.914 142.348L810.453 144.61ZM184.012 127.788L181.674 125.398C186.455 120.721 191.401 116.098 196.376 111.656L198.603 114.15C193.666 118.558 188.756 123.146 184.012 127.788ZM782.124 116.455C777.203 111.991 772.121 107.589 767.021 103.37L769.153 100.794C774.29 105.045 779.411 109.481 784.37 113.979L782.124 116.455ZM213.796 101.191L211.685 98.5984C216.856 94.3877 222.2 90.2349 227.568 86.2552L229.56 88.9405C224.231 92.8908 218.928 97.0117 213.796 101.191ZM751.338 90.9825C746.028 86.984 740.564 83.0606 735.099 79.3217L736.986 76.5629C742.494 80.3297 747.998 84.2824 753.349 88.312L751.338 90.9825ZM245.86 77.4256L243.994 74.6522C249.528 70.9288 255.225 67.2829 260.928 63.8133L262.665 66.6699C257.006 70.1125 251.352 73.7316 245.86 77.4256ZM718.341 68.4142C712.691 64.9176 706.89 61.5092 701.098 58.282L702.724 55.3617C708.561 58.6134 714.407 62.0487 720.101 65.5706L718.341 68.4142ZM279.939 56.6961L278.335 53.7627C284.189 50.5592 290.192 47.4511 296.177 44.5235L297.646 47.527C291.707 50.4319 285.75 53.5162 279.939 56.6961ZM683.403 48.9505C677.455 45.9869 671.361 43.1236 665.292 40.4409L666.643 37.3834C672.76 40.0866 678.901 42.9719 684.895 45.9583L683.403 48.9505ZM315.747 39.1815L314.419 36.1143C320.537 33.4625 326.795 30.9192 333.02 28.5547L334.206 31.6807C328.029 34.0264 321.819 36.5501 315.747 39.1815ZM646.802 32.772C640.612 30.3716 634.277 28.0813 627.971 25.9658L629.035 22.7957C635.388 24.9284 641.772 27.2358 648.01 29.6558L646.802 32.772ZM353.037 25.0214L351.996 21.8448C358.349 19.7619 364.831 17.8006 371.261 16.0172L372.155 19.2379C365.774 21.0082 359.342 22.9539 353.037 25.0214ZM608.891 20.0508C602.515 18.2332 596.012 16.5404 589.562 15.0198L590.33 11.7665C596.83 13.2985 603.382 15.0043 609.809 16.8351L608.891 20.0508ZM391.52 14.3416L390.775 11.0825C397.289 9.59459 403.923 8.23894 410.495 7.05384L411.089 10.3431C404.566 11.52 397.983 12.8651 391.52 14.3416ZM570.021 10.8866C563.511 9.66482 556.881 8.5777 550.312 7.65535L550.776 4.34491C557.395 5.27455 564.078 6.36986 570.638 7.60068L570.021 10.8866ZM430.822 7.24891L430.379 3.93517C436.997 3.05205 443.727 2.30932 450.383 1.72986L450.673 5.05991C444.068 5.63607 437.391 6.37233 430.822 7.24891ZM530.474 5.33086C523.889 4.71055 517.186 4.23226 510.55 3.91149L510.714 0.571691C517.398 0.895652 524.151 1.3773 530.787 2.00245L530.474 5.33086ZM470.608 3.77764L470.467 0.437838C476.612 0.181537 482.873 0.0509511 489.081 0.0493164L490.595 0.0516973L490.585 3.39483L489.081 3.39236C482.921 3.394 476.705 3.52381 470.608 3.77764Z" fill="#E6E6E6"/>
<path d="M490.132 877.005V694.198C490.135 691.637 491.154 689.182 492.965 687.371C494.776 685.56 497.231 684.541 499.792 684.539H521.726C524.287 684.541 526.742 685.56 528.553 687.371C530.363 689.182 531.382 691.637 531.385 694.198V877.005C531.382 879.566 530.363 882.021 528.553 883.832C526.742 885.643 524.287 886.661 521.726 886.664H499.792C497.231 886.661 494.776 885.643 492.965 883.832C491.154 882.021 490.135 879.566 490.132 877.005Z" fill="#2F2E41"/>
<path d="M446.75 877.005V694.198C446.753 691.637 447.772 689.182 449.583 687.371C451.394 685.56 453.849 684.541 456.41 684.539H478.344C480.905 684.541 483.36 685.56 485.171 687.371C486.982 689.182 488 691.637 488.003 694.198V877.005C488 879.566 486.982 882.021 485.171 883.832C483.36 885.643 480.905 886.661 478.344 886.664H456.41C453.849 886.661 451.394 885.643 449.583 883.832C447.772 882.021 446.753 879.566 446.75 877.005Z" fill="#2F2E41"/>
<path d="M533.471 633.845H444.664C439.74 633.845 435.748 637.837 435.748 642.762V743.079C435.748 748.003 439.74 751.995 444.664 751.995H533.471C538.395 751.995 542.387 748.003 542.387 743.079V642.762C542.387 637.837 538.395 633.845 533.471 633.845Z" fill="#2F2E41"/>
<path d="M339.77 346.636C339.77 346.636 294.953 367.456 257.027 381.264C233.492 328.136 199.586 330.124 199.586 330.124L179.03 344.278L182.737 365.507L181.726 400.216L176.334 418.413L184.072 419.812L188.442 420.604L189.101 420.008C188.01 424.33 187.569 428.789 187.792 433.241L382.23 402.913C382.23 402.913 375.49 371.574 339.77 346.636Z" fill="#E6E6E6"/>
<path d="M282.355 619.893L295.391 637.532C298.318 641.492 303.901 642.33 307.861 639.403L454.875 530.752C458.835 527.825 459.673 522.242 456.746 518.282L443.71 500.643C440.783 496.683 435.2 495.845 431.24 498.772L284.226 607.423C280.266 610.35 279.428 615.933 282.355 619.893Z" fill="#F54298"/>
<path d="M532.861 494.651L513.486 504.933C509.137 507.241 507.482 512.639 509.79 516.988L595.483 678.465C597.792 682.815 603.189 684.47 607.539 682.162L626.913 671.88C631.263 669.572 632.918 664.174 630.61 659.824L544.917 498.347C542.608 493.997 537.211 492.343 532.861 494.651Z" fill="#F54298"/>
<path d="M587.175 566.316L555.532 587.293C550.697 589.859 544.906 588.413 542.598 584.063L507.652 518.214C505.344 513.864 507.393 508.258 512.228 505.692L533.765 494.262C538.601 491.696 544.392 493.142 546.7 497.492L591.75 553.794C594.059 558.144 592.01 563.75 587.175 566.316Z" fill="#CCCCCC"/>
<path d="M371.547 547.027L392.114 574.339C393.732 576.063 395.969 577.074 398.333 577.149C400.696 577.224 402.993 576.356 404.717 574.738L459.072 523.72C460.796 522.101 461.807 519.864 461.881 517.501C461.956 515.137 461.089 512.841 459.471 511.117L444.46 495.124C442.842 493.4 440.605 492.389 438.241 492.314C435.877 492.24 433.581 493.107 431.857 494.725L371.946 534.423C370.222 536.042 369.212 538.279 369.137 540.642C369.062 543.006 369.929 545.303 371.547 547.027Z" fill="#CCCCCC"/>
<path d="M538.897 492.023H439.238C434.314 492.023 430.322 496.015 430.322 500.94V712.667C430.322 717.592 434.314 721.584 439.238 721.584H538.897C543.821 721.584 547.813 717.592 547.813 712.667V500.94C547.813 496.015 543.821 492.023 538.897 492.023Z" fill="#CCCCCC"/>
<path d="M488.485 478.206C532.41 478.206 568.018 442.598 568.018 398.673C568.018 354.749 532.41 319.141 488.485 319.141C444.561 319.141 408.953 354.749 408.953 398.673C408.953 442.598 444.561 478.206 488.485 478.206Z" fill="#F54298"/>
<path d="M497.755 425.228C492.841 425.09 486.726 424.919 482.02 421.479C480.617 420.413 479.464 419.052 478.643 417.493C477.821 415.934 477.35 414.214 477.264 412.454C477.179 411.203 477.384 409.95 477.864 408.792C478.343 407.634 479.084 406.603 480.028 405.778C482.487 403.7 486.08 403.21 489.952 404.35L485.941 375.036L488.887 374.632L493.6 409.094L491.142 407.967C488.293 406.658 484.379 405.993 481.947 408.048C481.35 408.585 480.885 409.253 480.588 409.999C480.291 410.745 480.17 411.549 480.235 412.35C480.306 413.66 480.66 414.939 481.27 416.1C481.881 417.261 482.734 418.277 483.773 419.079C487.434 421.755 492.31 422.102 497.839 422.256L497.755 425.228Z" fill="#2F2E41"/>
<path d="M471.379 377.564H455.372V380.536H471.379V377.564Z" fill="#2F2E41"/>
<path d="M521.905 377.564H505.898V380.536H521.905V377.564Z" fill="#2F2E41"/>
<path d="M435.945 336.522C423.054 335.052 413.071 322.701 411.974 310.17C410.67 295.261 419.352 281.102 431.263 272.736C443.72 263.987 459.239 260.334 474.255 259.529C503.548 258.072 532.335 267.56 555.02 286.15C566.271 295.495 576.78 307.399 580.762 321.778C584.221 334.265 581.407 348.411 571.363 357.157C568.879 359.3 565.977 360.905 562.841 361.87C559.706 362.836 556.404 363.141 553.144 362.766C545.352 361.957 538.161 357.859 531.938 353.334C519.831 344.532 509.892 332.269 495.142 327.669C484.327 324.296 470.292 327.265 463.683 337.045C462.183 339.284 461.211 341.834 460.841 344.503C460.704 345.073 460.789 345.672 461.078 346.182C461.367 346.691 461.839 347.071 462.398 347.245C462.968 347.399 463.575 347.321 464.088 347.03C464.602 346.739 464.98 346.257 465.14 345.688C466.875 333.37 482.022 328.773 492.65 331.586C508.148 335.688 518.551 349.517 531.266 358.304C537.951 362.923 545.555 366.617 553.754 367.279C560.822 367.834 567.837 365.679 573.375 361.252C584.237 352.674 588.391 337.922 585.989 324.639C583.208 309.258 572.855 296.075 561.496 285.869C538.468 265.397 508.572 254.353 477.766 254.938C462.053 255.299 445.658 258.542 432.121 266.847C418.991 274.903 408.842 288.38 407.515 304.046C406.348 317.835 413.746 332.258 426.445 338.299C429.44 339.717 432.651 340.624 435.945 340.98C438.79 341.305 438.767 336.844 435.945 336.522Z" fill="#2F2E41"/>
<path d="M188.297 417.908L197.733 414.875C198.744 412.938 196.894 414.181 197.777 412.297C221.649 361.369 199.586 330.124 199.586 330.124L182.519 341.876C182.477 341.779 182.443 341.679 182.4 341.582C182.4 341.582 179.367 334.842 174.65 339.897C174.65 339.897 189.477 375.954 172.965 420.773L192.173 429.534L199.586 420.773L199.755 419.93L186.487 418.724L188.297 417.908Z" fill="#CCCCCC"/>
<path d="M457.377 607.123C381.557 590.274 310.959 625.151 310.959 625.151L310.767 624.98L282.653 599.878L172.797 420.604L199.587 420.773C274.06 376.291 378.861 382.357 378.861 382.357C424.016 433.578 457.377 607.123 457.377 607.123Z" fill="#3F3D56"/>
<path opacity="0.1" d="M310.767 624.98L282.653 599.878L172.797 420.604L199.587 420.773C199.587 420.773 306.363 561.796 310.767 624.98Z" fill="black"/>
<path d="M323.106 485.101C346.058 478.061 361.037 460.526 356.562 445.936C352.087 431.346 329.853 425.225 306.9 432.265C283.947 439.305 268.968 456.84 273.443 471.43C277.918 486.02 300.153 492.141 323.106 485.101Z" fill="#F54298"/>
<path d="M88.423 333.681C82.3691 356.06 61.633 369.92 61.633 369.92C61.633 369.92 50.7123 347.497 56.7662 325.118C62.82 302.739 83.5562 288.879 83.5562 288.879C83.5562 288.879 94.4769 311.302 88.423 333.681Z" fill="#CCCCCC"/>
<path d="M33.3482 333.681C39.4022 356.06 60.1382 369.92 60.1382 369.92C60.1382 369.92 71.059 347.497 65.0051 325.118C58.9512 302.739 38.215 288.879 38.215 288.879C38.215 288.879 27.2943 311.302 33.3482 333.681Z" fill="#CCCCCC"/>
<path d="M42.2441 328.872C58.8562 345.043 60.8852 369.902 60.8852 369.902C60.8852 369.902 35.9808 368.542 19.3687 352.371C2.75657 336.2 0.727539 311.341 0.727539 311.341C0.727539 311.341 25.632 312.701 42.2441 328.872Z" fill="#3F3D56"/>
<path d="M79.5269 328.872C62.9148 345.043 60.8857 369.902 60.8857 369.902C60.8857 369.902 85.7902 368.542 102.402 352.371C119.014 336.2 121.043 311.341 121.043 311.341C121.043 311.341 96.139 312.701 79.5269 328.872Z" fill="#3F3D56"/>
<path d="M364.752 49.3184C358.698 71.6974 337.962 85.5572 337.962 85.5572C337.962 85.5572 327.041 63.1336 333.095 40.7546C339.149 18.3756 359.885 4.51575 359.885 4.51575C359.885 4.51575 370.806 26.9394 364.752 49.3184Z" fill="#CCCCCC"/>
<path d="M309.676 49.3184C315.73 71.6974 336.466 85.5572 336.466 85.5572C336.466 85.5572 347.387 63.1336 341.333 40.7546C335.279 18.3756 314.543 4.51575 314.543 4.51575C314.543 4.51575 303.622 26.9394 309.676 49.3184Z" fill="#CCCCCC"/>
<path d="M318.572 44.5089C335.184 60.6802 337.213 85.539 337.213 85.539C337.213 85.539 312.309 84.1793 295.697 68.008C279.085 51.8367 277.056 26.9779 277.056 26.9779C277.056 26.9779 301.96 28.3377 318.572 44.5089Z" fill="#3F3D56"/>
<path d="M355.855 44.5089C339.243 60.6802 337.214 85.539 337.214 85.539C337.214 85.539 362.119 84.1793 378.731 68.008C395.343 51.8367 397.372 26.9779 397.372 26.9779C397.372 26.9779 372.468 28.3377 355.855 44.5089Z" fill="#3F3D56"/>
<path d="M663.455 885.741H318.689V888.713H663.455V885.741Z" fill="#3F3D56"/>
</g>
<defs>
<clipPath id="clip0_942_165">
<rect width="953.995" height="888.664" fill="white" transform="translate(0.727539 0.0493164)"/>
</clipPath>
</defs>
</svg>
