<svg width="177" height="126" viewBox="0 0 177 126" fill="none" xmlns="http://www.w3.org/2000/svg">
<path d="M53.5838 60.068C53.7309 60.1007 52.9082 59.362 52.6533 59.1014C51.751 58.1789 50.4936 57.0089 49.7631 55.9379C49.5413 55.6127 49.8538 54.8188 49.9381 54.4389C50.1834 53.3326 49.3748 52.5285 48.9274 51.6403C47.797 49.3963 48.9256 51.8709 49.0006 53.2461C49.09 54.8865 49.0159 56.5273 49.2428 58.155C49.2758 58.392 49.171 60.1956 49.271 60.2865C50.9795 61.8396 53.6842 56.9678 54.3424 55.7439C55.9822 52.6947 57.9525 51.3925 60.8254 51.0306C61.631 50.9291 62.2274 50.3255 62.9889 50.1799C63.5362 50.0752 63.8848 50.4034 64.3326 50.7025C66.4124 52.0916 68.544 53.3785 70.659 54.6972C73.0627 56.1959 74.433 57.1321 75.3151 60.2221C76.0031 62.6319 77.2742 65.336 77.0946 67.9427C77.0153 69.0953 76.753 69.9426 77.9669 69.8813C80.2108 69.7679 83.0239 69.3941 84.2867 66.8077C85.8281 63.6507 86.5437 60.1145 87.3058 56.6783C87.7028 54.8881 87.8602 53.3526 89.2775 52.4332C89.8943 52.0331 93.2153 58.9384 93.192 60.5927C93.15 63.584 91.6961 66.4762 91.6783 69.4836C91.6604 72.4973 95.2367 72.4152 97.0221 72.8111C97.634 72.9468 98.3391 72.988 98.7558 73.5757C99.1214 74.0915 99.3086 75.4218 100.075 74.5941C101.056 73.5353 101.619 71.9467 102.245 70.6174C103 69.0151 104.011 67.6088 104.783 66.014C105.652 64.2179 105.789 62.1831 106.61 60.3546C108.995 55.0498 113.994 53.3752 118.582 52.5734C121.308 52.0971 125.415 51.4934 127.079 54.4578C128.301 56.6341 129.21 58.6014 129.295 61.3076" stroke="white" stroke-width="71.8044" stroke-linecap="square" stroke-dasharray="191.48 382.96 574.44 765.91"/>
</svg>
